<svg width="33" height="38" viewBox="0 0 33 38" fill="none" xmlns="http://www.w3.org/2000/svg">
<path d="M26.8837 36.6438C24.8579 38.6076 22.6461 38.2975 20.517 37.3673C18.2638 36.4164 16.1966 36.3751 13.8194 37.3673C10.8428 38.6489 9.27176 38.2769 7.49403 36.6438C-2.59356 26.2462 -1.10523 10.412 10.3467 9.83316C13.1373 9.97786 15.0804 11.3628 16.7134 11.4869C19.1526 10.9907 21.4885 9.56443 24.0931 9.75047C27.2144 9.99853 29.571 11.2388 31.1213 13.4713C24.6719 17.3368 26.2016 25.8327 32.1135 28.2099C30.9353 31.3106 29.4056 34.3907 26.863 36.6645L26.8837 36.6438ZM16.5067 9.70913C16.1966 5.09943 19.9382 1.29591 24.2378 0.923828C24.8373 6.25702 19.4007 10.2259 16.5067 9.70913Z" fill="white"/>
</svg>
