<svg width="21" height="20" viewBox="0 0 21 20" fill="none" xmlns="http://www.w3.org/2000/svg">
<path fill-rule="evenodd" clip-rule="evenodd" d="M10.793 3.29303C10.9805 3.10556 11.2348 3.00024 11.5 3.00024C11.7652 3.00024 12.0195 3.10556 12.207 3.29303L18.207 9.29303C18.3945 9.48056 18.4998 9.73487 18.4998 10C18.4998 10.2652 18.3945 10.5195 18.207 10.707L12.207 16.707C12.0184 16.8892 11.7658 16.99 11.5036 16.9877C11.2414 16.9854 10.9906 16.8803 10.8052 16.6948C10.6198 16.5094 10.5146 16.2586 10.5123 15.9964C10.51 15.7342 10.6108 15.4816 10.793 15.293L15.086 11H3.5C3.23478 11 2.98043 10.8947 2.79289 10.7071C2.60536 10.5196 2.5 10.2652 2.5 10C2.5 9.73481 2.60536 9.48046 2.79289 9.29292C2.98043 9.10539 3.23478 9.00003 3.5 9.00003H15.086L10.793 4.70703C10.6055 4.5195 10.5002 4.26519 10.5002 4.00003C10.5002 3.73487 10.6055 3.48056 10.793 3.29303Z" fill="#B51749"/>
</svg>
