<svg width="12" height="12" viewBox="0 0 12 12" fill="none" xmlns="http://www.w3.org/2000/svg">
<path fill-rule="evenodd" clip-rule="evenodd" d="M6 1.5C6.13261 1.5 6.25979 1.55268 6.35355 1.64645L9.35355 4.64645C9.54882 4.84171 9.54882 5.15829 9.35355 5.35355C9.15829 5.54882 8.84171 5.54882 8.64645 5.35355L6.5 3.20711L6.5 10C6.5 10.2761 6.27614 10.5 6 10.5C5.72386 10.5 5.5 10.2761 5.5 10L5.5 3.20711L3.35355 5.35355C3.15829 5.54881 2.84171 5.54881 2.64645 5.35355C2.45118 5.15829 2.45118 4.84171 2.64645 4.64645L5.64645 1.64645C5.74022 1.55268 5.86739 1.5 6 1.5Z" fill="#29CC6A"/>
</svg>
