<svg width="49" height="48" viewBox="0 0 49 48" fill="none" xmlns="http://www.w3.org/2000/svg">
<g clip-path="url(#clip0_849_6835)">
<path d="M24.5 8C15.6634 8 8.5 15.1634 8.5 24C8.5 25.1046 7.60457 26 6.5 26C5.39543 26 4.5 25.1046 4.5 24C4.5 12.9543 13.4543 4 24.5 4C29.9522 4 34.8941 6.1827 38.5001 9.71749L38.5001 8.00002C38.5001 6.89544 39.3955 6.00001 40.5 6C41.6046 5.99999 42.5001 6.89542 42.5001 7.99998L42.5001 15.7402C42.5001 16.3452 42.2262 16.9178 41.7551 17.2975C41.2839 17.6771 40.6663 17.8231 40.075 17.6945L32.0749 15.9543C30.9956 15.7196 30.3109 14.6543 30.5457 13.5749C30.7805 12.4956 31.8458 11.811 32.9251 12.0457L35.7984 12.6707C32.9026 9.78245 28.9092 8 24.5 8Z" fill="#B51749"/>
<path d="M42.5 22C43.6046 22 44.5 22.8954 44.5 24C44.5 35.0457 35.5457 44 24.5 44C19.0478 44 14.1059 41.8173 10.4999 38.2825L10.4999 40C10.4999 41.1046 9.60452 42 8.49995 42C7.39539 42 6.49995 41.1046 6.49994 40L6.49989 32.2598C6.49988 31.6548 6.7738 31.0822 7.24493 30.7025C7.71605 30.3229 8.33373 30.1769 8.92498 30.3055L16.9251 32.0457C18.0044 32.2804 18.6891 33.3457 18.4543 34.4251C18.2195 35.5044 17.1542 36.189 16.0749 35.9543L13.2016 35.3293C16.0974 38.2176 20.0908 40 24.5 40C33.3366 40 40.5 32.8366 40.5 24C40.5 22.8954 41.3954 22 42.5 22Z" fill="#B51749"/>
<path fill-rule="evenodd" clip-rule="evenodd" d="M24.4998 14.5C25.3282 14.5 25.9998 15.1716 25.9998 16V16.7665C26.7861 16.8648 27.565 17.0406 28.325 17.2939L29.7741 17.777C30.5601 18.0389 30.9848 18.8884 30.7228 19.6743C30.4609 20.4603 29.6114 20.885 28.8255 20.623L27.3764 20.14C26.9249 19.9895 26.4647 19.8754 25.9998 19.7977V22.7293L27.4146 22.9651C29.3681 23.2907 30.7998 24.9808 30.7998 26.9612V27.2725C30.7998 28.8304 29.8029 30.2134 28.325 30.7061C27.565 30.9594 26.7861 31.1352 25.9998 31.2335V32C25.9998 32.8284 25.3282 33.5 24.4998 33.5C23.6714 33.5 22.9998 32.8284 22.9998 32V31.2335C22.2136 31.1352 21.4346 30.9594 20.6746 30.7061L19.2255 30.223C18.4395 29.9611 18.0148 29.1116 18.2768 28.3257C18.5388 27.5397 19.3882 27.115 20.1741 27.377L21.6233 27.86C22.0747 28.0105 22.535 28.1246 22.9998 28.2023V25.2707L21.585 25.0349C19.6316 24.7093 18.1998 23.0192 18.1998 21.0388V20.7275C18.1998 19.1696 19.1967 17.7866 20.6746 17.2939C21.4346 17.0406 22.2136 16.8648 22.9998 16.7665V16C22.9998 15.1716 23.6714 14.5 24.4998 14.5ZM22.9998 19.7977C22.535 19.8754 22.0747 19.9895 21.6233 20.14C21.3704 20.2243 21.1998 20.4609 21.1998 20.7275V21.0388C21.1998 21.5527 21.5713 21.9912 22.0782 22.0757L22.9998 22.2293V19.7977ZM25.9998 28.2023C26.4647 28.1246 26.9249 28.0105 27.3764 27.86C27.6292 27.7757 27.7998 27.5391 27.7998 27.2725V26.9612C27.7998 26.4473 27.4283 26.0088 26.9214 25.9243L25.9998 25.7707V28.2023Z" fill="#B51749"/>
</g>
<defs>
<clipPath id="clip0_849_6835">
<rect width="40" height="40" fill="white" transform="matrix(-1 0 0 -1 44.5 44)"/>
</clipPath>
</defs>
</svg>
