<svg width="49" height="48" viewBox="0 0 49 48" fill="none" xmlns="http://www.w3.org/2000/svg">
<g clip-path="url(#clip0_849_6832)">
<path fill-rule="evenodd" clip-rule="evenodd" d="M33.0858 4.58579C33.8668 3.80474 35.1332 3.80474 35.9142 4.58579L43.9142 12.5858C44.6953 13.3668 44.6953 14.6332 43.9142 15.4142L35.9142 23.4142C35.1332 24.1953 33.8668 24.1953 33.0858 23.4142C32.3047 22.6332 32.3047 21.3668 33.0858 20.5858L37.6716 16L10.5 16C9.39543 16 8.5 15.1046 8.5 14C8.5 12.8954 9.39543 12 10.5 12L37.6716 12L33.0858 7.41421C32.3047 6.63317 32.3047 5.36684 33.0858 4.58579ZM15.9142 24.5858C16.6953 25.3668 16.6953 26.6332 15.9142 27.4142L11.3284 32L38.5 32C39.6046 32 40.5 32.8954 40.5 34C40.5 35.1046 39.6046 36 38.5 36L11.3284 36L15.9142 40.5858C16.6953 41.3668 16.6953 42.6332 15.9142 43.4142C15.1332 44.1953 13.8668 44.1953 13.0858 43.4142L5.08579 35.4142C4.71071 35.0391 4.5 34.5304 4.5 34C4.5 33.4696 4.71071 32.9609 5.08579 32.5858L13.0858 24.5858C13.8668 23.8047 15.1332 23.8047 15.9142 24.5858Z" fill="#B51749"/>
</g>
<defs>
<clipPath id="clip0_849_6832">
<rect width="40" height="40" fill="white" transform="translate(44.5 4) rotate(90)"/>
</clipPath>
</defs>
</svg>
