<svg width="24" height="25" viewBox="0 0 24 25" fill="none" xmlns="http://www.w3.org/2000/svg">
<g clip-path="url(#clip0_4924_38856)">
<path fill-rule="evenodd" clip-rule="evenodd" d="M21 2.7041C21.5523 2.7041 22 3.15182 22 3.7041V21.7041C22 22.2564 21.5523 22.7041 21 22.7041C20.4477 22.7041 20 22.2564 20 21.7041V3.7041C20 3.15182 20.4477 2.7041 21 2.7041ZM9.70711 5.99699C10.0976 6.38752 10.0976 7.02068 9.70711 7.41121L5.41421 11.7041L17 11.7041C17.5523 11.7041 18 12.1518 18 12.7041C18 13.2564 17.5523 13.7041 17 13.7041L5.41421 13.7041L9.70711 17.997C10.0976 18.3875 10.0976 19.0207 9.70711 19.4112C9.31658 19.8017 8.68342 19.8017 8.29289 19.4112L2.29289 13.4112C2.10536 13.2237 2 12.9693 2 12.7041C2 12.4389 2.10536 12.1845 2.29289 11.997L8.2929 5.99699C8.68342 5.60647 9.31658 5.60647 9.70711 5.99699Z" fill="#575757"/>
</g>
<defs>
<clipPath id="clip0_4924_38856">
<rect width="20" height="20" fill="white" transform="translate(2 2.7041)"/>
</clipPath>
</defs>
</svg>
