<svg width="28" height="27" viewBox="0 0 28 27" fill="none" xmlns="http://www.w3.org/2000/svg">
<g clip-path="url(#clip0_14196_119)">
<path fill-rule="evenodd" clip-rule="evenodd" d="M8.27615 12.9927L13.6095 7.65933C14.1302 7.13863 14.1302 6.29441 13.6095 5.77371L8.27615 0.440329C7.75545 -0.0803701 6.91123 -0.0803701 6.39053 0.440329L1.05715 5.77371C0.536451 6.29441 0.536451 7.13863 1.05715 7.65933L6.39053 12.9927C6.91123 13.5134 7.75545 13.5134 8.27615 12.9927ZM7.33334 10.1643L3.88558 6.71652L7.33334 3.26876L10.7811 6.71652L7.33334 10.1643Z" fill="black"/>
<path fill-rule="evenodd" clip-rule="evenodd" d="M24.6667 1.38311C25.4031 1.38311 26 1.98006 26 2.71644V10.7164C26 11.4528 25.4031 12.0498 24.6667 12.0498H16.6667C15.9303 12.0498 15.3333 11.4528 15.3333 10.7164V2.71644C15.3333 1.98006 15.9303 1.38311 16.6667 1.38311H24.6667ZM23.3333 9.38311V4.04978H18V9.38311H23.3333Z" fill="black"/>
<path fill-rule="evenodd" clip-rule="evenodd" d="M24.6667 14.7164C25.4031 14.7164 26 15.3134 26 16.0498V24.0498C26 24.7862 25.4031 25.3831 24.6667 25.3831H16.6667C15.9303 25.3831 15.3333 24.7862 15.3333 24.0498V16.0498C15.3333 15.3134 15.9303 14.7164 16.6667 14.7164H24.6667ZM23.3333 22.7164V17.3831H18V22.7164H23.3333Z" fill="black"/>
<path fill-rule="evenodd" clip-rule="evenodd" d="M11.3333 14.7164C12.0697 14.7164 12.6667 15.3134 12.6667 16.0498V24.0498C12.6667 24.7862 12.0697 25.3831 11.3333 25.3831H3.33334C2.59696 25.3831 2.00001 24.7862 2.00001 24.0498V16.0498C2.00001 15.3134 2.59696 14.7164 3.33334 14.7164H11.3333ZM10 22.7164V17.3831H4.66668V22.7164H10Z" fill="black"/>
</g>
<defs>
<clipPath id="clip0_14196_119">
<rect width="26.6667" height="26.6667" fill="white" transform="matrix(-1 0 0 1 27.3334 0.0498047)"/>
</clipPath>
</defs>
</svg>
