<svg width="24" height="25" viewBox="0 0 24 25" fill="none" xmlns="http://www.w3.org/2000/svg">
<g clip-path="url(#clip0_4924_66163)">
<path fill-rule="evenodd" clip-rule="evenodd" d="M4 4.7041C4 3.59953 4.89543 2.7041 6 2.7041H18C19.1046 2.7041 20 3.59953 20 4.7041V21.7041C20 22.0787 19.7907 22.4219 19.4576 22.5933C19.1245 22.7647 18.7236 22.7356 18.4188 22.5178L12 17.933L5.58124 22.5178C5.27642 22.7356 4.87549 22.7647 4.54242 22.5933C4.20935 22.4219 4 22.0787 4 21.7041V4.7041ZM18 4.7041L6 4.7041V19.7609L11.4188 15.8904C11.7665 15.642 12.2335 15.642 12.5812 15.8904L18 19.7609V4.7041Z" fill="#575757"/>
</g>
<defs>
<clipPath id="clip0_4924_66163">
<rect width="20" height="20" fill="white" transform="translate(2 2.7041)"/>
</clipPath>
</defs>
</svg>
