<svg width="44" height="45" viewBox="0 0 44 45" fill="none" xmlns="http://www.w3.org/2000/svg">
<rect y="0.5" width="44" height="44" rx="22" fill="#FBE4EB"/>
<g clip-path="url(#clip0_4720_99671)">
<path fill-rule="evenodd" clip-rule="evenodd" d="M22 12.5C20.067 12.5 18.5 14.067 18.5 16C18.5 17.933 20.067 19.5 22 19.5C23.933 19.5 25.5 17.933 25.5 16C25.5 14.067 23.933 12.5 22 12.5ZM20.5 16C20.5 15.1716 21.1716 14.5 22 14.5C22.8284 14.5 23.5 15.1716 23.5 16C23.5 16.8284 22.8284 17.5 22 17.5C21.1716 17.5 20.5 16.8284 20.5 16Z" fill="#B51749"/>
<path fill-rule="evenodd" clip-rule="evenodd" d="M28.5 14.5C27.1193 14.5 26 15.6193 26 17C26 18.3807 27.1193 19.5 28.5 19.5C29.8807 19.5 31 18.3807 31 17C31 15.6193 29.8807 14.5 28.5 14.5ZM28 17C28 16.7239 28.2239 16.5 28.5 16.5C28.7761 16.5 29 16.7239 29 17C29 17.2761 28.7761 17.5 28.5 17.5C28.2239 17.5 28 17.2761 28 17Z" fill="#B51749"/>
<path fill-rule="evenodd" clip-rule="evenodd" d="M18 17C18 15.6193 16.8807 14.5 15.5 14.5C14.1193 14.5 13 15.6193 13 17C13 18.3807 14.1193 19.5 15.5 19.5C16.8807 19.5 18 18.3807 18 17ZM15.5 16.5C15.7761 16.5 16 16.7239 16 17C16 17.2761 15.7761 17.5 15.5 17.5C15.2239 17.5 15 17.2761 15 17C15 16.7239 15.2239 16.5 15.5 16.5Z" fill="#B51749"/>
<path fill-rule="evenodd" clip-rule="evenodd" d="M20 20.5C18.3431 20.5 17 21.8431 17 23.5V25.882C17 26.6395 17.428 27.332 18.1056 27.6708L19 28.118V31.5C19 32.0523 19.4477 32.5 20 32.5H24C24.5523 32.5 25 32.0523 25 31.5V28.118L25.8944 27.6708C26.572 27.332 27 26.6395 27 25.882V23.5C27 21.8431 25.6569 20.5 24 20.5H20ZM19 23.5C19 22.9477 19.4477 22.5 20 22.5H24C24.5523 22.5 25 22.9477 25 23.5V25.882L23.5528 26.6056C23.214 26.775 23 27.1212 23 27.5V30.5H21V27.5C21 27.1212 20.786 26.775 20.4472 26.6056L19 25.882V23.5Z" fill="#B51749"/>
<path d="M28 21.5C28 20.9477 28.4477 20.5 29 20.5H30C31.1046 20.5 32 21.3954 32 22.5V25.882C32 26.6395 31.572 27.332 30.8944 27.6708L30 28.118V31.5C30 32.0523 29.5523 32.5 29 32.5H27C26.4477 32.5 26 32.0523 26 31.5C26 30.9477 26.4477 30.5 27 30.5H28V27.5C28 27.1212 28.214 26.775 28.5528 26.6056L30 25.882V22.5H29C28.4477 22.5 28 22.0523 28 21.5Z" fill="#B51749"/>
<path d="M15 20.5C15.5523 20.5 16 20.9477 16 21.5C16 22.0523 15.5523 22.5 15 22.5H14V25.882L15.4472 26.6056C15.786 26.775 16 27.1212 16 27.5V30.5H17C17.5523 30.5 18 30.9477 18 31.5C18 32.0523 17.5523 32.5 17 32.5H15C14.4477 32.5 14 32.0523 14 31.5V28.118L13.1056 27.6708C12.428 27.332 12 26.6395 12 25.882V22.5C12 21.3954 12.8954 20.5 14 20.5H15Z" fill="#B51749"/>
</g>
<defs>
<clipPath id="clip0_4720_99671">
<rect width="20" height="20" fill="white" transform="translate(12 12.5)"/>
</clipPath>
</defs>
</svg>
