<svg width="28" height="28" viewBox="0 0 28 28" fill="none" xmlns="http://www.w3.org/2000/svg">
<path d="M14.6855 11.4551C14.4051 10.887 13.595 10.887 13.3146 11.4551L12.2587 13.5946C12.1474 13.8202 11.9322 13.9766 11.6832 14.0128L9.32203 14.3559C8.69509 14.447 8.44475 15.2174 8.89841 15.6596L10.607 17.3251C10.7871 17.5007 10.8693 17.7537 10.8268 18.0016L10.4235 20.3532C10.3164 20.9777 10.9718 21.4538 11.5325 21.159L13.6444 20.0487C13.8671 19.9317 14.1331 19.9317 14.3558 20.0487L16.4677 21.159C17.0284 21.4538 17.6838 20.9777 17.5767 20.3532L17.1734 18.0016C17.1308 17.7537 17.2131 17.5007 17.3932 17.3251L19.1018 15.6596C19.5554 15.2174 19.3051 14.447 18.6781 14.3559L16.317 14.0128C16.068 13.9766 15.8528 13.8202 15.7415 13.5946L14.6855 11.4551Z" fill="white"/>
<path fill-rule="evenodd" clip-rule="evenodd" d="M10.0001 1.69565C10.0001 0.959274 9.40313 0.36232 8.66675 0.36232C7.93037 0.36232 7.33342 0.959274 7.33342 1.69565V3.02899H6.00008C3.05456 3.02899 0.666748 5.4168 0.666748 8.36232V24.3623C0.666748 25.8351 1.86066 27.029 3.33341 27.029H24.6667C26.1395 27.029 27.3334 25.8351 27.3334 24.3623V8.36232C27.3334 5.4168 24.9456 3.02899 22.0001 3.02899H20.6667V1.69565C20.6667 0.959274 20.0698 0.36232 19.3334 0.36232C18.597 0.36232 18.0001 0.959274 18.0001 1.69565V3.02899L10.0001 3.02899V1.69565ZM18.0001 7.02899V5.69565H10.0001V7.02899C10.0001 7.76537 9.40313 8.36232 8.66675 8.36232C7.93037 8.36232 7.33342 7.76537 7.33342 7.02899V5.69565H6.00008C4.52732 5.69565 3.33341 6.88956 3.33341 8.36232L3.33341 24.3623H24.6667V8.36232C24.6667 6.88956 23.4728 5.69565 22.0001 5.69565H20.6667V7.02899C20.6667 7.76537 20.0698 8.36232 19.3334 8.36232C18.597 8.36232 18.0001 7.76537 18.0001 7.02899Z" fill="white"/>
</svg>
