<svg width="28" height="27" viewBox="0 0 28 27" fill="none" xmlns="http://www.w3.org/2000/svg">
<path d="M14.6855 11.2212C14.4051 10.6531 13.595 10.6531 13.3146 11.2212L12.2586 13.3607C12.1473 13.5863 11.9321 13.7427 11.6831 13.7789L9.32197 14.122C8.69503 14.2131 8.44469 14.9835 8.89835 15.4257L10.6069 17.0912C10.7871 17.2668 10.8693 17.5198 10.8267 17.7677L10.4234 20.1193C10.3163 20.7438 10.9717 21.2199 11.5324 20.9251L13.6443 19.8148C13.867 19.6978 14.133 19.6978 14.3557 19.8148L16.4676 20.9251C17.0284 21.2199 17.6837 20.7438 17.5766 20.1193L17.1733 17.7677C17.1308 17.5198 17.213 17.2668 17.3931 17.0912L19.1017 15.4257C19.5554 14.9835 19.305 14.2131 18.6781 14.122L16.3169 13.7789C16.068 13.7427 15.8527 13.5863 15.7414 13.3607L14.6855 11.2212Z" fill="#323232"/>
<path fill-rule="evenodd" clip-rule="evenodd" d="M10 1.46175C10 0.725372 9.40307 0.128418 8.66669 0.128418C7.93031 0.128418 7.33335 0.725372 7.33335 1.46175V2.79508H6.00002C3.0545 2.79508 0.666687 5.1829 0.666687 8.12842V24.1284C0.666687 25.6012 1.86059 26.7951 3.33335 26.7951H24.6667C26.1394 26.7951 27.3334 25.6012 27.3334 24.1284V8.12842C27.3334 5.1829 24.9455 2.79508 22 2.79508H20.6667V1.46175C20.6667 0.725372 20.0697 0.128418 19.3334 0.128418C18.597 0.128418 18 0.725372 18 1.46175V2.79508L10 2.79508V1.46175ZM18 6.79508V5.46175H10V6.79508C10 7.53146 9.40307 8.12842 8.66669 8.12842C7.93031 8.12842 7.33335 7.53146 7.33335 6.79508V5.46175H6.00002C4.52726 5.46175 3.33335 6.65566 3.33335 8.12842L3.33335 24.1284H24.6667V8.12842C24.6667 6.65566 23.4728 5.46175 22 5.46175H20.6667V6.79508C20.6667 7.53146 20.0697 8.12842 19.3334 8.12842C18.597 8.12842 18 7.53146 18 6.79508Z" fill="#323232"/>
</svg>
