<svg width="42" height="42" viewBox="0 0 42 42" fill="none" xmlns="http://www.w3.org/2000/svg">
<g clip-path="url(#clip0_3728_109402)">
<path fill-rule="evenodd" clip-rule="evenodd" d="M26.25 5.25C26.25 4.2835 27.0335 3.5 28 3.5C28.9665 3.5 29.75 4.2835 29.75 5.25V7H31.5C35.366 7 38.5 10.134 38.5 14V35C38.5 36.9404 36.9199 38.5 34.9943 38.5L27.125 38.5C26.1585 38.5 25.375 37.7165 25.375 36.75C25.375 35.7835 26.1585 35 27.125 35H34.9943L34.9965 34.9999L34.9999 34.9972L35 21L5.25 21C4.2835 21 3.5 20.2165 3.5 19.25V14C3.5 10.134 6.63401 7 10.5 7H12.25V5.25C12.25 4.2835 13.0335 3.5 14 3.5C14.9665 3.5 15.75 4.2835 15.75 5.25V7L26.25 7V5.25ZM15.75 12.25V10.5L26.25 10.5V12.25C26.25 13.2165 27.0335 14 28 14C28.9665 14 29.75 13.2165 29.75 12.25V10.5H31.5C33.433 10.5 35 12.067 35 14V17.5L7 17.5V14C7 12.067 8.56701 10.5 10.5 10.5H12.25V12.25C12.25 13.2165 13.0335 14 14 14C14.9665 14 15.75 13.2165 15.75 12.25Z" fill="white"/>
<path d="M11.7374 27.4874C12.4209 26.804 12.4209 25.696 11.7374 25.0126C11.054 24.3291 9.94598 24.3291 9.26256 25.0126L4.01256 30.2626C3.32915 30.946 3.32915 32.054 4.01256 32.7374L9.26256 37.9874C9.94598 38.6709 11.054 38.6709 11.7374 37.9874C12.4209 37.304 12.4209 36.196 11.7374 35.5126L9.47487 33.25H21C21.9665 33.25 22.75 32.4665 22.75 31.5C22.75 30.5335 21.9665 29.75 21 29.75H9.47487L11.7374 27.4874Z" fill="white"/>
</g>
<defs>
<clipPath id="clip0_3728_109402">
<rect width="35" height="35" fill="white" transform="matrix(-1 0 0 1 38.5 3.5)"/>
</clipPath>
</defs>
</svg>
