<svg width="42" height="42" viewBox="0 0 42 42" fill="none" xmlns="http://www.w3.org/2000/svg">
<g clip-path="url(#clip0_3728_109416)">
<path fill-rule="evenodd" clip-rule="evenodd" d="M14 3.5C14.9665 3.5 15.75 4.2835 15.75 5.25V7L26.25 7V5.25C26.25 4.2835 27.0335 3.5 28 3.5C28.9665 3.5 29.75 4.2835 29.75 5.25V7H31.5C35.366 7 38.5 10.134 38.5 14V35C38.5 36.933 36.933 38.5 35 38.5H7C5.06701 38.5 3.5 36.933 3.5 35L3.5 14C3.5 10.134 6.63401 7 10.5 7L12.25 7V5.25C12.25 4.2835 13.0335 3.5 14 3.5ZM12.25 10.5H10.5C8.56701 10.5 7 12.067 7 14V17.5L35 17.5V14C35 12.067 33.433 10.5 31.5 10.5H29.75V12.25C29.75 13.2165 28.9665 14 28 14C27.0335 14 26.25 13.2165 26.25 12.25V10.5L15.75 10.5V12.25C15.75 13.2165 14.9665 14 14 14C13.0335 14 12.25 13.2165 12.25 12.25V10.5ZM35 21L7 21L7 35H35V21ZM26.6124 24.1376C27.2959 24.821 27.2959 25.929 26.6124 26.6124L21.3624 31.8624C20.7466 32.4783 19.7717 32.5475 19.075 32.025L15.575 29.4C14.8018 28.8201 14.6451 27.7232 15.225 26.95C15.8049 26.1768 16.9018 26.0201 17.675 26.6L19.9608 28.3143L24.1376 24.1376C24.821 23.4541 25.929 23.4541 26.6124 24.1376Z" fill="white"/>
</g>
<defs>
<clipPath id="clip0_3728_109416">
<rect width="35" height="35" fill="white" transform="translate(3.5 3.5)"/>
</clipPath>
</defs>
</svg>
