<svg width="24" height="25" viewBox="0 0 24 25" fill="none" xmlns="http://www.w3.org/2000/svg">
<g clip-path="url(#clip0_4924_75166)">
<path fill-rule="evenodd" clip-rule="evenodd" d="M8 2.7041C8.55228 2.7041 9 3.15182 9 3.7041V4.7041L15 4.7041V3.7041C15 3.15182 15.4477 2.7041 16 2.7041C16.5523 2.7041 17 3.15182 17 3.7041V4.7041H18C20.2091 4.7041 22 6.49496 22 8.7041V20.7041C22 21.8087 21.1046 22.7041 20 22.7041H4C2.89543 22.7041 2 21.8087 2 20.7041V8.7041C2 6.49496 3.79086 4.7041 6 4.7041H7V3.7041C7 3.15182 7.44772 2.7041 8 2.7041ZM15 6.7041V7.7041C15 8.25639 15.4477 8.7041 16 8.7041C16.5523 8.7041 17 8.25639 17 7.7041V6.7041H18C19.1046 6.7041 20 7.59953 20 8.7041V10.7041L4 10.7041L4 8.7041C4 7.59953 4.89543 6.7041 6 6.7041H7V7.7041C7 8.25639 7.44772 8.7041 8 8.7041C8.55229 8.7041 9 8.25639 9 7.7041V6.7041L15 6.7041ZM4 12.7041L20 12.7041V20.7041H4L4 12.7041Z" fill="#575757"/>
</g>
<defs>
<clipPath id="clip0_4924_75166">
<rect width="20" height="20" fill="white" transform="translate(2 2.7041)"/>
</clipPath>
</defs>
</svg>
