<svg width="20" height="20" viewBox="0 0 20 20" fill="none" xmlns="http://www.w3.org/2000/svg">
<g clip-path="url(#clip0_12634_67056)">
<path fill-rule="evenodd" clip-rule="evenodd" d="M10 0C8.067 0 6.5 1.567 6.5 3.5C6.5 5.433 8.067 7 10 7C11.933 7 13.5 5.433 13.5 3.5C13.5 1.567 11.933 0 10 0ZM8.5 3.5C8.5 2.67157 9.17157 2 10 2C10.8284 2 11.5 2.67157 11.5 3.5C11.5 4.32843 10.8284 5 10 5C9.17157 5 8.5 4.32843 8.5 3.5Z" fill="#575757"/>
<path fill-rule="evenodd" clip-rule="evenodd" d="M16.5 2C15.1193 2 14 3.11929 14 4.5C14 5.88071 15.1193 7 16.5 7C17.8807 7 19 5.88071 19 4.5C19 3.11929 17.8807 2 16.5 2ZM16 4.5C16 4.22386 16.2239 4 16.5 4C16.7761 4 17 4.22386 17 4.5C17 4.77614 16.7761 5 16.5 5C16.2239 5 16 4.77614 16 4.5Z" fill="#575757"/>
<path fill-rule="evenodd" clip-rule="evenodd" d="M6 4.5C6 3.11929 4.88071 2 3.5 2C2.11929 2 1 3.11929 1 4.5C1 5.88071 2.11929 7 3.5 7C4.88071 7 6 5.88071 6 4.5ZM3.5 4C3.77614 4 4 4.22386 4 4.5C4 4.77614 3.77614 5 3.5 5C3.22386 5 3 4.77614 3 4.5C3 4.22386 3.22386 4 3.5 4Z" fill="#575757"/>
<path fill-rule="evenodd" clip-rule="evenodd" d="M8 8C6.34315 8 5 9.34315 5 11V13.382C5 14.1395 5.428 14.832 6.10557 15.1708L7 15.618V19C7 19.5523 7.44772 20 8 20H12C12.5523 20 13 19.5523 13 19V15.618L13.8944 15.1708C14.572 14.832 15 14.1395 15 13.382V11C15 9.34315 13.6569 8 12 8H8ZM7 11C7 10.4477 7.44772 10 8 10H12C12.5523 10 13 10.4477 13 11V13.382L11.5528 14.1056C11.214 14.275 11 14.6212 11 15V18H9V15C9 14.6212 8.786 14.275 8.44721 14.1056L7 13.382V11Z" fill="#575757"/>
<path d="M16 9C16 8.44771 16.4477 8 17 8H18C19.1046 8 20 8.89543 20 10V13.382C20 14.1395 19.572 14.832 18.8944 15.1708L18 15.618V19C18 19.5523 17.5523 20 17 20H15C14.4477 20 14 19.5523 14 19C14 18.4477 14.4477 18 15 18H16V15C16 14.6212 16.214 14.275 16.5528 14.1056L18 13.382V10H17C16.4477 10 16 9.55229 16 9Z" fill="#575757"/>
<path d="M3 8C3.55228 8 4 8.44771 4 9C4 9.55229 3.55228 10 3 10H2V13.382L3.44721 14.1056C3.786 14.275 4 14.6212 4 15V18H5C5.55228 18 6 18.4477 6 19C6 19.5523 5.55228 20 5 20H3C2.44772 20 2 19.5523 2 19V15.618L1.10557 15.1708C0.428005 14.832 0 14.1395 0 13.382V10C0 8.89543 0.895431 8 2 8H3Z" fill="#575757"/>
</g>
<defs>
<clipPath id="clip0_12634_67056">
<rect width="20" height="20" fill="white"/>
</clipPath>
</defs>
</svg>
