<svg width="15" height="14" viewBox="0 0 15 14" fill="none" xmlns="http://www.w3.org/2000/svg">
<path d="M8.16589 4.99929C8.16589 4.6311 7.86742 4.33262 7.49923 4.33262C7.13104 4.33262 6.83256 4.6311 6.83256 4.99929V7.66596C6.83256 8.03415 7.13104 8.33262 7.49923 8.33262C7.86742 8.33262 8.16589 8.03415 8.16589 7.66596V4.99929Z" fill="#FC5555"/>
<path d="M7.49927 9.33268C7.03903 9.33268 6.66593 9.70578 6.66593 10.166C6.66593 10.6263 7.03903 10.9994 7.49927 10.9994C7.95951 10.9994 8.3326 10.6263 8.3326 10.166C8.3326 9.70578 7.95951 9.33268 7.49927 9.33268Z" fill="#FC5555"/>
<path fill-rule="evenodd" clip-rule="evenodd" d="M9.24754 2.10684C8.48553 0.735218 6.51292 0.735222 5.75091 2.10684L1.35027 10.028C0.609675 11.3611 1.57361 12.9993 3.09858 12.9993H11.8999C13.4248 12.9993 14.3888 11.3611 13.6482 10.028L9.24754 2.10684ZM6.91646 2.75436C7.17046 2.29716 7.828 2.29716 8.082 2.75436L12.4826 10.6755C12.7295 11.1199 12.4082 11.666 11.8999 11.666H3.09858C2.59026 11.666 2.26895 11.1199 2.51581 10.6755L6.91646 2.75436Z" fill="#FC5555"/>
</svg>
