<svg width="49" height="48" viewBox="0 0 49 48" fill="none" xmlns="http://www.w3.org/2000/svg">
<g clip-path="url(#clip0_849_6914)">
<path fill-rule="evenodd" clip-rule="evenodd" d="M35.9142 4.58579C36.6953 5.36683 36.6953 6.63316 35.9142 7.41421L33.3284 10H38.5C41.8137 10 44.5 12.6863 44.5 16V20C44.5 21.1046 43.6046 22 42.5 22C41.3954 22 40.5 21.1046 40.5 20V16C40.5 14.8954 39.6046 14 38.5 14H33.3284L35.9142 16.5858C36.6953 17.3668 36.6953 18.6332 35.9142 19.4142C35.1332 20.1953 33.8668 20.1953 33.0858 19.4142L27.0858 13.4142C26.3047 12.6332 26.3047 11.3668 27.0858 10.5858L33.0858 4.58579C33.8668 3.80474 35.1332 3.80474 35.9142 4.58579ZM13.5 8C10.7386 8 8.5 10.2386 8.5 13C8.5 15.7614 10.7386 18 13.5 18C16.2614 18 18.5 15.7614 18.5 13C18.5 10.2386 16.2614 8 13.5 8ZM4.5 13C4.5 8.02944 8.52944 4 13.5 4C18.4706 4 22.5 8.02944 22.5 13C22.5 17.9706 18.4706 22 13.5 22C8.52944 22 4.5 17.9706 4.5 13ZM35.5 30C32.7386 30 30.5 32.2386 30.5 35C30.5 37.7614 32.7386 40 35.5 40C38.2614 40 40.5 37.7614 40.5 35C40.5 32.2386 38.2614 30 35.5 30ZM26.5 35C26.5 30.0294 30.5294 26 35.5 26C40.4706 26 44.5 30.0294 44.5 35C44.5 39.9706 40.4706 44 35.5 44C30.5294 44 26.5 39.9706 26.5 35ZM6.5 26C7.60457 26 8.5 26.8954 8.5 28V32C8.5 33.1046 9.39543 34 10.5 34H15.6716L13.0858 31.4142C12.3047 30.6332 12.3047 29.3668 13.0858 28.5858C13.8668 27.8047 15.1332 27.8047 15.9142 28.5858L21.9142 34.5858C22.6953 35.3668 22.6953 36.6332 21.9142 37.4142L15.9142 43.4142C15.1332 44.1953 13.8668 44.1953 13.0858 43.4142C12.3047 42.6332 12.3047 41.3668 13.0858 40.5858L15.6716 38H10.5C7.18629 38 4.5 35.3137 4.5 32L4.5 28C4.5 26.8954 5.39543 26 6.5 26Z" fill="#B51749"/>
</g>
<defs>
<clipPath id="clip0_849_6914">
<rect width="40" height="40" fill="white" transform="translate(4.5 44) rotate(-90)"/>
</clipPath>
</defs>
</svg>
