<svg width="20" height="20" viewBox="0 0 20 20" fill="none" xmlns="http://www.w3.org/2000/svg">
<path d="M10 2C5.58172 2 2 5.58172 2 10C2 10.5523 1.55228 11 1 11C0.447716 11 0 10.5523 0 10C0 4.47715 4.47715 0 10 0C12.7261 0 15.197 1.09135 17 2.85874L17 2.00001C17 1.44772 17.4477 1 18 1C18.5523 0.999996 19 1.44771 19 1.99999L19.0001 5.87009C19.0001 6.17262 18.8631 6.45889 18.6275 6.64873C18.392 6.83856 18.0831 6.91155 17.7875 6.84725L13.7875 5.97716C13.2478 5.85978 12.9055 5.32713 13.0228 4.78747C13.1402 4.2478 13.6729 3.90548 14.2125 4.02286L15.6492 4.33536C14.2013 2.89122 12.2046 2 10 2Z" fill="#7D7D7D"/>
<path d="M19 9C19.5523 9 20 9.44771 20 10C20 15.5228 15.5228 20 10 20C7.2739 20 4.80295 18.9086 2.99996 17.1413L2.99997 18C2.99997 18.5523 2.55226 19 1.99998 19C1.44769 19 0.999973 18.5523 0.999969 18L0.999943 14.1299C0.999939 13.8274 1.1369 13.5411 1.37246 13.3513C1.60803 13.1614 1.91687 13.0885 2.21249 13.1528L6.21255 14.0228C6.75221 14.1402 7.09454 14.6729 6.97715 15.2125C6.85976 15.7522 6.32712 16.0945 5.78745 15.9771L4.35081 15.6646C5.79872 17.1088 7.79541 18 10 18C14.4183 18 18 14.4183 18 10C18 9.44771 18.4477 9 19 9Z" fill="#7D7D7D"/>
<path fill-rule="evenodd" clip-rule="evenodd" d="M9.9999 5.25C10.4141 5.25 10.7499 5.58579 10.7499 6V6.38327C11.143 6.43239 11.5325 6.52029 11.9125 6.64697L12.6371 6.88849C13.03 7.01947 13.2424 7.44421 13.1114 7.83717C12.9804 8.23013 12.5557 8.4425 12.1627 8.31151L11.4382 8.06999C11.2125 7.99476 10.9823 7.93771 10.7499 7.89885V9.36465L11.4573 9.48256C12.434 9.64534 13.1499 10.4904 13.1499 11.4806V11.6363C13.1499 12.4152 12.6515 13.1067 11.9125 13.353C11.5325 13.4797 11.143 13.5676 10.7499 13.6167V14C10.7499 14.4142 10.4141 14.75 9.9999 14.75C9.58569 14.75 9.2499 14.4142 9.2499 14V13.6167C8.85678 13.5676 8.46731 13.4797 8.08729 13.353L7.36273 13.1115C6.96977 12.9805 6.7574 12.5558 6.88839 12.1628C7.01938 11.7699 7.44412 11.5575 7.83707 11.6885L8.56163 11.93C8.78734 12.0052 9.01748 12.0623 9.2499 12.1011V10.6353L8.5425 10.5174C7.56578 10.3547 6.8499 9.5096 6.8499 8.5194V8.36375C6.8499 7.58482 7.34833 6.89329 8.08729 6.64697C8.46731 6.52029 8.85678 6.43239 9.2499 6.38327V6C9.2499 5.58579 9.58569 5.25 9.9999 5.25ZM9.2499 7.89885C9.01748 7.93771 8.78734 7.99476 8.56163 8.06999C8.43519 8.11214 8.3499 8.23047 8.3499 8.36375V8.5194C8.3499 8.77634 8.53566 8.99561 8.7891 9.03785L9.2499 9.11466V7.89885ZM10.7499 12.1011C10.9823 12.0623 11.2125 12.0052 11.4382 11.93C11.5646 11.8879 11.6499 11.7695 11.6499 11.6363V11.4806C11.6499 11.2237 11.4641 11.0044 11.2107 10.9621L10.7499 10.8853V12.1011Z" fill="#7D7D7D"/>
</svg>
