<svg width="28" height="28" viewBox="0 0 28 28" fill="none" xmlns="http://www.w3.org/2000/svg">
<path fill-rule="evenodd" clip-rule="evenodd" d="M21.6096 0.752951C22.1303 1.27365 22.1303 2.11787 21.6096 2.63857L19.8857 4.36243H23.3334C25.5426 4.36243 27.3334 6.15329 27.3334 8.36243V11.0291C27.3334 11.7655 26.7365 12.3624 26.0001 12.3624C25.2637 12.3624 24.6667 11.7655 24.6667 11.0291V8.36243C24.6667 7.62605 24.0698 7.02909 23.3334 7.02909H19.8857L21.6096 8.75295C22.1303 9.27365 22.1303 10.1179 21.6096 10.6386C21.0889 11.1593 20.2446 11.1593 19.7239 10.6386L15.7239 6.63857C15.2032 6.11787 15.2032 5.27365 15.7239 4.75295L19.7239 0.752951C20.2446 0.232252 21.0889 0.232252 21.6096 0.752951ZM6.66675 3.02909C4.8258 3.02909 3.33341 4.52148 3.33341 6.36243C3.33341 8.20338 4.8258 9.69576 6.66675 9.69576C8.5077 9.69576 10.0001 8.20338 10.0001 6.36243C10.0001 4.52148 8.5077 3.02909 6.66675 3.02909ZM0.666748 6.36243C0.666748 3.04872 3.35304 0.362428 6.66675 0.362428C9.98046 0.362428 12.6667 3.04872 12.6667 6.36243C12.6667 9.67614 9.98046 12.3624 6.66675 12.3624C3.35304 12.3624 0.666748 9.67614 0.666748 6.36243ZM21.3334 17.6958C19.4925 17.6958 18.0001 19.1881 18.0001 21.0291C18.0001 22.87 19.4925 24.3624 21.3334 24.3624C23.1744 24.3624 24.6667 22.87 24.6667 21.0291C24.6667 19.1881 23.1744 17.6958 21.3334 17.6958ZM15.3334 21.0291C15.3334 17.7154 18.0197 15.0291 21.3334 15.0291C24.6471 15.0291 27.3334 17.7154 27.3334 21.0291C27.3334 24.3428 24.6471 27.0291 21.3334 27.0291C18.0197 27.0291 15.3334 24.3428 15.3334 21.0291ZM2.00008 15.0291C2.73646 15.0291 3.33342 15.626 3.33342 16.3624V19.0291C3.33342 19.7655 3.93037 20.3624 4.66675 20.3624H8.11446L6.39061 18.6386C5.86991 18.1179 5.86991 17.2736 6.39061 16.753C6.9113 16.2323 7.75552 16.2323 8.27622 16.753L12.2762 20.753C12.7969 21.2736 12.7969 22.1179 12.2762 22.6386L8.27622 26.6386C7.75553 27.1593 6.91131 27.1593 6.39061 26.6386C5.86991 26.1179 5.86991 25.2737 6.39061 24.753L8.11446 23.0291H4.66675C2.45761 23.0291 0.666749 21.2382 0.666749 19.0291L0.666749 16.3624C0.666748 15.626 1.2637 15.0291 2.00008 15.0291Z" fill="white"/>
</svg>
