<svg width="32" height="33" viewBox="0 0 32 33" fill="none" xmlns="http://www.w3.org/2000/svg">
<g clip-path="url(#clip0_13354_7538)">
<path fill-rule="evenodd" clip-rule="evenodd" d="M23.6095 3.88955C24.1302 4.41025 24.1302 5.25447 23.6095 5.77517L21.8856 7.49902H25.3334C27.5425 7.49902 29.3334 9.28989 29.3334 11.499V14.1657C29.3334 14.9021 28.7364 15.499 28 15.499C27.2636 15.499 26.6667 14.9021 26.6667 14.1657V11.499C26.6667 10.7626 26.0697 10.1657 25.3334 10.1657H21.8856L23.6095 11.8895C24.1302 12.4102 24.1302 13.2545 23.6095 13.7752C23.0888 14.2959 22.2446 14.2959 21.7239 13.7752L17.7239 9.77517C17.2032 9.25447 17.2032 8.41025 17.7239 7.88955L21.7239 3.88955C22.2446 3.36885 23.0888 3.36885 23.6095 3.88955ZM8.66669 6.16569C6.82574 6.16569 5.33335 7.65808 5.33335 9.49902C5.33335 11.34 6.82574 12.8324 8.66669 12.8324C10.5076 12.8324 12 11.34 12 9.49902C12 7.65808 10.5076 6.16569 8.66669 6.16569ZM2.66669 9.49902C2.66669 6.18532 5.35298 3.49902 8.66669 3.49902C11.9804 3.49902 14.6667 6.18532 14.6667 9.49902C14.6667 12.8127 11.9804 15.499 8.66669 15.499C5.35298 15.499 2.66669 12.8127 2.66669 9.49902ZM23.3334 20.8324C21.4924 20.8324 20 22.3247 20 24.1657C20 26.0066 21.4924 27.499 23.3334 27.499C25.1743 27.499 26.6667 26.0066 26.6667 24.1657C26.6667 22.3247 25.1743 20.8324 23.3334 20.8324ZM17.3334 24.1657C17.3334 20.852 20.0196 18.1657 23.3334 18.1657C26.6471 18.1657 29.3334 20.852 29.3334 24.1657C29.3334 27.4794 26.6471 30.1657 23.3334 30.1657C20.0196 30.1657 17.3334 27.4794 17.3334 24.1657ZM4.00002 18.1657C4.7364 18.1657 5.33335 18.7626 5.33335 19.499V22.1657C5.33335 22.9021 5.93031 23.499 6.66669 23.499H10.1144L8.39054 21.7752C7.86985 21.2545 7.86985 20.4102 8.39054 19.8895C8.91124 19.3688 9.75546 19.3688 10.2762 19.8895L14.2762 23.8895C14.7969 24.4102 14.7969 25.2545 14.2762 25.7752L10.2762 29.7752C9.75546 30.2959 8.91124 30.2959 8.39055 29.7752C7.86985 29.2545 7.86985 28.4102 8.39055 27.8895L10.1144 26.1657H6.66669C4.45755 26.1657 2.66669 24.3748 2.66669 22.1657L2.66669 19.499C2.66669 18.7626 3.26364 18.1657 4.00002 18.1657Z" fill="#323232"/>
</g>
<defs>
<clipPath id="clip0_13354_7538">
<rect width="26.6667" height="26.6667" fill="white" transform="translate(2.66669 30.1655) rotate(-90)"/>
</clipPath>
</defs>
</svg>
