<svg width="24" height="24" viewBox="0 0 24 24" fill="none" xmlns="http://www.w3.org/2000/svg">
<path d="M13.0059 5.461C14.1687 5.461 15.1114 4.51834 15.1114 3.3555C15.1114 2.19266 14.1687 1.25 13.0059 1.25C11.8431 1.25 10.9004 2.19266 10.9004 3.3555C10.9004 4.51834 11.8431 5.461 13.0059 5.461Z" stroke="white" stroke-width="0.5" stroke-linecap="round" stroke-linejoin="round"/>
<path d="M20.6416 13.122C21.8045 13.122 22.7471 12.1793 22.7471 11.0165C22.7471 9.85368 21.8045 8.91101 20.6416 8.91101C19.4788 8.91101 18.5361 9.85368 18.5361 11.0165C18.5361 12.1793 19.4788 13.122 20.6416 13.122Z" stroke="white" stroke-width="0.5" stroke-linecap="round" stroke-linejoin="round"/>
<path d="M15.7139 22.7499C16.8767 22.7499 17.8194 21.8073 17.8194 20.6444C17.8194 19.4816 16.8767 18.5389 15.7139 18.5389C14.5511 18.5389 13.6084 19.4816 13.6084 20.6444C13.6084 21.8073 14.5511 22.7499 15.7139 22.7499Z" stroke="white" stroke-width="0.5" stroke-linecap="round" stroke-linejoin="round"/>
<path d="M5.03226 21.039C6.19509 21.039 7.13776 20.0963 7.13776 18.9335C7.13776 17.7707 6.19509 16.828 5.03226 16.828C3.86942 16.828 2.92676 17.7707 2.92676 18.9335C2.92676 20.0963 3.86942 21.039 5.03226 21.039Z" stroke="white" stroke-width="0.5" stroke-linecap="round" stroke-linejoin="round"/>
<path d="M3.35843 10.3539C4.52127 10.3539 5.46393 9.41128 5.46393 8.24844C5.46393 7.08561 4.52127 6.14294 3.35843 6.14294C2.19559 6.14294 1.25293 7.08561 1.25293 8.24844C1.25293 9.41128 2.19559 10.3539 3.35843 10.3539Z" stroke="white" stroke-width="0.5" stroke-linecap="round" stroke-linejoin="round"/>
<path d="M12.0537 5.23396L6.04369 17.087M18.7712 11.983L6.95969 18.086M15.3882 18.565L13.3317 5.43596M4.84469 9.73996L14.2277 19.153M18.5627 10.6835L5.42169 8.66946M11.0952 4.32446L5.23569 7.29646M4.68819 16.8565L3.67969 10.33M13.6082 20.3365L7.08969 19.383M19.6827 12.891L16.6732 18.77M14.4922 4.84696L19.1557 9.52546" stroke="white" stroke-width="0.5" stroke-linecap="round" stroke-linejoin="round"/>
</svg>
