<svg width="24" height="24" viewBox="0 0 24 24" fill="none" xmlns="http://www.w3.org/2000/svg">
<path d="M3.75 15.4011C4.89 14.0811 6.4265 12.7141 7.875 13.0171C9.726 13.4046 10.129 16.2481 11.33 16.1781C13.034 16.0781 13.5565 10.2806 15.4285 10.2046C16.1465 10.1756 16.394 11.0151 17.25 11.0351C18.498 11.0641 19.5515 9.31506 20.25 7.82056" stroke="white" stroke-width="0.5" stroke-linecap="round" stroke-linejoin="round"/>
<path d="M12 22.75C17.9371 22.75 22.75 17.9371 22.75 12C22.75 6.06294 17.9371 1.25 12 1.25C6.06294 1.25 1.25 6.06294 1.25 12C1.25 17.9371 6.06294 22.75 12 22.75Z" stroke="white" stroke-width="0.5" stroke-linecap="round" stroke-linejoin="round"/>
</svg>
