<svg width="24" height="25" viewBox="0 0 24 25" fill="none" xmlns="http://www.w3.org/2000/svg">
<g clip-path="url(#clip0_4924_38791)">
<path fill-rule="evenodd" clip-rule="evenodd" d="M2 6.7041C2 5.59953 2.89543 4.7041 4 4.7041L20 4.7041C21.1046 4.7041 22 5.59953 22 6.7041V18.7041C22 19.8087 21.1046 20.7041 20 20.7041H4C2.89543 20.7041 2 19.8087 2 18.7041L2 6.7041ZM20 6.7041L4 6.7041L4 18.7041H20V6.7041ZM5.16795 8.1494C5.4743 7.68987 6.09517 7.5657 6.5547 7.87205L12 11.5023L17.4453 7.87205C17.9048 7.5657 18.5257 7.68987 18.8321 8.1494C19.1384 8.60893 19.0142 9.2298 18.5547 9.53615L12.5547 13.5362C12.2188 13.7601 11.7812 13.7601 11.4453 13.5362L5.4453 9.53615C4.98577 9.2298 4.8616 8.60893 5.16795 8.1494Z" fill="#575757"/>
</g>
<defs>
<clipPath id="clip0_4924_38791">
<rect width="20" height="20" fill="white" transform="translate(2 2.7041)"/>
</clipPath>
</defs>
</svg>
