<svg width="12" height="9" viewBox="0 0 12 9" fill="none" xmlns="http://www.w3.org/2000/svg">
<path d="M6.00019 9C5.7449 8.99871 5.4931 8.94061 5.26305 8.82991C5.03301 8.71922 4.83049 8.5587 4.67019 8.36L0.460191 3.26C0.214185 2.95297 0.0593773 2.583 0.0134084 2.19227C-0.0325605 1.80153 0.0321586 1.40574 0.200191 1.05C0.336471 0.740826 0.558864 0.477413 0.84081 0.291223C1.12276 0.105032 1.45234 0.00393305 1.79019 0H10.2102C10.548 0.00393305 10.8776 0.105032 11.1596 0.291223C11.4415 0.477413 11.6639 0.740826 11.8002 1.05C11.9682 1.40574 12.0329 1.80153 11.987 2.19227C11.941 2.583 11.7862 2.95297 11.5402 3.26L7.33019 8.36C7.16989 8.5587 6.96738 8.71922 6.73733 8.82991C6.50728 8.94061 6.25548 8.99871 6.00019 9Z" fill="#B51749"/>
</svg>
