<svg width="28" height="28" viewBox="0 0 28 28" fill="none" xmlns="http://www.w3.org/2000/svg">
<g clip-path="url(#clip0_14275_178)">
<path fill-rule="evenodd" clip-rule="evenodd" d="M14 0.498535C11.4227 0.498535 9.33335 2.58787 9.33335 5.1652C9.33335 7.74253 11.4227 9.83187 14 9.83187C16.5773 9.83187 18.6667 7.74253 18.6667 5.1652C18.6667 2.58787 16.5773 0.498535 14 0.498535ZM12 5.1652C12 4.06063 12.8955 3.1652 14 3.1652C15.1046 3.1652 16 4.06063 16 5.1652C16 6.26977 15.1046 7.1652 14 7.1652C12.8955 7.1652 12 6.26977 12 5.1652Z" fill="#323232"/>
<path fill-rule="evenodd" clip-rule="evenodd" d="M22.6667 3.1652C20.8257 3.1652 19.3334 4.65759 19.3334 6.49854C19.3334 8.33948 20.8257 9.83187 22.6667 9.83187C24.5076 9.83187 26 8.33948 26 6.49854C26 4.65759 24.5076 3.1652 22.6667 3.1652ZM22 6.49854C22 6.13035 22.2985 5.83187 22.6667 5.83187C23.0349 5.83187 23.3334 6.13035 23.3334 6.49854C23.3334 6.86672 23.0349 7.1652 22.6667 7.1652C22.2985 7.1652 22 6.86672 22 6.49854Z" fill="#323232"/>
<path fill-rule="evenodd" clip-rule="evenodd" d="M8.66669 6.49854C8.66669 4.65759 7.1743 3.1652 5.33335 3.1652C3.4924 3.1652 2.00002 4.65759 2.00002 6.49854C2.00002 8.33948 3.4924 9.83187 5.33335 9.83187C7.1743 9.83187 8.66669 8.33948 8.66669 6.49854ZM5.33335 5.83187C5.70154 5.83187 6.00002 6.13035 6.00002 6.49854C6.00002 6.86672 5.70154 7.1652 5.33335 7.1652C4.96516 7.1652 4.66669 6.86672 4.66669 6.49854C4.66669 6.13035 4.96516 5.83187 5.33335 5.83187Z" fill="#323232"/>
<path fill-rule="evenodd" clip-rule="evenodd" d="M11.3334 11.1652C9.12422 11.1652 7.33335 12.9561 7.33335 15.1652V18.3412C7.33335 19.3512 7.90403 20.2746 8.80745 20.7263L10 21.3226V25.8319C10 26.5682 10.597 27.1652 11.3334 27.1652H16.6667C17.4031 27.1652 18 26.5682 18 25.8319V21.3226L19.1926 20.7263C20.096 20.2746 20.6667 19.3512 20.6667 18.3412V15.1652C20.6667 12.9561 18.8758 11.1652 16.6667 11.1652H11.3334ZM10 15.1652C10 14.4288 10.597 13.8319 11.3334 13.8319H16.6667C17.4031 13.8319 18 14.4288 18 15.1652V18.3412L16.0704 19.306C15.6187 19.5318 15.3334 19.9935 15.3334 20.4985V24.4985H12.6667V20.4985C12.6667 19.9935 12.3814 19.5318 11.9296 19.306L10 18.3412V15.1652Z" fill="#323232"/>
<path d="M22 12.4985C22 11.7622 22.597 11.1652 23.3334 11.1652H24.6667C26.1394 11.1652 27.3334 12.3591 27.3334 13.8319V18.3412C27.3334 19.3512 26.7627 20.2746 25.8593 20.7263L24.6667 21.3226V25.8319C24.6667 26.5682 24.0697 27.1652 23.3334 27.1652H20.6667C19.9303 27.1652 19.3334 26.5682 19.3334 25.8319C19.3334 25.0955 19.9303 24.4985 20.6667 24.4985H22V20.4985C22 19.9935 22.2854 19.5318 22.7371 19.306L24.6667 18.3412V13.8319H23.3334C22.597 13.8319 22 13.2349 22 12.4985Z" fill="#323232"/>
<path d="M4.66669 11.1652C5.40307 11.1652 6.00002 11.7622 6.00002 12.4985C6.00002 13.2349 5.40307 13.8319 4.66669 13.8319H3.33335V18.3412L5.26297 19.306C5.71468 19.5318 6.00002 19.9935 6.00002 20.4985V24.4985H7.33335C8.06973 24.4985 8.66669 25.0955 8.66669 25.8319C8.66669 26.5682 8.06973 27.1652 7.33335 27.1652H4.66669C3.93031 27.1652 3.33335 26.5682 3.33335 25.8319V21.3226L2.14078 20.7263C1.23736 20.2746 0.666687 19.3512 0.666687 18.3412V13.8319C0.666687 12.3591 1.86059 11.1652 3.33335 11.1652H4.66669Z" fill="#323232"/>
</g>
<defs>
<clipPath id="clip0_14275_178">
<rect width="26.6667" height="26.6667" fill="white" transform="translate(0.666687 0.498535)"/>
</clipPath>
</defs>
</svg>
