<svg width="28" height="29" viewBox="0 0 28 29" fill="none" xmlns="http://www.w3.org/2000/svg">
<g clip-path="url(#clip0_14275_972)">
<path d="M3.33337 3.00624C3.33337 1.46945 4.52728 0.223633 6.00004 0.223633H22C23.4728 0.223633 24.6667 1.46945 24.6667 3.00624V12.7454C24.6667 13.5138 24.0698 14.1367 23.3334 14.1367C22.597 14.1367 22 13.5138 22 12.7454V3.00624L6.00004 3.00624V25.2671H14C14.7364 25.2671 15.3334 25.89 15.3334 26.6584C15.3334 27.4268 14.7364 28.0497 14 28.0497H6.00004C4.52728 28.0497 3.33337 26.8039 3.33337 25.2671V3.00624Z" fill="#323232"/>
<path d="M22 16.9193C21.2637 16.9193 20.6667 17.5422 20.6667 18.3106V21.0932H18C17.2637 21.0932 16.6667 21.7161 16.6667 22.4845C16.6667 23.2529 17.2637 23.8758 18 23.8758H20.6667V26.6584C20.6667 27.4268 21.2637 28.0497 22 28.0497C22.7364 28.0497 23.3334 27.4268 23.3334 26.6584V23.8758H26C26.7364 23.8758 27.3334 23.2529 27.3334 22.4845C27.3334 21.7161 26.7364 21.0932 26 21.0932H23.3334V18.3106C23.3334 17.5422 22.7364 16.9193 22 16.9193Z" fill="#323232"/>
<path d="M10 12.7454C9.26366 12.7454 8.66671 13.3683 8.66671 14.1367C8.66671 14.9051 9.26366 15.528 10 15.528H18C18.7364 15.528 19.3334 14.9051 19.3334 14.1367C19.3334 13.3683 18.7364 12.7454 18 12.7454H10Z" fill="#323232"/>
<path d="M8.66671 19.7019C8.66671 18.9335 9.26366 18.3106 10 18.3106H14C14.7364 18.3106 15.3334 18.9335 15.3334 19.7019C15.3334 20.4703 14.7364 21.0932 14 21.0932H10C9.26366 21.0932 8.66671 20.4703 8.66671 19.7019Z" fill="#323232"/>
<path d="M10 7.18015C9.26366 7.18015 8.66671 7.80306 8.66671 8.57146C8.66671 9.33986 9.26366 9.96276 10 9.96276H18C18.7364 9.96276 19.3334 9.33986 19.3334 8.57146C19.3334 7.80306 18.7364 7.18015 18 7.18015H10Z" fill="#323232"/>
</g>
<defs>
<clipPath id="clip0_14275_972">
<rect width="26.6667" height="27.8261" fill="white" transform="translate(0.666687 0.223633)"/>
</clipPath>
</defs>
</svg>
