<svg width="28" height="28" viewBox="0 0 28 28" fill="none" xmlns="http://www.w3.org/2000/svg">
<g clip-path="url(#clip0_2536_351)">
<path fill-rule="evenodd" clip-rule="evenodd" d="M3.3335 3.33342C3.3335 1.86066 4.5274 0.666748 6.00016 0.666748H22.0002C23.4729 0.666748 24.6668 1.86065 24.6668 3.33341V24.6667C24.6668 26.1395 23.4729 27.3334 22.0002 27.3334H6.00016C4.5274 27.3334 3.3335 26.1395 3.3335 24.6667V3.33342ZM22.0002 3.33341L6.00016 3.33342V24.6667H22.0002V3.33341Z" fill="black"/>
<path fill-rule="evenodd" clip-rule="evenodd" d="M8.66683 14.0001C8.66683 13.2637 9.26378 12.6667 10.0002 12.6667H18.0002C18.7365 12.6667 19.3335 13.2637 19.3335 14.0001C19.3335 14.7365 18.7365 15.3334 18.0002 15.3334H10.0002C9.26378 15.3334 8.66683 14.7365 8.66683 14.0001Z" fill="black"/>
<path fill-rule="evenodd" clip-rule="evenodd" d="M8.66683 19.3334C8.66683 18.597 9.26378 18.0001 10.0002 18.0001H14.0002C14.7365 18.0001 15.3335 18.597 15.3335 19.3334C15.3335 20.0698 14.7365 20.6667 14.0002 20.6667H10.0002C9.26378 20.6667 8.66683 20.0698 8.66683 19.3334Z" fill="black"/>
<path fill-rule="evenodd" clip-rule="evenodd" d="M8.66683 8.66675C8.66683 7.93037 9.26378 7.33342 10.0002 7.33342H18.0002C18.7365 7.33342 19.3335 7.93037 19.3335 8.66675C19.3335 9.40313 18.7365 10.0001 18.0002 10.0001H10.0002C9.26378 10.0001 8.66683 9.40313 8.66683 8.66675Z" fill="black"/>
</g>
<defs>
<clipPath id="clip0_2536_351">
<rect width="26.6667" height="26.6667" fill="white" transform="translate(0.666748 0.666687)"/>
</clipPath>
</defs>
</svg>
