<svg width="25" height="28" viewBox="0 0 25 28" fill="none" xmlns="http://www.w3.org/2000/svg">
<path d="M0.333496 2.86952C0.333496 1.33273 1.5274 0.0869141 3.00016 0.0869141H19.0002C20.4729 0.0869141 21.6668 1.33273 21.6668 2.86952V12.6087C21.6668 13.3771 21.0699 14 20.3335 14C19.5971 14 19.0002 13.3771 19.0002 12.6087V2.86952L3.00016 2.86952V25.1304H11.0002C11.7365 25.1304 12.3335 25.7533 12.3335 26.5217C12.3335 27.2901 11.7365 27.913 11.0002 27.913H3.00016C1.5274 27.913 0.333496 26.6672 0.333496 25.1304V2.86952Z" fill="white"/>
<path d="M19.0002 16.7826C18.2638 16.7826 17.6668 17.4055 17.6668 18.1739V20.9565H15.0002C14.2638 20.9565 13.6668 21.5794 13.6668 22.3478C13.6668 23.1162 14.2638 23.7391 15.0002 23.7391H17.6668V26.5217C17.6668 27.2901 18.2638 27.913 19.0002 27.913C19.7365 27.913 20.3335 27.2901 20.3335 26.5217V23.7391H23.0002C23.7365 23.7391 24.3335 23.1162 24.3335 22.3478C24.3335 21.5794 23.7365 20.9565 23.0002 20.9565H20.3335V18.1739C20.3335 17.4055 19.7365 16.7826 19.0002 16.7826Z" fill="white"/>
<path d="M7.00016 12.6087C6.26378 12.6087 5.66683 13.2316 5.66683 14C5.66683 14.7684 6.26378 15.3913 7.00016 15.3913H15.0002C15.7365 15.3913 16.3335 14.7684 16.3335 14C16.3335 13.2316 15.7365 12.6087 15.0002 12.6087H7.00016Z" fill="white"/>
<path d="M5.66683 19.5652C5.66683 18.7968 6.26378 18.1739 7.00016 18.1739H11.0002C11.7365 18.1739 12.3335 18.7968 12.3335 19.5652C12.3335 20.3336 11.7365 20.9565 11.0002 20.9565H7.00016C6.26378 20.9565 5.66683 20.3336 5.66683 19.5652Z" fill="white"/>
<path d="M7.00016 7.04344C6.26378 7.04344 5.66683 7.66634 5.66683 8.43474C5.66683 9.20314 6.26378 9.82605 7.00016 9.82605H15.0002C15.7365 9.82605 16.3335 9.20314 16.3335 8.43474C16.3335 7.66634 15.7365 7.04344 15.0002 7.04344H7.00016Z" fill="white"/>
</svg>
