<svg width="32" height="34" viewBox="0 0 32 34" fill="none" xmlns="http://www.w3.org/2000/svg">
<g clip-path="url(#clip0_13354_7481)">
<path fill-rule="evenodd" clip-rule="evenodd" d="M13.3334 2.85352C7.44232 2.85352 2.66669 7.83678 2.66669 13.984C2.66669 20.1311 7.44232 25.1144 13.3334 25.1144C15.7983 25.1144 18.068 24.2419 19.8742 22.7768L27.0572 30.2721C27.5779 30.8154 28.4221 30.8154 28.9428 30.2721C29.4635 29.7288 29.4635 28.8478 28.9428 28.3045L21.7598 20.8092C23.1639 18.9244 24 16.5561 24 13.984C24 7.83678 19.2244 2.85352 13.3334 2.85352ZM5.33335 13.984C5.33335 9.37357 8.91508 5.63612 13.3334 5.63612C17.7516 5.63612 21.3334 9.37357 21.3334 13.984C21.3334 18.5943 17.7516 22.3318 13.3334 22.3318C8.91508 22.3318 5.33335 18.5943 5.33335 13.984Z" fill="#323232"/>
</g>
<defs>
<clipPath id="clip0_13354_7481">
<rect width="26.6667" height="27.8261" fill="white" transform="translate(2.66669 2.85352)"/>
</clipPath>
</defs>
</svg>
