<svg width="24" height="25" viewBox="0 0 24 25" fill="none" xmlns="http://www.w3.org/2000/svg">
<g clip-path="url(#clip0_4924_51047)">
<path fill-rule="evenodd" clip-rule="evenodd" d="M10.9891 5.18881C10.9845 5.19519 10.979 5.20318 10.9729 5.21303C10.9142 5.30758 10.8554 5.47477 10.828 5.68237C10.7047 6.61551 10.1632 7.4873 9.28199 7.99607C8.40101 8.50471 7.37557 8.5379 6.50595 8.17841C6.31268 8.09851 6.1387 8.06585 6.02744 8.06938C6.01549 8.06976 6.00559 8.07051 5.99758 8.07139C5.58599 8.60378 5.24392 9.19198 4.98463 9.82238C4.98781 9.82955 4.99198 9.83817 4.9974 9.84828C5.0499 9.94612 5.16518 10.0803 5.33115 10.2076C6.07852 10.7809 6.56343 11.6863 6.56343 12.7046C6.56343 13.7228 6.07852 14.6282 5.33115 15.2015C5.16518 15.3288 5.0499 15.463 4.9974 15.5609C4.99198 15.571 4.98781 15.5796 4.98463 15.5868C5.24392 16.2172 5.58599 16.8054 5.99758 17.3378C6.00559 17.3386 6.01548 17.3394 6.02744 17.3398C6.13869 17.3433 6.31268 17.3106 6.50595 17.2307C7.37556 16.8712 8.40101 16.9044 9.28199 17.4131C10.1632 17.9218 10.7047 18.7936 10.828 19.7268C10.8554 19.9344 10.9142 20.1016 10.9729 20.1961C10.979 20.206 10.9845 20.214 10.9891 20.2203C11.3195 20.2643 11.6571 20.2871 12.0004 20.2871C12.3438 20.2871 12.6814 20.2643 13.0117 20.2203C13.0164 20.214 13.0218 20.206 13.028 20.1961C13.0866 20.1016 13.1454 19.9344 13.1728 19.7268C13.2961 18.7936 13.8377 17.9218 14.7189 17.4131C15.5999 16.9044 16.6253 16.8712 17.4949 17.2307C17.6882 17.3106 17.8622 17.3433 17.9734 17.3398C17.9854 17.3394 17.9953 17.3386 18.0033 17.3378C18.4149 16.8054 18.7569 16.2172 19.0162 15.5868C19.013 15.5797 19.0089 15.5711 19.0034 15.5609C18.9509 15.4631 18.8356 15.3289 18.6697 15.2016C17.9223 14.6283 17.4373 13.7229 17.4373 12.7046C17.4373 11.6863 17.9223 10.7809 18.6697 10.2076C18.8356 10.0803 18.9509 9.94606 19.0034 9.84821C19.0089 9.8381 19.013 9.82947 19.0162 9.82231C18.7569 9.19193 18.4149 8.60375 18.0033 8.07139C17.9953 8.07051 17.9854 8.06975 17.9734 8.06938C17.8622 8.06585 17.6882 8.09851 17.4949 8.17841C16.6253 8.5379 15.5999 8.50471 14.7189 7.99607C13.8377 7.4873 13.2961 6.61551 13.1728 5.68237C13.1454 5.47477 13.0866 5.30758 13.028 5.21303C13.0218 5.20317 13.0164 5.19519 13.0117 5.18881C12.6813 5.14483 12.3438 5.12207 12.0004 5.12207C11.6571 5.12207 11.3195 5.14483 10.9891 5.18881ZM10.6597 3.21524C11.0983 3.15378 11.546 3.12207 12.0004 3.12207C12.4549 3.12207 12.9025 3.15378 13.3411 3.21524C14.0189 3.31022 14.4667 3.73857 14.7273 4.15833C14.9805 4.56632 15.1041 5.0302 15.1556 5.42041C15.201 5.76399 15.3986 6.07913 15.7189 6.26402C16.039 6.44887 16.4107 6.46248 16.7308 6.33012C17.0943 6.17986 17.5573 6.05518 18.0368 6.07038C18.53 6.08601 19.124 6.25902 19.5455 6.79669C20.0964 7.49929 20.5515 8.28126 20.8909 9.12296C21.1467 9.75729 20.9992 10.3588 20.7658 10.7938C20.5389 11.2167 20.199 11.5552 19.8869 11.7945C19.6117 12.0056 19.4373 12.3345 19.4373 12.7046C19.4373 13.0746 19.6117 13.4036 19.8869 13.6146C20.199 13.854 20.5389 14.1925 20.7658 14.6153C20.9992 15.0504 21.1467 15.6519 20.8909 16.2862C20.5515 17.1279 20.0964 17.9099 19.5455 18.6125C19.124 19.1501 18.53 19.3231 18.0368 19.3388C17.5573 19.354 17.0943 19.2293 16.7308 19.079C16.4107 18.9467 16.039 18.9603 15.7189 19.1451C15.3986 19.33 15.201 19.6452 15.1556 19.9887C15.1041 20.379 14.9805 20.8428 14.7273 21.2508C14.4667 21.6706 14.0189 22.0989 13.3411 22.1939C12.9025 22.2554 12.4549 22.2871 12.0004 22.2871C11.546 22.2871 11.0983 22.2554 10.6597 22.1939C9.98195 22.0989 9.53414 21.6706 9.27361 21.2508C9.02038 20.8428 8.8968 20.3789 8.84525 19.9887C8.79986 19.6452 8.60225 19.33 8.28199 19.1451C7.96183 18.9603 7.59022 18.9467 7.27003 19.079C6.90657 19.2293 6.44356 19.354 5.96408 19.3388C5.47087 19.3231 4.87686 19.1501 4.45533 18.6125C3.90448 17.9098 3.44933 17.1278 3.10995 16.2861C2.85421 15.6518 3.00162 15.0504 3.23505 14.6153C3.46192 14.1925 3.80184 13.854 4.11389 13.6146C4.38907 13.4035 4.56343 13.0746 4.56343 12.7046C4.56343 12.3345 4.38907 12.0056 4.11389 11.7945C3.80184 11.5552 3.46192 11.2167 3.23505 10.7939C3.00162 10.3588 2.85421 9.75736 3.10995 9.12305C3.44934 8.28131 3.90448 7.49932 4.45534 6.79669C4.87687 6.25903 5.47087 6.08601 5.96409 6.07038C6.44357 6.05519 6.90658 6.17986 7.27003 6.33012C7.59022 6.46248 7.96183 6.44887 8.28199 6.26402C8.60224 6.07913 8.79985 5.76399 8.84525 5.42041C8.8968 5.0302 9.02039 4.56632 9.27361 4.15833C9.53414 3.73857 9.98196 3.31022 10.6597 3.21524ZM12.0004 11.559C11.3677 11.559 10.8548 12.0719 10.8548 12.7046C10.8548 13.3373 11.3677 13.8502 12.0004 13.8502C12.6332 13.8502 13.1461 13.3373 13.1461 12.7046C13.1461 12.0719 12.6332 11.559 12.0004 11.559ZM8.85481 12.7046C8.85481 10.9673 10.2632 9.55895 12.0004 9.55895C13.7377 9.55895 15.1461 10.9673 15.1461 12.7046C15.1461 14.4419 13.7377 15.8502 12.0004 15.8502C10.2632 15.8502 8.85481 14.4419 8.85481 12.7046Z" fill="#575757"/>
</g>
<defs>
<clipPath id="clip0_4924_51047">
<rect width="20" height="20" fill="white" transform="translate(2 2.7041)"/>
</clipPath>
</defs>
</svg>
