<svg width="28" height="28" viewBox="0 0 28 28" fill="none" xmlns="http://www.w3.org/2000/svg">
<path fill-rule="evenodd" clip-rule="evenodd" d="M14.0001 0.0869904C6.63629 0.0869904 0.666748 6.31607 0.666748 14C0.666748 21.684 6.63629 27.9131 14.0001 27.9131C21.3639 27.9131 27.3334 21.684 27.3334 14C27.3334 6.31607 21.3639 0.0869904 14.0001 0.0869904ZM3.48101 12.1443C3.38394 12.7478 3.33341 13.3677 3.33341 14C3.33341 20.1472 8.10904 25.1305 14.0001 25.1305C19.4157 25.1305 23.8887 20.919 24.5754 15.4635L22.6095 14.8774C22.2238 14.7624 21.9082 14.4723 21.7502 14.0877L20.6167 11.3277C20.2932 10.5402 20.7222 9.63766 21.5188 9.42985L23.4912 8.91532C21.7695 5.42316 18.3297 3.0044 14.3372 2.87505L14.6394 3.29552C15.0376 3.84943 14.9848 4.62452 14.5156 5.11411L13.1784 6.50944C12.5755 7.13852 12.6902 8.18929 13.4132 8.66081C14.5427 9.39747 14.0425 11.2174 12.7105 11.2174H10.508C9.88444 11.2174 9.60217 12.0309 10.0812 12.4475L12.2958 14.3732C12.5354 14.5815 12.8374 14.6956 13.1493 14.6956H16.5333C17.7115 14.6956 18.6666 15.6923 18.6666 16.9217V17.423C18.6666 18.9903 17.449 20.2609 15.947 20.2609C15.5763 20.2609 15.243 20.4964 15.1053 20.8555L14.2998 22.9569C14.1187 23.4293 13.6802 23.7391 13.1925 23.7391C12.5339 23.7391 11.9999 23.182 11.9999 22.4947V21.7011C11.9999 21.2359 11.7771 20.8015 11.4062 20.5435L10.5937 19.9782C10.2227 19.7202 9.99994 19.2858 9.99994 18.8206V15.9239C9.99994 15.2222 9.49923 14.6303 8.83199 14.5433L5.87765 14.158C5.10865 14.0576 4.4195 13.6132 3.98961 12.9403L3.48101 12.1443Z" fill="white"/>
</svg>
