<svg width="26" height="26" viewBox="0 0 26 26" fill="none" xmlns="http://www.w3.org/2000/svg">
<path fill-rule="evenodd" clip-rule="evenodd" d="M8.27603 13.6096L13.6094 8.27621C14.1301 7.75551 14.1301 6.91129 13.6094 6.39059L8.27603 1.05721C7.75533 0.536512 6.91111 0.536512 6.39041 1.05721L1.05703 6.39059C0.536329 6.91129 0.536329 7.75551 1.05703 8.27621L6.39041 13.6096C6.91111 14.1303 7.75533 14.1303 8.27603 13.6096ZM7.33322 10.7812L3.88546 7.3334L7.33322 3.88564L10.781 7.3334L7.33322 10.7812Z" fill="black"/>
<path fill-rule="evenodd" clip-rule="evenodd" d="M24.6666 1.99999C25.4029 1.99999 25.9999 2.59695 25.9999 3.33333V11.3333C25.9999 12.0697 25.4029 12.6667 24.6666 12.6667H16.6666C15.9302 12.6667 15.3332 12.0697 15.3332 11.3333V3.33333C15.3332 2.59695 15.9302 1.99999 16.6666 1.99999H24.6666ZM23.3332 9.99999V4.66666H17.9999V9.99999H23.3332Z" fill="black"/>
<path fill-rule="evenodd" clip-rule="evenodd" d="M24.6666 15.3333C25.4029 15.3333 25.9999 15.9303 25.9999 16.6667V24.6667C25.9999 25.403 25.4029 26 24.6666 26H16.6666C15.9302 26 15.3332 25.403 15.3332 24.6667V16.6667C15.3332 15.9303 15.9302 15.3333 16.6666 15.3333H24.6666ZM23.3332 23.3333V18H17.9999V23.3333H23.3332Z" fill="black"/>
<path fill-rule="evenodd" clip-rule="evenodd" d="M11.3332 15.3333C12.0696 15.3333 12.6666 15.9303 12.6666 16.6667V24.6667C12.6666 25.403 12.0696 26 11.3332 26H3.33322C2.59684 26 1.99989 25.403 1.99989 24.6667V16.6667C1.99989 15.9303 2.59684 15.3333 3.33322 15.3333H11.3332ZM9.99989 23.3333V18H4.66655V23.3333H9.99989Z" fill="black"/>
</svg>
