<svg width="24" height="25" viewBox="0 0 24 25" fill="none" xmlns="http://www.w3.org/2000/svg">
<path fill-rule="evenodd" clip-rule="evenodd" d="M3 4.7041C3 4.15182 3.44772 3.7041 4 3.7041H10C10.5523 3.7041 11 4.15182 11 4.7041V10.7041C11 11.2564 10.5523 11.7041 10 11.7041H4C3.44772 11.7041 3 11.2564 3 10.7041V4.7041ZM5 5.7041V9.7041H9V5.7041H5Z" fill="#575757"/>
<path fill-rule="evenodd" clip-rule="evenodd" d="M3 14.7041C3 14.1518 3.44772 13.7041 4 13.7041H10C10.5523 13.7041 11 14.1518 11 14.7041V20.7041C11 21.2564 10.5523 21.7041 10 21.7041H4C3.44772 21.7041 3 21.2564 3 20.7041V14.7041ZM5 15.7041V19.7041H9V15.7041H5Z" fill="#575757"/>
<path fill-rule="evenodd" clip-rule="evenodd" d="M14 11.7041C13.4477 11.7041 13 11.2564 13 10.7041V4.7041C13 4.15182 13.4477 3.7041 14 3.7041L20 3.7041C20.5523 3.7041 21 4.15182 21 4.7041V10.7041C21 11.2564 20.5523 11.7041 20 11.7041L14 11.7041ZM15 9.7041L19 9.7041V5.7041L15 5.7041V9.7041Z" fill="#575757"/>
<path fill-rule="evenodd" clip-rule="evenodd" d="M13 14.7041C13 14.1518 13.4477 13.7041 14 13.7041H20C20.5523 13.7041 21 14.1518 21 14.7041V20.7041C21 21.2564 20.5523 21.7041 20 21.7041H14C13.4477 21.7041 13 21.2564 13 20.7041V14.7041ZM15 15.7041V19.7041H19V15.7041H15Z" fill="#575757"/>
</svg>
