<svg width="24" height="25" viewBox="0 0 24 25" fill="none" xmlns="http://www.w3.org/2000/svg">
<path fill-rule="evenodd" clip-rule="evenodd" d="M4 3.7041C3.44772 3.7041 3 4.15182 3 4.7041V7.7041C3 8.25639 3.44772 8.7041 4 8.7041H7C7.55228 8.7041 8 8.25639 8 7.7041V4.7041C8 4.15182 7.55228 3.7041 7 3.7041H4ZM5 6.7041V5.7041H6V6.7041H5Z" fill="#575757"/>
<path fill-rule="evenodd" clip-rule="evenodd" d="M4 10.2041C3.44772 10.2041 3 10.6518 3 11.2041V14.2041C3 14.7564 3.44772 15.2041 4 15.2041H7C7.55228 15.2041 8 14.7564 8 14.2041V11.2041C8 10.6518 7.55228 10.2041 7 10.2041H4ZM5 13.2041V12.2041H6V13.2041H5Z" fill="#575757"/>
<path fill-rule="evenodd" clip-rule="evenodd" d="M3 17.7041C3 17.1518 3.44772 16.7041 4 16.7041H7C7.55228 16.7041 8 17.1518 8 17.7041V20.7041C8 21.2564 7.55228 21.7041 7 21.7041H4C3.44772 21.7041 3 21.2564 3 20.7041V17.7041ZM5 18.7041V19.7041H6V18.7041H5Z" fill="#575757"/>
<path fill-rule="evenodd" clip-rule="evenodd" d="M10.5 3.7041C9.94772 3.7041 9.5 4.15182 9.5 4.7041V7.7041C9.5 8.25639 9.94772 8.7041 10.5 8.7041H13.5C14.0523 8.7041 14.5 8.25639 14.5 7.7041V4.7041C14.5 4.15182 14.0523 3.7041 13.5 3.7041H10.5ZM11.5 6.7041V5.7041H12.5V6.7041H11.5Z" fill="#575757"/>
<path fill-rule="evenodd" clip-rule="evenodd" d="M9.5 11.2041C9.5 10.6518 9.94772 10.2041 10.5 10.2041H13.5C14.0523 10.2041 14.5 10.6518 14.5 11.2041V14.2041C14.5 14.7564 14.0523 15.2041 13.5 15.2041H10.5C9.94772 15.2041 9.5 14.7564 9.5 14.2041V11.2041ZM11.5 12.2041V13.2041H12.5V12.2041H11.5Z" fill="#575757"/>
<path fill-rule="evenodd" clip-rule="evenodd" d="M17 3.7041C16.4477 3.7041 16 4.15182 16 4.7041V7.7041C16 8.25639 16.4477 8.7041 17 8.7041H20C20.5523 8.7041 21 8.25639 21 7.7041V4.7041C21 4.15182 20.5523 3.7041 20 3.7041H17ZM18 6.7041V5.7041H19V6.7041H18Z" fill="#575757"/>
<path d="M12 16.7041C12.4142 16.7041 12.75 17.0399 12.75 17.4541V18.4541H13.75C14.1642 18.4541 14.5 18.7899 14.5 19.2041C14.5 19.6183 14.1642 19.9541 13.75 19.9541H12.75V20.9541C12.75 21.3683 12.4142 21.7041 12 21.7041C11.5858 21.7041 11.25 21.3683 11.25 20.9541V19.9541H10.25C9.83579 19.9541 9.5 19.6183 9.5 19.2041C9.5 18.7899 9.83579 18.4541 10.25 18.4541H11.25V17.4541C11.25 17.0399 11.5858 16.7041 12 16.7041Z" fill="#575757"/>
<path d="M18.5 16.7041C18.9142 16.7041 19.25 17.0399 19.25 17.4541V18.4541H20.25C20.6642 18.4541 21 18.7899 21 19.2041C21 19.6183 20.6642 19.9541 20.25 19.9541H19.25V20.9541C19.25 21.3683 18.9142 21.7041 18.5 21.7041C18.0858 21.7041 17.75 21.3683 17.75 20.9541V19.9541H16.75C16.3358 19.9541 16 19.6183 16 19.2041C16 18.7899 16.3358 18.4541 16.75 18.4541H17.75V17.4541C17.75 17.0399 18.0858 16.7041 18.5 16.7041Z" fill="#575757"/>
<path d="M18.5 10.2041C18.9142 10.2041 19.25 10.5399 19.25 10.9541V11.9541H20.25C20.6642 11.9541 21 12.2899 21 12.7041C21 13.1183 20.6642 13.4541 20.25 13.4541H19.25V14.4541C19.25 14.8683 18.9142 15.2041 18.5 15.2041C18.0858 15.2041 17.75 14.8683 17.75 14.4541V13.4541H16.75C16.3358 13.4541 16 13.1183 16 12.7041C16 12.2899 16.3358 11.9541 16.75 11.9541H17.75V10.9541C17.75 10.5399 18.0858 10.2041 18.5 10.2041Z" fill="#575757"/>
</svg>
