<svg width="42" height="42" viewBox="0 0 42 42" fill="none" xmlns="http://www.w3.org/2000/svg">
<g clip-path="url(#clip0_3728_109411)">
<path fill-rule="evenodd" clip-rule="evenodd" d="M28.5126 20.4876L21.5125 13.4876C20.8291 12.8041 20.8291 11.6961 21.5125 11.0127L28.5126 4.01262C29.196 3.32921 30.304 3.32921 30.9874 4.01262L37.9875 11.0127C38.6709 11.6961 38.6709 12.8041 37.9875 13.4876L30.9874 20.4876C30.304 21.171 29.196 21.171 28.5126 20.4876ZM29.75 16.7753L34.2752 12.2501L29.75 7.72493L25.2248 12.2501L29.75 16.7753Z" fill="white"/>
<path fill-rule="evenodd" clip-rule="evenodd" d="M7 5.25002C6.0335 5.25002 5.25 6.03352 5.25 7.00002V17.5C5.25 18.4665 6.0335 19.25 7 19.25H17.5C18.4665 19.25 19.25 18.4665 19.25 17.5V7.00002C19.25 6.03352 18.4665 5.25002 17.5 5.25002H7ZM8.75 15.75V8.75002H15.75V15.75H8.75Z" fill="white"/>
<path fill-rule="evenodd" clip-rule="evenodd" d="M7 22.75C6.0335 22.75 5.25 23.5335 5.25 24.5V35C5.25 35.9665 6.0335 36.75 7 36.75H17.5C18.4665 36.75 19.25 35.9665 19.25 35V24.5C19.25 23.5335 18.4665 22.75 17.5 22.75H7ZM8.75 33.25V26.25H15.75V33.25H8.75Z" fill="white"/>
<path fill-rule="evenodd" clip-rule="evenodd" d="M24.5 22.75C23.5335 22.75 22.75 23.5335 22.75 24.5V35C22.75 35.9665 23.5335 36.75 24.5 36.75H35C35.9665 36.75 36.75 35.9665 36.75 35V24.5C36.75 23.5335 35.9665 22.75 35 22.75H24.5ZM26.25 33.25V26.25H33.25V33.25H26.25Z" fill="white"/>
</g>
<defs>
<clipPath id="clip0_3728_109411">
<rect width="35" height="35" fill="white" transform="translate(3.5 3.5)"/>
</clipPath>
</defs>
</svg>
