<svg width="21" height="20" viewBox="0 0 21 20" fill="none" xmlns="http://www.w3.org/2000/svg">
<path d="M10.5 11C9.94771 11 9.5 10.5523 9.5 10V6C9.5 5.44772 9.94772 5 10.5 5C11.0523 5 11.5 5.44772 11.5 6V10C11.5 10.5523 11.0523 11 10.5 11Z" fill="#FC5555"/>
<path d="M10.5 12.5C9.80964 12.5 9.25 13.0596 9.25 13.75C9.25 14.4404 9.80964 15 10.5 15C11.1904 15 11.75 14.4404 11.75 13.75C11.75 13.0596 11.1904 12.5 10.5 12.5Z" fill="#FC5555"/>
<path fill-rule="evenodd" clip-rule="evenodd" d="M0.5 10C0.5 4.47715 4.97715 0 10.5 0C16.0228 0 20.5 4.47715 20.5 10C20.5 15.5228 16.0228 20 10.5 20C4.97715 20 0.5 15.5228 0.5 10ZM10.5 2C6.08172 2 2.5 5.58172 2.5 10C2.5 14.4183 6.08172 18 10.5 18C14.9183 18 18.5 14.4183 18.5 10C18.5 5.58172 14.9183 2 10.5 2Z" fill="#FC5555"/>
</svg>
