<svg width="24" height="25" viewBox="0 0 24 25" fill="none" xmlns="http://www.w3.org/2000/svg">
<g clip-path="url(#clip0_4924_73737)">
<path fill-rule="evenodd" clip-rule="evenodd" d="M12 2.7041C6.47715 2.7041 2 7.18125 2 12.7041C2 18.2269 6.47715 22.7041 12 22.7041C17.5228 22.7041 22 18.2269 22 12.7041C22 7.18125 17.5228 2.7041 12 2.7041ZM4 12.7041C4 10.8554 4.62708 9.15314 5.68014 7.79846L7.8284 9.94671C7.30488 10.7371 7 11.685 7 12.7041C7 13.7232 7.30488 14.6711 7.8284 15.4615L5.68014 17.6097C4.62708 16.2551 4 14.5528 4 12.7041ZM7.09436 19.024C8.44904 20.077 10.1513 20.7041 12 20.7041C13.8487 20.7041 15.551 20.077 16.9056 19.024L14.7574 16.8757C13.967 17.3992 13.0191 17.7041 12 17.7041C10.9809 17.7041 10.033 17.3992 9.24261 16.8757L7.09436 19.024ZM9.24261 8.5325L7.09436 6.38424C8.44904 5.33118 10.1513 4.7041 12 4.7041C13.8487 4.7041 15.551 5.33118 16.9056 6.38424L14.7574 8.5325C13.967 8.00898 13.0191 7.7041 12 7.7041C10.9809 7.7041 10.033 8.00898 9.24261 8.5325ZM16.1716 9.94671C16.6951 10.7371 17 11.685 17 12.7041C17 13.7232 16.6951 14.6711 16.1716 15.4615L18.3199 17.6097C19.3729 16.2551 20 14.5528 20 12.7041C20 10.8554 19.3729 9.15314 18.3199 7.79846L16.1716 9.94671ZM9 12.7041C9 11.0472 10.3431 9.7041 12 9.7041C13.6569 9.7041 15 11.0472 15 12.7041C15 14.361 13.6569 15.7041 12 15.7041C10.3431 15.7041 9 14.361 9 12.7041Z" fill="#575757"/>
</g>
<defs>
<clipPath id="clip0_4924_73737">
<rect width="20" height="20" fill="white" transform="translate(2 2.7041)"/>
</clipPath>
</defs>
</svg>
