<svg width="28" height="28" viewBox="0 0 24 22" fill="none" xmlns="http://www.w3.org/2000/svg">
<path d="M0 1.36233C0 0.625945 0.596954 0.0289917 1.33333 0.0289917H22.6667C23.403 0.0289917 24 0.625945 24 1.36233C24 2.0987 23.403 2.69566 22.6667 2.69566H1.33333C0.596954 2.69566 0 2.0987 0 1.36233Z" fill="white"/>
<path d="M0 7.58889C0 6.85251 0.596954 6.25556 1.33333 6.25556H22.6667C23.403 6.25556 24 6.85251 24 7.58889C24 8.32527 23.403 8.92222 22.6667 8.92222H1.33333C0.596954 8.92222 0 8.32527 0 7.58889Z" fill="white"/>
<path d="M1.33333 12.4691C0.596954 12.4691 0 13.0661 0 13.8024C0 14.5388 0.596954 15.1358 1.33333 15.1358H9.33333C10.0697 15.1358 10.6667 14.5388 10.6667 13.8024C10.6667 13.0661 10.0697 12.4691 9.33333 12.4691H1.33333Z" fill="white"/>
<path d="M0 20.029C0 19.2926 0.596954 18.6957 1.33333 18.6957H9.33333C10.0697 18.6957 10.6667 19.2926 10.6667 20.029C10.6667 20.7654 10.0697 21.3623 9.33333 21.3623H1.33333C0.596954 21.3623 0 20.7654 0 20.029Z" fill="white"/>
<path d="M23.6095 14.9718C24.1302 14.4511 24.1302 13.6069 23.6095 13.0862C23.0888 12.5655 22.2446 12.5655 21.7239 13.0862L16.6667 18.1434L14.2761 15.7529C13.7554 15.2322 12.9112 15.2322 12.3905 15.7529C11.8698 16.2736 11.8698 17.1178 12.3905 17.6385L15.7239 20.9718C16.2446 21.4925 17.0888 21.4925 17.6095 20.9718L23.6095 14.9718Z" fill="white"/>
</svg>
