<svg width="17" height="21" viewBox="0 0 17 21" fill="none" xmlns="http://www.w3.org/2000/svg">
<path fill-rule="evenodd" clip-rule="evenodd" d="M8.5 5.09082C6.84315 5.09082 5.5 6.43397 5.5 8.09082C5.5 9.74767 6.84315 11.0908 8.5 11.0908C10.1569 11.0908 11.5 9.74767 11.5 8.09082C11.5 6.43397 10.1569 5.09082 8.5 5.09082ZM7.5 8.09082C7.5 7.53854 7.94772 7.09082 8.5 7.09082C9.05228 7.09082 9.5 7.53854 9.5 8.09082C9.5 8.6431 9.05228 9.09082 8.5 9.09082C7.94772 9.09082 7.5 8.6431 7.5 8.09082Z" fill="#7D7D7D"/>
<path fill-rule="evenodd" clip-rule="evenodd" d="M13.7263 2.07135C10.7238 -0.569357 6.2762 -0.569357 3.2737 2.07135C-0.0901189 5.02985 -0.442362 10.2119 2.48017 13.6154L7.74131 19.7423C7.93129 19.9635 8.20837 20.0908 8.49998 20.0908C8.7916 20.0908 9.06868 19.9635 9.25866 19.7423L14.5198 13.6154C17.4423 10.2119 17.0901 5.02985 13.7263 2.07135ZM4.59454 3.57315C6.84176 1.59671 10.1582 1.59671 12.4054 3.57315C14.9426 5.80456 15.2151 9.73569 13.0024 12.3124L8.49998 17.5558L3.99752 12.3124C1.78489 9.73569 2.05741 5.80456 4.59454 3.57315Z" fill="#7D7D7D"/>
</svg>
