<svg width="24" height="25" viewBox="0 0 24 25" fill="none" xmlns="http://www.w3.org/2000/svg">
<g clip-path="url(#clip0_2368_107382)">
<path fill-rule="evenodd" clip-rule="evenodd" d="M12 7.7041C10.3431 7.7041 9 9.04725 9 10.7041C9 12.361 10.3431 13.7041 12 13.7041C13.6569 13.7041 15 12.361 15 10.7041C15 9.04725 13.6569 7.7041 12 7.7041ZM11 10.7041C11 10.1518 11.4477 9.7041 12 9.7041C12.5523 9.7041 13 10.1518 13 10.7041C13 11.2564 12.5523 11.7041 12 11.7041C11.4477 11.7041 11 11.2564 11 10.7041Z" fill="#B51749"/>
<path fill-rule="evenodd" clip-rule="evenodd" d="M17.2263 4.68463C14.2238 2.04392 9.7762 2.04392 6.7737 4.68463C3.40988 7.64313 3.05764 12.8252 5.98017 16.2287L11.2413 22.3556C11.4313 22.5768 11.7084 22.7041 12 22.7041C12.2916 22.7041 12.5687 22.5768 12.7587 22.3556L18.0198 16.2287C20.9423 12.8252 20.5901 7.64313 17.2263 4.68463ZM8.09454 6.18643C10.3418 4.20999 13.6582 4.20999 15.9054 6.18643C18.4426 8.41784 18.7151 12.349 16.5024 14.9257L12 20.1691L7.49752 14.9257C5.28489 12.349 5.55741 8.41784 8.09454 6.18643Z" fill="#B51749"/>
</g>
<defs>
<clipPath id="clip0_2368_107382">
<rect width="20" height="20" fill="white" transform="translate(2 2.7041)"/>
</clipPath>
</defs>
</svg>
