<svg width="25" height="24" viewBox="0 0 25 24" fill="none" xmlns="http://www.w3.org/2000/svg">
<g clip-path="url(#clip0_3522_59090)">
<path d="M18.875 0H6.125C3.0184 0 0.5 2.5184 0.5 5.625V18.375C0.5 21.4816 3.0184 24 6.125 24H18.875C21.9816 24 24.5 21.4816 24.5 18.375V5.625C24.5 2.5184 21.9816 0 18.875 0Z" fill="white"/>
<path d="M18.875 0H6.125C3.0184 0 0.5 2.5184 0.5 5.625V18.375C0.5 21.4816 3.0184 24 6.125 24H18.875C21.9816 24 24.5 21.4816 24.5 18.375V5.625C24.5 2.5184 21.9816 0 18.875 0Z" fill="#1D9BF0"/>
<path d="M19.2099 8.56978C19.2202 8.71856 19.2202 8.86734 19.2202 9.01753C19.2202 13.5922 15.7376 18.8683 9.36941 18.8683V18.8655C7.48814 18.8682 5.64585 18.3294 4.0625 17.3135C4.33606 17.3464 4.61094 17.3628 4.88656 17.3634C6.44578 17.3647 7.96014 16.8417 9.18631 15.8785C8.46387 15.8649 7.76376 15.6258 7.18385 15.1947C6.60394 14.7637 6.17323 14.1622 5.95194 13.4743C6.47063 13.5743 7.00537 13.5539 7.51494 13.4147C5.89981 13.0883 4.73778 11.6692 4.73778 10.0211V9.97725C5.21927 10.2454 5.75814 10.394 6.30903 10.4106C4.78784 9.39384 4.31891 7.37006 5.23747 5.78775C6.10665 6.85734 7.19112 7.73212 8.42042 8.35528C9.64972 8.97843 10.9964 9.33602 12.3729 9.40481C12.2356 8.81403 12.2559 8.19758 12.4317 7.61709C12.6074 7.03661 12.9325 6.51245 13.3744 6.09703C14.7688 4.78621 16.9619 4.85343 18.2728 6.24712C19.0481 6.09405 19.7916 5.80981 20.4713 5.40665C20.2128 6.20827 19.672 6.88872 18.9493 7.3214C19.6357 7.24054 20.3059 7.05683 20.9375 6.77643C20.4729 7.47224 19.8878 8.07948 19.2099 8.56978Z" fill="white"/>
</g>
<defs>
<clipPath id="clip0_3522_59090">
<rect width="24" height="24" fill="white" transform="translate(0.5)"/>
</clipPath>
</defs>
</svg>
