<svg width="24" height="24" viewBox="0 0 24 24" fill="none" xmlns="http://www.w3.org/2000/svg">
<g clip-path="url(#clip0_3522_59124)">
<path d="M0.514507 11.8563C0.513944 13.8728 1.04481 15.8417 2.05424 17.5771L0.417969 23.5066L6.53192 21.9156C8.22295 22.8292 10.1176 23.308 12.043 23.3081H12.0481C18.4041 23.3081 23.5781 18.1748 23.5808 11.8653C23.582 8.80792 22.3835 5.93295 20.2058 3.76997C18.0286 1.60718 15.1329 0.415458 12.0476 0.414062C5.69082 0.414062 0.517225 5.54709 0.5146 11.8563" fill="url(#paint0_linear_3522_59124)"/>
<path d="M0.103217 11.8527C0.102561 13.9417 0.652452 15.981 1.69787 17.7786L0.00292969 23.9207L6.3361 22.2726C8.0811 23.2168 10.0458 23.7147 12.045 23.7154H12.0501C18.6342 23.7154 23.994 18.3975 23.9968 11.8621C23.998 8.69488 22.7563 5.71656 20.5009 3.47609C18.2451 1.23591 15.2459 0.00130233 12.0501 0C5.46492 0 0.105841 5.31721 0.103217 11.8527ZM3.87476 17.469L3.63829 17.0965C2.64423 15.5277 2.11955 13.7149 2.1203 11.8534C2.12245 6.4213 6.5767 2.00186 12.0539 2.00186C14.7063 2.00298 17.1991 3.02921 19.074 4.89116C20.9488 6.7533 21.9804 9.22865 21.9798 11.8614C21.9773 17.2935 17.523 21.7135 12.0501 21.7135H12.0462C10.2642 21.7126 8.51646 21.2376 6.99228 20.34L6.62956 20.1265L2.87133 21.1045L3.87476 17.4689V17.469Z" fill="url(#paint1_linear_3522_59124)"/>
<path d="M10.6646 6.91919C10.441 6.42589 10.2056 6.41593 9.99297 6.40728C9.81882 6.39984 9.61975 6.4004 9.42086 6.4004C9.22179 6.4004 8.89834 6.47473 8.62494 6.771C8.35126 7.06756 7.58008 7.78421 7.58008 9.2418C7.58008 10.6995 8.64978 12.1081 8.79889 12.306C8.9482 12.5035 10.864 15.5904 13.8981 16.7779C16.4197 17.7648 16.9328 17.5685 17.4801 17.519C18.0275 17.4697 19.2463 16.8025 19.4949 16.1107C19.7438 15.419 19.7438 14.8261 19.6692 14.7022C19.5946 14.5787 19.3955 14.5046 19.097 14.3565C18.7984 14.2083 17.3308 13.4916 17.0572 13.3927C16.7835 13.2939 16.5845 13.2446 16.3855 13.5412C16.1864 13.8374 15.6148 14.5046 15.4405 14.7022C15.2665 14.9002 15.0922 14.9249 14.7938 14.7767C14.4951 14.628 13.5338 14.3156 12.3932 13.3064C11.5058 12.5211 10.9067 11.5513 10.7326 11.2546C10.5584 10.9584 10.7139 10.7979 10.8636 10.6503C10.9977 10.5175 11.1622 10.3043 11.3116 10.1314C11.4604 9.95835 11.5101 9.83491 11.6096 9.63733C11.7093 9.43956 11.6594 9.26654 11.5849 9.11835C11.5101 8.97017 10.93 7.50496 10.6646 6.91919Z" fill="white"/>
</g>
<defs>
<linearGradient id="paint0_linear_3522_59124" x1="1158.56" y1="2309.67" x2="1158.56" y2="0.414062" gradientUnits="userSpaceOnUse">
<stop stop-color="#1FAF38"/>
<stop offset="1" stop-color="#60D669"/>
</linearGradient>
<linearGradient id="paint1_linear_3522_59124" x1="1199.7" y1="2392.07" x2="1199.7" y2="0" gradientUnits="userSpaceOnUse">
<stop stop-color="#F9F9F9"/>
<stop offset="1" stop-color="white"/>
</linearGradient>
<clipPath id="clip0_3522_59124">
<rect width="24" height="24" fill="white"/>
</clipPath>
</defs>
</svg>
