<svg width="36" height="36" viewBox="0 0 36 36" fill="none" xmlns="http://www.w3.org/2000/svg">
<path d="M4.73926 5.12109H9.06953V9.45137H4.73926V5.12109Z" fill="#323232"/>
<path d="M13.4 0.789062V13.7799H0.40918V0.789062H13.4ZM11.2349 2.9542H2.57432V11.6147H11.2349V2.9542ZM9.06973 26.7707H4.73945V31.101H9.06973V26.7707Z" fill="#323232"/>
<path d="M13.4 22.4422V35.433H0.40918V22.4422H13.4ZM2.57432 24.6073V33.2679H11.2349V24.6073H2.57432ZM26.3908 5.12109H30.7211V9.45137H26.3908V5.12109Z" fill="#323232"/>
<path d="M22.0606 0.789062V13.7799H35.0514V0.789062H22.0606ZM32.8862 2.9542V11.6147H24.2257V2.9542H32.8862ZM17.7303 2.9542V0.789062H19.8954V5.11934H17.7303V9.44961H15.5651V2.9542H17.7303ZM17.7303 13.7799V9.44961H19.8954V13.7799H17.7303ZM13.4 18.1102V15.945H15.5651V13.7799H17.7303V18.1102H19.8954V15.945H30.7211V18.1102H22.0606V20.2753H15.5651V18.1102H13.4ZM13.4 18.1102V20.2753H4.73945V18.1102H2.57432V20.2753H0.40918V15.945H6.90459V18.1102H13.4ZM35.0514 20.2753H32.8862V15.945H35.0514V20.2753ZM32.8862 20.2753H30.7211V24.6056H35.0514V22.4404H32.8862V20.2753ZM24.2257 20.2753H28.556V22.4404H26.3908V24.6056H24.2257V20.2753ZM28.556 26.7707V24.6056H26.3908V26.7707H24.2257V28.9359H19.8954V31.101H26.3908V26.7707H28.556ZM28.556 26.7707H35.0514V28.9359H30.7211V31.101H28.556V26.7707ZM19.8954 24.6056V26.7707H22.0606V22.4404H15.5651V24.6056H19.8954Z" fill="#323232"/>
<path d="M15.5654 26.7695H17.7306V33.2649H26.3911V35.4301H15.5654V26.7695ZM35.0517 31.0998V35.4301H28.5563V33.2649H32.8865V31.0998H35.0517Z" fill="#323232"/>
</svg>
