<svg width="42" height="42" viewBox="0 0 42 42" fill="none" xmlns="http://www.w3.org/2000/svg">
<g clip-path="url(#clip0_3728_109397)">
<path fill-rule="evenodd" clip-rule="evenodd" d="M21 7C13.268 7 7 13.268 7 21C7 28.732 13.268 35 21 35C28.732 35 35 28.732 35 21C35 13.268 28.732 7 21 7ZM3.5 21C3.5 11.335 11.335 3.5 21 3.5C30.665 3.5 38.5 11.335 38.5 21C38.5 30.665 30.665 38.5 21 38.5C11.335 38.5 3.5 30.665 3.5 21ZM21 10.5C21.9665 10.5 22.75 11.2835 22.75 12.25V12.9922C23.5845 13.1026 24.4111 13.2924 25.2184 13.5615L26.8034 14.0898C27.7203 14.3954 28.2158 15.3865 27.9102 16.3034C27.6046 17.2203 26.6135 17.7158 25.6966 17.4102L24.1116 16.8819C23.6646 16.7329 23.2095 16.6168 22.75 16.5338V19.5175L24.2061 19.7602C26.3954 20.1251 28 22.0193 28 24.2388V24.5793C28 26.3303 26.8796 27.8848 25.2184 28.4385C24.4111 28.7076 23.5845 28.8974 22.75 29.0078V29.75C22.75 30.7165 21.9665 31.5 21 31.5C20.0335 31.5 19.25 30.7165 19.25 29.75V29.0078C18.4155 28.8974 17.5889 28.7076 16.7816 28.4385L15.1966 27.9102C14.2797 27.6046 13.7842 26.6135 14.0898 25.6966C14.3954 24.7797 15.3865 24.2842 16.3034 24.5898L17.8884 25.1181C18.3354 25.2671 18.7905 25.3832 19.25 25.4662V22.4825L17.7939 22.2398C15.6046 21.8749 14 19.9807 14 17.7612V17.4207C14 15.6697 15.1204 14.1152 16.7816 13.5615C17.5889 13.2924 18.4155 13.1026 19.25 12.9922V12.25C19.25 11.2835 20.0335 10.5 21 10.5ZM19.25 16.5338C18.7905 16.6168 18.3354 16.7329 17.8884 16.8819C17.6564 16.9592 17.5 17.1762 17.5 17.4207V17.7612C17.5 18.2698 17.8677 18.7038 18.3693 18.7874L19.25 18.9342V16.5338ZM22.75 23.0658V25.4662C23.2095 25.3832 23.6646 25.2671 24.1116 25.1181C24.3436 25.0408 24.5 24.8238 24.5 24.5793V24.2388C24.5 23.7302 24.1323 23.2962 23.6307 23.2126L22.75 23.0658Z" fill="white"/>
</g>
<defs>
<clipPath id="clip0_3728_109397">
<rect width="35" height="35" fill="white" transform="translate(3.5 3.5)"/>
</clipPath>
</defs>
</svg>
