<svg width="28" height="28" viewBox="0 0 28 28" fill="none" xmlns="http://www.w3.org/2000/svg">
<path fill-rule="evenodd" clip-rule="evenodd" d="M7.72394 0.752707C7.97399 0.502658 8.31313 0.362183 8.66675 0.362183H19.3334C19.687 0.362183 20.0262 0.502658 20.2762 0.752707L26.9429 7.41937C27.1929 7.66942 27.3334 8.00856 27.3334 8.36218V19.0289C27.3334 19.3825 27.1929 19.7216 26.9429 19.9717L20.2762 26.6383C20.0262 26.8884 19.687 27.0289 19.3334 27.0289H8.66675C8.31313 27.0289 7.97399 26.8884 7.72394 26.6383L1.05727 19.9717C0.807224 19.7216 0.666748 19.3825 0.666748 19.0289V8.36218C0.666748 8.00856 0.807224 7.66942 1.05727 7.41937L7.72394 0.752707ZM9.21903 3.02885L3.33341 8.91447V18.4766L9.21903 24.3622H18.7811L24.6667 18.4766V8.91447L18.7811 3.02885H9.21903Z" fill="white"/>
</svg>
