<svg width="24" height="24" viewBox="0 0 24 24" fill="none" xmlns="http://www.w3.org/2000/svg">
<path fill-rule="evenodd" clip-rule="evenodd" d="M4 3C3.44772 3 3 3.44772 3 4V7C3 7.55228 3.44772 8 4 8H7C7.55228 8 8 7.55228 8 7V4C8 3.44772 7.55228 3 7 3H4ZM5 6V5H6V6H5Z" fill="black"/>
<path fill-rule="evenodd" clip-rule="evenodd" d="M4 9.5C3.44772 9.5 3 9.94772 3 10.5V13.5C3 14.0523 3.44772 14.5 4 14.5H7C7.55228 14.5 8 14.0523 8 13.5V10.5C8 9.94772 7.55228 9.5 7 9.5H4ZM5 12.5V11.5H6V12.5H5Z" fill="black"/>
<path fill-rule="evenodd" clip-rule="evenodd" d="M3 17C3 16.4477 3.44772 16 4 16H7C7.55228 16 8 16.4477 8 17V20C8 20.5523 7.55228 21 7 21H4C3.44772 21 3 20.5523 3 20V17ZM5 18V19H6V18H5Z" fill="black"/>
<path fill-rule="evenodd" clip-rule="evenodd" d="M10.5 3C9.94772 3 9.5 3.44772 9.5 4V7C9.5 7.55228 9.94772 8 10.5 8H13.5C14.0523 8 14.5 7.55228 14.5 7V4C14.5 3.44772 14.0523 3 13.5 3H10.5ZM11.5 6V5H12.5V6H11.5Z" fill="black"/>
<path fill-rule="evenodd" clip-rule="evenodd" d="M9.5 10.5C9.5 9.94772 9.94772 9.5 10.5 9.5H13.5C14.0523 9.5 14.5 9.94772 14.5 10.5V13.5C14.5 14.0523 14.0523 14.5 13.5 14.5H10.5C9.94772 14.5 9.5 14.0523 9.5 13.5V10.5ZM11.5 11.5V12.5H12.5V11.5H11.5Z" fill="black"/>
<path fill-rule="evenodd" clip-rule="evenodd" d="M17 3C16.4477 3 16 3.44772 16 4V7C16 7.55228 16.4477 8 17 8H20C20.5523 8 21 7.55228 21 7V4C21 3.44772 20.5523 3 20 3H17ZM18 6V5H19V6H18Z" fill="black"/>
<path d="M12 16C12.4142 16 12.75 16.3358 12.75 16.75V17.75H13.75C14.1642 17.75 14.5 18.0858 14.5 18.5C14.5 18.9142 14.1642 19.25 13.75 19.25H12.75V20.25C12.75 20.6642 12.4142 21 12 21C11.5858 21 11.25 20.6642 11.25 20.25V19.25H10.25C9.83579 19.25 9.5 18.9142 9.5 18.5C9.5 18.0858 9.83579 17.75 10.25 17.75H11.25V16.75C11.25 16.3358 11.5858 16 12 16Z" fill="black"/>
<path d="M18.5 16C18.9142 16 19.25 16.3358 19.25 16.75V17.75H20.25C20.6642 17.75 21 18.0858 21 18.5C21 18.9142 20.6642 19.25 20.25 19.25H19.25V20.25C19.25 20.6642 18.9142 21 18.5 21C18.0858 21 17.75 20.6642 17.75 20.25V19.25H16.75C16.3358 19.25 16 18.9142 16 18.5C16 18.0858 16.3358 17.75 16.75 17.75H17.75V16.75C17.75 16.3358 18.0858 16 18.5 16Z" fill="black"/>
<path d="M18.5 9.5C18.9142 9.5 19.25 9.83579 19.25 10.25V11.25H20.25C20.6642 11.25 21 11.5858 21 12C21 12.4142 20.6642 12.75 20.25 12.75H19.25V13.75C19.25 14.1642 18.9142 14.5 18.5 14.5C18.0858 14.5 17.75 14.1642 17.75 13.75V12.75H16.75C16.3358 12.75 16 12.4142 16 12C16 11.5858 16.3358 11.25 16.75 11.25H17.75V10.25C17.75 9.83579 18.0858 9.5 18.5 9.5Z" fill="black"/>
</svg>
