<svg width="90" height="65" viewBox="0 0 90 65" fill="none" xmlns="http://www.w3.org/2000/svg">
<path d="M43.2639 4.16955L42.7215 3.32941L43.2639 4.16955ZM27.1944 37.5446L26.2199 37.7689L27.1944 37.5446ZM71.6944 56.0862L70.7558 55.7412L71.6944 56.0862ZM65.5139 30.1279L64.7317 30.751L65.5139 30.1279ZM27.1944 21.4751L26.8912 20.5222L26.9831 20.493L27.0789 20.4818L27.1944 21.4751ZM0 30.1279L7.77871 21.5941L11.2798 32.5976L0 30.1279ZM89 10.3501C88.5376 11.2368 88.5376 11.2368 88.5376 11.2368C88.5376 11.2368 88.5376 11.2368 88.5377 11.2368C88.5377 11.2368 88.5377 11.2368 88.5377 11.2368C88.5377 11.2368 88.5377 11.2368 88.5376 11.2368C88.5375 11.2367 88.5373 11.2366 88.537 11.2365C88.5364 11.2362 88.5353 11.2356 88.5338 11.2348C88.5308 11.2333 88.526 11.2308 88.5196 11.2274C88.5066 11.2207 88.4867 11.2104 88.46 11.1968C88.4067 11.1695 88.3263 11.1285 88.2202 11.0751C88.0081 10.9684 87.693 10.812 87.2856 10.6152L88.1551 8.81415C88.5729 9.01589 88.8978 9.17716 89.1191 9.28851C89.2298 9.34418 89.3146 9.38739 89.3722 9.41694C89.4011 9.43171 89.4231 9.44307 89.4382 9.45088C89.4457 9.45478 89.4515 9.45779 89.4556 9.45989C89.4576 9.46094 89.4592 9.46176 89.4603 9.46236C89.4609 9.46266 89.4614 9.4629 89.4617 9.46308C89.4619 9.46317 89.462 9.46325 89.4621 9.46331C89.4622 9.46334 89.4623 9.46337 89.4623 9.46339C89.4623 9.4634 89.4624 9.46342 89.4624 9.46342C89.4624 9.46344 89.4624 9.46345 89 10.3501ZM85.5698 9.80977C84.8219 9.46773 83.9498 9.08008 82.9735 8.66478L83.7564 6.82438C84.7503 7.2472 85.6387 7.64209 86.4016 7.99092L85.5698 9.80977ZM81.2127 7.93361C80.3808 7.59657 79.4949 7.24942 78.5638 6.90016L79.2662 5.02756C80.2147 5.38335 81.1169 5.73686 81.9637 6.07998L81.2127 7.93361ZM76.778 6.24862C75.9099 5.94084 75.011 5.63535 74.0876 5.33763L74.7013 3.43411C75.6442 3.73812 76.5613 4.04981 77.4463 4.36358L76.778 6.24862ZM72.2777 4.77452C71.3822 4.50615 70.4687 4.24783 69.5422 4.00407L70.0511 2.06989C71.0009 2.31979 71.9362 2.5843 72.8519 2.85871L72.2777 4.77452ZM67.7083 3.54555C66.7931 3.32896 65.8692 3.12902 64.941 2.9498L65.3202 0.986073C66.2775 1.17092 67.2287 1.3768 68.1689 1.59931L67.7083 3.54555ZM63.0854 2.62102C62.1532 2.4711 61.2205 2.34476 60.2917 2.24598L60.5032 0.257193C61.4702 0.360031 62.4384 0.491263 63.403 0.646397L63.0854 2.62102ZM58.4245 2.08531C57.481 2.02399 56.5458 1.99446 55.6236 2.00086L55.6097 0.000903726C56.5838 -0.00584626 57.5671 0.0253618 58.5542 0.0895187L58.4245 2.08531ZM53.7659 2.06475C52.8273 2.12406 51.9075 2.22518 51.0115 2.37244L50.6872 0.398922C51.6544 0.23994 52.6407 0.131865 53.6397 0.0687335L53.7659 2.06475ZM49.2125 2.73971C48.3132 2.96136 47.4449 3.23631 46.6126 3.56919L45.8699 1.71221C46.7949 1.34224 47.7521 1.03982 48.7338 0.797832L49.2125 2.73971ZM44.9711 4.3276C44.5724 4.53875 44.1839 4.7659 43.8062 5.0097L42.7215 3.32941C43.1488 3.05359 43.587 2.79747 44.0351 2.56015L44.9711 4.3276ZM43.8062 5.0097C43.3943 5.2756 42.9885 5.54559 42.5888 5.81961L41.4578 4.1701C41.873 3.88542 42.2943 3.60518 42.7215 3.32941L43.8062 5.0097ZM41.0041 6.95186C40.2152 7.53942 39.4541 8.1438 38.7227 8.7646L37.4285 7.23976C38.1935 6.5905 38.9879 5.95977 39.8095 5.34785L41.0041 6.95186ZM37.2723 10.0536C36.5551 10.7216 35.8713 11.4068 35.223 12.1089L33.7537 10.752C34.4374 10.0116 35.1567 9.29087 35.9092 8.59008L37.2723 10.0536ZM33.9515 13.5627C33.3308 14.3133 32.7495 15.0815 32.2098 15.8669L30.5615 14.7342C31.136 13.8981 31.7532 13.0826 32.4102 12.2881L33.9515 13.5627ZM31.172 17.4845C30.6773 18.3134 30.2277 19.1601 29.8255 20.0242L28.0123 19.1802C28.4442 18.2523 28.926 17.3452 29.4546 16.4595L31.172 17.4845ZM29.0805 21.7868C28.7409 22.6793 28.4505 23.5896 28.2119 24.5172L26.275 24.0189C26.5325 23.0178 26.8456 22.0365 27.2113 21.0755L29.0805 21.7868ZM27.8065 26.3836C27.641 27.3142 27.5265 28.262 27.4654 29.2266L25.4694 29.1003C25.5352 28.0605 25.6587 27.0381 25.8374 26.0334L27.8065 26.3836ZM27.4148 31.1398C27.4242 32.0791 27.4836 33.0342 27.5951 34.0049L25.6082 34.2333C25.4888 33.1945 25.425 32.1699 25.4149 31.1598L27.4148 31.1398ZM27.8775 35.9057C27.9625 36.3737 28.0596 36.8452 28.169 37.3202L26.2199 37.7689C26.1037 37.2641 26.0004 36.7623 25.9097 36.2634L27.8775 35.9057ZM28.169 37.3202C28.272 37.7678 28.3939 38.2163 28.534 38.6651L26.6248 39.261C26.4702 38.7655 26.3348 38.268 26.2199 37.7689L28.169 37.3202ZM29.1747 40.4254C29.5276 41.2756 29.9419 42.1232 30.412 42.9642L28.6662 43.94C28.1612 43.0366 27.7124 42.1193 27.3275 41.1923L29.1747 40.4254ZM31.3933 44.5876C31.9043 45.3736 32.4613 46.1502 33.0593 46.9139L31.4845 48.1469C30.8526 47.3399 30.2612 46.5156 29.7164 45.6776L31.3933 44.5876ZM34.2766 48.3868C34.8987 49.1011 35.5547 49.8009 36.24 50.4828L34.8292 51.9005C34.1116 51.1863 33.4229 50.4519 32.7683 49.7001L34.2766 48.3868ZM37.6309 51.8064C38.3384 52.4507 39.0706 53.0756 39.8229 53.678L38.5726 55.2391C37.7881 54.6108 37.0237 53.9585 36.2843 53.2852L37.6309 51.8064ZM41.3484 54.849C42.1247 55.42 42.9175 55.9664 43.7222 56.4853L42.6383 58.1661C41.7991 57.625 40.9726 57.0554 40.1634 56.4602L41.3484 54.849ZM45.3588 57.4931C46.1957 57.9846 47.0413 58.4451 47.8906 58.8716L46.993 60.6589C46.1037 60.2123 45.2197 59.7308 44.346 59.2177L45.3588 57.4931ZM49.6233 59.6922C50.5125 60.0879 51.4013 60.444 52.284 60.7574L51.6149 62.6421C50.6811 62.3106 49.7443 61.9351 48.8103 61.5195L49.6233 59.6922ZM54.0965 61.3428C55.0347 61.6152 55.9599 61.8351 56.865 61.999L56.5086 63.967C55.5304 63.7899 54.538 63.5536 53.5389 63.2635L54.0965 61.3428ZM58.7271 62.2591C59.6916 62.352 60.6229 62.3735 61.5127 62.3202L61.6323 64.3166C60.6281 64.3768 59.5921 64.3517 58.5354 64.2499L58.7271 62.2591ZM63.3294 62.0948C64.2464 61.917 65.1029 61.6449 65.8902 61.2751L66.7405 63.0853C65.7892 63.5322 64.773 63.8522 63.7101 64.0583L63.3294 62.0948ZM67.4098 60.3755C68.1043 59.8662 68.7316 59.2495 69.2803 58.5145L70.8829 59.711C70.216 60.6042 69.4474 61.3614 68.5926 61.9883L67.4098 60.3755ZM70.2143 56.9954C70.4114 56.6034 70.5924 56.1858 70.7558 55.7412L72.633 56.4312C72.4446 56.944 72.2337 57.4315 72.0011 57.894L70.2143 56.9954ZM70.7558 55.7412C70.9145 55.3095 71.0591 54.882 71.1899 54.4585L73.1008 55.0487C72.9594 55.5065 72.8036 55.9673 72.633 56.4312L70.7558 55.7412ZM71.6549 52.7245C71.8587 51.8266 72.0006 50.9457 72.0845 50.0795L74.0752 50.2724C73.9829 51.2246 73.8274 52.189 73.6053 53.1672L71.6549 52.7245ZM72.1769 48.3007C72.1829 47.4003 72.1266 46.5129 72.012 45.636L73.9952 45.3768C74.1214 46.3426 74.1835 47.3211 74.1769 48.3141L72.1769 48.3007ZM71.7027 43.8792C71.5108 43.0121 71.2624 42.1523 70.9612 41.2973L72.8475 40.6327C73.174 41.5592 73.4451 42.4966 73.6554 43.447L71.7027 43.8792ZM70.3016 39.6219C69.9476 38.8072 69.5469 37.9956 69.1028 37.185L70.8567 36.2239C71.3277 37.0834 71.7556 37.9497 72.1359 38.8248L70.3016 39.6219ZM68.1861 35.6114C67.7163 34.8491 67.2099 34.0871 66.6697 33.3236L68.3024 32.1684C68.8646 32.9629 69.3946 33.7603 69.8887 34.5621L68.1861 35.6114ZM65.5818 31.8424C65.3055 31.4791 65.022 31.1154 64.7317 30.751L66.296 29.5048C66.5951 29.8802 66.8878 30.2557 67.1737 30.6316L65.5818 31.8424ZM64.7317 30.751C64.4377 30.3818 64.1232 30.0273 63.7898 29.6868L65.2187 28.2874C65.598 28.6748 65.9579 29.0803 66.296 29.5048L64.7317 30.751ZM62.373 28.4106C61.6352 27.8218 60.8329 27.283 59.9762 26.7907L60.9728 25.0567C61.9078 25.594 62.7954 26.1889 63.6206 26.8475L62.373 28.4106ZM58.2454 25.8913C57.3732 25.4815 56.4605 25.1122 55.517 24.78L56.1813 22.8935C57.1812 23.2456 58.1567 23.6399 59.0959 24.0812L58.2454 25.8913ZM53.6332 24.176C52.6889 23.901 51.7235 23.6589 50.7461 23.4463L51.1712 21.492C52.1892 21.7134 53.1996 21.9667 54.1924 22.2558L53.6332 24.176ZM48.7904 23.0617C47.8042 22.8872 46.8134 22.7401 45.827 22.6168L46.0751 20.6323C47.092 20.7594 48.1164 20.9114 49.1387 21.0922L48.7904 23.0617ZM43.8344 22.3982C42.8181 22.3017 41.8145 22.2284 40.834 22.1745L40.9439 20.1775C41.9486 20.2328 42.9788 20.3079 44.0235 20.4071L43.8344 22.3982ZM38.8254 22.0884C37.7773 22.056 36.7676 22.0439 35.8111 22.0464L35.8059 20.0464C36.7829 20.0439 37.8149 20.0562 38.8872 20.0894L38.8254 22.0884ZM33.7987 22.0733C32.6789 22.1002 31.6657 22.1443 30.7903 22.1937L30.6779 20.1968C31.5726 20.1464 32.6074 20.1013 33.7507 20.0739L33.7987 22.0733ZM28.777 22.331C28.3036 22.3694 27.9344 22.404 27.6847 22.4289C27.5598 22.4414 27.4649 22.4514 27.4018 22.4582C27.3702 22.4616 27.3467 22.4643 27.3313 22.466C27.3236 22.4669 27.318 22.4675 27.3144 22.4679C27.3126 22.4681 27.3114 22.4683 27.3106 22.4683C27.3103 22.4684 27.31 22.4684 27.3099 22.4684C27.3099 22.4684 27.3099 22.4684 27.3099 22.4684C27.3099 22.4684 27.3099 22.4684 27.3099 22.4684C27.3099 22.4684 27.31 22.4684 27.31 22.4684C27.31 22.4684 27.31 22.4684 27.1944 21.4751C27.0789 20.4818 27.0789 20.4818 27.0789 20.4818C27.0789 20.4818 27.079 20.4818 27.079 20.4818C27.0791 20.4818 27.0791 20.4818 27.0792 20.4818C27.0794 20.4818 27.0795 20.4817 27.0797 20.4817C27.0802 20.4817 27.0807 20.4816 27.0814 20.4815C27.0828 20.4814 27.0847 20.4811 27.0871 20.4809C27.092 20.4803 27.0989 20.4795 27.1079 20.4785C27.1259 20.4765 27.1522 20.4736 27.1864 20.4699C27.255 20.4624 27.3555 20.4518 27.4861 20.4388C27.7474 20.4127 28.129 20.377 28.6155 20.3376L28.777 22.331ZM27.4976 22.428L26.1379 22.8607L25.5315 20.9548L26.8912 20.5222L27.4976 22.428ZM24.325 23.4375L21.6055 24.3028L20.9991 22.397L23.7186 21.5317L24.325 23.4375ZM19.7925 24.8797L17.0731 25.7449L16.4667 23.8391L19.1861 22.9738L19.7925 24.8797ZM15.2601 26.3218L12.5407 27.1871L11.9343 25.2812L14.6537 24.4159L15.2601 26.3218ZM10.7277 27.7639L8.00829 28.6292L7.40189 26.7233L10.1213 25.8581L10.7277 27.7639ZM6.19533 29.206L3.47588 30.0713L2.86948 28.1655L5.58892 27.3002L6.19533 29.206Z" fill="white"/>
</svg>
