<svg width="28" height="26" viewBox="0 0 28 26" fill="none" xmlns="http://www.w3.org/2000/svg">
<path d="M14.6259 6.77244C14.3698 6.25359 13.6299 6.25359 13.3739 6.77243L12.4095 8.72647C12.3078 8.9325 12.1113 9.07531 11.8839 9.10835L9.72749 9.42169C9.15491 9.50489 8.92628 10.2085 9.3406 10.6124L10.901 12.1334C11.0655 12.2938 11.1406 12.5248 11.1018 12.7513L10.7334 14.899C10.6356 15.4693 11.2341 15.9041 11.7463 15.6349L13.675 14.6209C13.8784 14.514 14.1214 14.514 14.3247 14.6209L16.2535 15.6349C16.7656 15.9041 17.3642 15.4693 17.2663 14.899L16.898 12.7513C16.8592 12.5248 16.9342 12.2938 17.0988 12.1334L18.6591 10.6124C19.0735 10.2085 18.8448 9.50489 18.2723 9.42169L16.1159 9.10835C15.8885 9.07531 15.6919 8.9325 15.5902 8.72647L14.6259 6.77244Z" fill="black"/>
<path fill-rule="evenodd" clip-rule="evenodd" d="M3.33329 0.383301C1.86053 0.383301 0.666626 1.57721 0.666626 3.04997V19.05C0.666626 20.5227 1.86053 21.7166 3.33329 21.7166H9.44768L13.0572 25.3261C13.5778 25.8468 14.4221 25.8468 14.9428 25.3261L18.5522 21.7166H24.6666C26.1394 21.7166 27.3333 20.5227 27.3333 19.05V3.04997C27.3333 1.57721 26.1394 0.383301 24.6666 0.383301H3.33329ZM3.33329 3.04997L24.6666 3.04997V19.05H18C17.6463 19.05 17.3072 19.1904 17.0572 19.4405L14 22.4977L10.9428 19.4405C10.6927 19.1904 10.3536 19.05 9.99996 19.05H3.33329V3.04997Z" fill="black"/>
</svg>
