<svg width="24" height="25" viewBox="0 0 24 25" fill="none" xmlns="http://www.w3.org/2000/svg">
<g clip-path="url(#clip0_4924_38780)">
<path fill-rule="evenodd" clip-rule="evenodd" d="M12 2.7041C10.067 2.7041 8.5 4.2711 8.5 6.2041C8.5 8.1371 10.067 9.7041 12 9.7041C13.933 9.7041 15.5 8.1371 15.5 6.2041C15.5 4.2711 13.933 2.7041 12 2.7041ZM10.5 6.2041C10.5 5.37567 11.1716 4.7041 12 4.7041C12.8284 4.7041 13.5 5.37567 13.5 6.2041C13.5 7.03253 12.8284 7.7041 12 7.7041C11.1716 7.7041 10.5 7.03253 10.5 6.2041Z" fill="#575757"/>
<path fill-rule="evenodd" clip-rule="evenodd" d="M18.5 4.7041C17.1193 4.7041 16 5.82339 16 7.2041C16 8.58481 17.1193 9.7041 18.5 9.7041C19.8807 9.7041 21 8.58481 21 7.2041C21 5.82339 19.8807 4.7041 18.5 4.7041ZM18 7.2041C18 6.92796 18.2239 6.7041 18.5 6.7041C18.7761 6.7041 19 6.92796 19 7.2041C19 7.48024 18.7761 7.7041 18.5 7.7041C18.2239 7.7041 18 7.48024 18 7.2041Z" fill="#575757"/>
<path fill-rule="evenodd" clip-rule="evenodd" d="M8 7.2041C8 5.82339 6.88071 4.7041 5.5 4.7041C4.11929 4.7041 3 5.82339 3 7.2041C3 8.58481 4.11929 9.7041 5.5 9.7041C6.88071 9.7041 8 8.58481 8 7.2041ZM5.5 6.7041C5.77614 6.7041 6 6.92796 6 7.2041C6 7.48024 5.77614 7.7041 5.5 7.7041C5.22386 7.7041 5 7.48024 5 7.2041C5 6.92796 5.22386 6.7041 5.5 6.7041Z" fill="#575757"/>
<path fill-rule="evenodd" clip-rule="evenodd" d="M10 10.7041C8.34315 10.7041 7 12.0472 7 13.7041V16.0861C7 16.8436 7.428 17.5361 8.10557 17.8749L9 18.3221V21.7041C9 22.2564 9.44772 22.7041 10 22.7041H14C14.5523 22.7041 15 22.2564 15 21.7041V18.3221L15.8944 17.8749C16.572 17.5361 17 16.8436 17 16.0861V13.7041C17 12.0472 15.6569 10.7041 14 10.7041H10ZM9 13.7041C9 13.1518 9.44772 12.7041 10 12.7041H14C14.5523 12.7041 15 13.1518 15 13.7041V16.0861L13.5528 16.8097C13.214 16.9791 13 17.3253 13 17.7041V20.7041H11V17.7041C11 17.3253 10.786 16.9791 10.4472 16.8097L9 16.0861V13.7041Z" fill="#575757"/>
<path d="M18 11.7041C18 11.1518 18.4477 10.7041 19 10.7041H20C21.1046 10.7041 22 11.5995 22 12.7041V16.0861C22 16.8436 21.572 17.5361 20.8944 17.8749L20 18.3221V21.7041C20 22.2564 19.5523 22.7041 19 22.7041H17C16.4477 22.7041 16 22.2564 16 21.7041C16 21.1518 16.4477 20.7041 17 20.7041H18V17.7041C18 17.3253 18.214 16.9791 18.5528 16.8097L20 16.0861V12.7041H19C18.4477 12.7041 18 12.2564 18 11.7041Z" fill="#575757"/>
<path d="M5 10.7041C5.55228 10.7041 6 11.1518 6 11.7041C6 12.2564 5.55228 12.7041 5 12.7041H4V16.0861L5.44721 16.8097C5.786 16.9791 6 17.3253 6 17.7041V20.7041H7C7.55228 20.7041 8 21.1518 8 21.7041C8 22.2564 7.55228 22.7041 7 22.7041H5C4.44772 22.7041 4 22.2564 4 21.7041V18.3221L3.10557 17.8749C2.428 17.5361 2 16.8436 2 16.0861V12.7041C2 11.5995 2.89543 10.7041 4 10.7041H5Z" fill="#575757"/>
</g>
<defs>
<clipPath id="clip0_4924_38780">
<rect width="20" height="20" fill="white" transform="translate(2 2.7041)"/>
</clipPath>
</defs>
</svg>
