<svg width="28" height="28" viewBox="0 0 28 28" fill="none" xmlns="http://www.w3.org/2000/svg">
<path fill-rule="evenodd" clip-rule="evenodd" d="M14.0001 0.362183C11.4228 0.362183 9.33342 2.45152 9.33342 5.02885C9.33342 7.60618 11.4228 9.69552 14.0001 9.69552C16.5774 9.69552 18.6667 7.60618 18.6667 5.02885C18.6667 2.45152 16.5774 0.362183 14.0001 0.362183ZM12.0001 5.02885C12.0001 3.92428 12.8955 3.02885 14.0001 3.02885C15.1047 3.02885 16.0001 3.92428 16.0001 5.02885C16.0001 6.13342 15.1047 7.02885 14.0001 7.02885C12.8955 7.02885 12.0001 6.13342 12.0001 5.02885Z" fill="white"/>
<path fill-rule="evenodd" clip-rule="evenodd" d="M22.6667 3.02885C20.8258 3.02885 19.3334 4.52123 19.3334 6.36218C19.3334 8.20313 20.8258 9.69552 22.6667 9.69552C24.5077 9.69552 26.0001 8.20313 26.0001 6.36218C26.0001 4.52123 24.5077 3.02885 22.6667 3.02885ZM22.0001 6.36218C22.0001 5.99399 22.2986 5.69552 22.6667 5.69552C23.0349 5.69552 23.3334 5.99399 23.3334 6.36218C23.3334 6.73037 23.0349 7.02885 22.6667 7.02885C22.2986 7.02885 22.0001 6.73037 22.0001 6.36218Z" fill="white"/>
<path fill-rule="evenodd" clip-rule="evenodd" d="M8.66675 6.36218C8.66675 4.52123 7.17436 3.02885 5.33342 3.02885C3.49247 3.02885 2.00008 4.52123 2.00008 6.36218C2.00008 8.20313 3.49247 9.69552 5.33342 9.69552C7.17436 9.69552 8.66675 8.20313 8.66675 6.36218ZM5.33342 5.69552C5.7016 5.69552 6.00008 5.99399 6.00008 6.36218C6.00008 6.73037 5.7016 7.02885 5.33342 7.02885C4.96523 7.02885 4.66675 6.73037 4.66675 6.36218C4.66675 5.99399 4.96523 5.69552 5.33342 5.69552Z" fill="white"/>
<path fill-rule="evenodd" clip-rule="evenodd" d="M11.3334 11.0288C9.12428 11.0288 7.33342 12.8197 7.33342 15.0288V18.2048C7.33342 19.2149 7.90409 20.1382 8.80751 20.5899L10.0001 21.1862V25.6955C10.0001 26.4319 10.597 27.0289 11.3334 27.0289H16.6667C17.4031 27.0289 18.0001 26.4319 18.0001 25.6955V21.1862L19.1927 20.5899C20.0961 20.1382 20.6667 19.2149 20.6667 18.2048V15.0288C20.6667 12.8197 18.8759 11.0288 16.6667 11.0288H11.3334ZM10.0001 15.0288C10.0001 14.2925 10.597 13.6955 11.3334 13.6955H16.6667C17.4031 13.6955 18.0001 14.2925 18.0001 15.0288V18.2048L16.0705 19.1696C15.6188 19.3955 15.3334 19.8572 15.3334 20.3622V24.3622H12.6667V20.3622C12.6667 19.8572 12.3814 19.3955 11.9297 19.1696L10.0001 18.2048V15.0288Z" fill="white"/>
<path d="M22.0001 12.3622C22.0001 11.6258 22.597 11.0288 23.3334 11.0288H24.6667C26.1395 11.0288 27.3334 12.2228 27.3334 13.6955V18.2048C27.3334 19.2149 26.7627 20.1382 25.8593 20.5899L24.6667 21.1862V25.6955C24.6667 26.4319 24.0698 27.0289 23.3334 27.0289H20.6667C19.9304 27.0289 19.3334 26.4319 19.3334 25.6955C19.3334 24.9591 19.9304 24.3622 20.6667 24.3622H22.0001V20.3622C22.0001 19.8572 22.2854 19.3955 22.7371 19.1696L24.6667 18.2048V13.6955H23.3334C22.597 13.6955 22.0001 13.0986 22.0001 12.3622Z" fill="white"/>
<path d="M4.66675 11.0288C5.40313 11.0288 6.00008 11.6258 6.00008 12.3622C6.00008 13.0986 5.40313 13.6955 4.66675 13.6955H3.33341V18.2048L5.26303 19.1696C5.71475 19.3955 6.00008 19.8572 6.00008 20.3622V24.3622H7.33342C8.06979 24.3622 8.66675 24.9591 8.66675 25.6955C8.66675 26.4319 8.06979 27.0289 7.33342 27.0289H4.66675C3.93037 27.0289 3.33341 26.4319 3.33341 25.6955V21.1862L2.14085 20.5899C1.23742 20.1382 0.666748 19.2149 0.666748 18.2048V13.6955C0.666748 12.2228 1.86066 11.0288 3.33341 11.0288H4.66675Z" fill="white"/>
</svg>
