<svg width="20" height="21" viewBox="0 0 20 21" fill="none" xmlns="http://www.w3.org/2000/svg">
<path fill-rule="evenodd" clip-rule="evenodd" d="M6.24792 1.09946C6.69554 1.03552 7.13037 1.27989 7.30849 1.69549L9.31152 6.36925C9.4726 6.74509 9.38862 7.18114 9.09949 7.47027L7.65873 8.91103C8.41191 10.6772 9.81983 12.0851 11.586 12.8382L13.0267 11.3975C13.3158 11.1084 13.7519 11.0244 14.1277 11.1855L18.8015 13.1885C19.2171 13.3666 19.4615 13.8014 19.3975 14.2491L18.7677 18.6577C18.6998 19.1329 18.3038 19.4929 17.8242 19.5152C13.4569 19.7181 9.01889 18.1514 5.68223 14.8148C2.34558 11.4781 0.778884 7.0401 0.981807 2.6728C1.00409 2.19322 1.36404 1.79716 1.83931 1.72926L6.24792 1.09946ZM2.96528 3.58871C3.00626 7.14585 4.38341 10.6875 7.09645 13.4005C9.80948 16.1136 13.3511 17.4907 16.9083 17.5317L17.3092 14.7249L13.9622 13.2904L12.5437 14.709C12.2758 14.9768 11.8797 15.0703 11.5203 14.9505C8.69985 14.0104 6.48661 11.7971 5.54645 8.97664C5.42667 8.61731 5.52019 8.22114 5.78803 7.95331L7.20654 6.5348L5.77209 3.18774L2.96528 3.58871Z" fill="#7D7D7D"/>
</svg>
