<svg width="28" height="27" viewBox="0 0 28 27" fill="none" xmlns="http://www.w3.org/2000/svg">
<path d="M2 4.12826C2 3.39188 2.59695 2.79492 3.33333 2.79492H24.6667C25.403 2.79492 26 3.39188 26 4.12826C26 4.86463 25.403 5.46159 24.6667 5.46159H3.33333C2.59695 5.46159 2 4.86463 2 4.12826Z" fill="#323232"/>
<path d="M2 10.3548C2 9.61844 2.59695 9.02149 3.33333 9.02149H24.6667C25.403 9.02149 26 9.61844 26 10.3548C26 11.0912 25.403 11.6882 24.6667 11.6882H3.33333C2.59695 11.6882 2 11.0912 2 10.3548Z" fill="#323232"/>
<path d="M3.33333 15.235C2.59695 15.235 2 15.832 2 16.5684C2 17.3047 2.59695 17.9017 3.33333 17.9017H11.3333C12.0697 17.9017 12.6667 17.3047 12.6667 16.5684C12.6667 15.832 12.0697 15.235 11.3333 15.235H3.33333Z" fill="#323232"/>
<path d="M2 22.7949C2 22.0585 2.59695 21.4616 3.33333 21.4616H11.3333C12.0697 21.4616 12.6667 22.0585 12.6667 22.7949C12.6667 23.5313 12.0697 24.1283 11.3333 24.1283H3.33333C2.59695 24.1283 2 23.5313 2 22.7949Z" fill="#323232"/>
<path d="M25.6095 17.7377C26.1302 17.217 26.1302 16.3728 25.6095 15.8521C25.0888 15.3314 24.2446 15.3314 23.7239 15.8521L18.6667 20.9093L16.2761 18.5188C15.7554 17.9981 14.9112 17.9981 14.3905 18.5188C13.8698 19.0395 13.8698 19.8837 14.3905 20.4044L17.7239 23.7377C18.2446 24.2584 19.0888 24.2584 19.6095 23.7377L25.6095 17.7377Z" fill="#323232"/>
</svg>
