<svg width="34" height="38" viewBox="0 0 34 38" fill="none" xmlns="http://www.w3.org/2000/svg">
<path d="M1.16919 0.16718C1.36219 0.0567755 1.58086 -0.000879251 1.8032 1.0136e-05C2.02555 0.000899523 2.24375 0.0603018 2.43586 0.172246L22.3048 11.7622L16.1564 17.295L0.533326 3.23505V1.26665C0.533142 1.04363 0.591844 0.824513 0.703497 0.631456C0.81515 0.438399 0.975796 0.278243 1.16919 0.16718ZM0.533326 6.64491V31.355L14.264 19L0.533326 6.64491ZM0.533326 34.7649V36.7333C0.53326 36.9562 0.592001 37.1751 0.703619 37.368C0.815236 37.561 0.975778 37.721 1.16903 37.832C1.36229 37.943 1.58142 38.0011 1.80429 38.0003C2.02717 37.9996 2.24589 37.94 2.43839 37.8277L22.3048 26.2377L16.1564 20.7049L0.533326 34.7649ZM24.6025 24.8976L32.8359 20.0944C33.0272 19.9829 33.186 19.8231 33.2963 19.6311C33.4067 19.4391 33.4648 19.2215 33.4648 19C33.4648 18.7785 33.4067 18.5609 33.2963 18.3689C33.186 18.1768 33.0272 18.0171 32.8359 17.9056L24.6025 13.1024L18.0488 19L24.6025 24.8976Z" fill="white"/>
</svg>
