<svg width="24" height="25" viewBox="0 0 24 25" fill="none" xmlns="http://www.w3.org/2000/svg">
<g clip-path="url(#clip0_4924_82607)">
<path d="M7.5 6.2041H5.5V8.2041H7.5V6.2041Z" fill="#575757"/>
<path fill-rule="evenodd" clip-rule="evenodd" d="M2 3.7041C2 3.15182 2.44772 2.7041 3 2.7041H10C10.5523 2.7041 11 3.15182 11 3.7041V10.7041C11 11.2564 10.5523 11.7041 10 11.7041H3C2.44772 11.7041 2 11.2564 2 10.7041V3.7041ZM4 4.7041V9.7041H9V4.7041H4Z" fill="#575757"/>
<path d="M7.5 17.2041H5.5V19.2041H7.5V17.2041Z" fill="#575757"/>
<path fill-rule="evenodd" clip-rule="evenodd" d="M2 14.7041C2 14.1518 2.44772 13.7041 3 13.7041H10C10.5523 13.7041 11 14.1518 11 14.7041V21.7041C11 22.2564 10.5523 22.7041 10 22.7041H3C2.44772 22.7041 2 22.2564 2 21.7041V14.7041ZM4 15.7041V20.7041H9V15.7041H4Z" fill="#575757"/>
<path d="M18.5 6.2041H16.5V8.2041H18.5V6.2041Z" fill="#575757"/>
<path fill-rule="evenodd" clip-rule="evenodd" d="M13 3.7041C13 3.15182 13.4477 2.7041 14 2.7041H21C21.5523 2.7041 22 3.15182 22 3.7041V10.7041C22 11.2564 21.5523 11.7041 21 11.7041H14C13.4477 11.7041 13 11.2564 13 10.7041V3.7041ZM15 4.7041V9.7041H20V4.7041H15Z" fill="#575757"/>
<path d="M16 16.7041H19V19.7041H16V16.7041Z" fill="#575757"/>
<path d="M16 16.7041H13V13.7041H16V16.7041Z" fill="#575757"/>
<path d="M16 19.7041V22.7041H13V19.7041H16Z" fill="#575757"/>
<path d="M19 19.7041H22V22.7041H19V19.7041Z" fill="#575757"/>
<path d="M19 16.7041V13.7041H22V16.7041H19Z" fill="#575757"/>
</g>
<defs>
<clipPath id="clip0_4924_82607">
<rect width="20" height="20" fill="white" transform="translate(2 2.7041)"/>
</clipPath>
</defs>
</svg>
