<svg width="176" height="208" viewBox="0 0 176 208" fill="none" xmlns="http://www.w3.org/2000/svg">
<path d="M2 3.93164C28.555 18.7168 45.5028 39.2817 54.8034 59.1754M54.8034 59.1754C71.911 95.7679 63.1451 130.09 40.7036 121.994C24.2191 116.048 32.383 82.5869 54.8034 59.1754ZM54.8034 59.1754C71.2785 41.9721 95.4516 30.1951 123.199 38.7486C163.936 51.306 144.904 98.3134 116.14 138.94M116.14 138.94C95.5098 168.077 69.8736 193.933 57.6901 201.443C33.4866 216.362 36.7169 160.214 116.14 138.94ZM116.14 138.94C132.44 134.574 151.95 131.676 175.091 131.164" stroke="url(#paint0_linear_23483_131)" stroke-width="8"/>
<defs>
<linearGradient id="paint0_linear_23483_131" x1="88.5455" y1="3.93164" x2="88.5455" y2="203.932" gradientUnits="userSpaceOnUse">
<stop stop-color="#E84A7C"/>
<stop offset="0.5" stop-color="#AE44B7"/>
<stop offset="1" stop-color="#733DF2"/>
</linearGradient>
</defs>
</svg>
