<svg width="44" height="45" viewBox="0 0 44 45" fill="none" xmlns="http://www.w3.org/2000/svg">
<rect y="0.5" width="44" height="44" rx="22" fill="#FBE4EB"/>
<path fill-rule="evenodd" clip-rule="evenodd" d="M22 13C22.3806 13 22.7282 13.2161 22.8967 13.5574L25.4258 18.682L31.0812 19.5038C31.4579 19.5586 31.7708 19.8224 31.8884 20.1844C32.0061 20.5464 31.908 20.9438 31.6354 21.2095L27.5432 25.1985L28.5092 30.831C28.5735 31.2061 28.4193 31.5853 28.1114 31.809C27.8034 32.0328 27.3952 32.0623 27.0583 31.8851L22 29.2258L16.9417 31.8851C16.6047 32.0623 16.1965 32.0328 15.8885 31.809C15.5806 31.5853 15.4264 31.2061 15.4907 30.831L16.4568 25.1985L12.3645 21.2095C12.0919 20.9438 11.9938 20.5464 12.1115 20.1844C12.2291 19.8224 12.542 19.5586 12.9187 19.5038L18.5741 18.682L21.1032 13.5574C21.2717 13.2161 21.6193 13 22 13ZM22 16.2596L20.1349 20.0386C19.9892 20.3338 19.7076 20.5383 19.3819 20.5857L15.2115 21.1917L18.2293 24.1333C18.4649 24.363 18.5725 24.694 18.5169 25.0184L17.8045 29.172L21.5346 27.2109C21.8259 27.0578 22.174 27.0578 22.4653 27.2109L26.1955 29.172L25.4831 25.0184C25.4274 24.694 25.535 24.363 25.7707 24.1333L28.7884 21.1917L24.618 20.5857C24.2923 20.5383 24.0107 20.3338 23.865 20.0386L22 16.2596Z" fill="#B51749"/>
</svg>
