<svg width="21" height="20" viewBox="0 0 21 20" fill="none" xmlns="http://www.w3.org/2000/svg">
<g clip-path="url(#clip0_7099_73085)">
<path fill-rule="evenodd" clip-rule="evenodd" d="M9.79289 0.292893C10.1834 -0.0976311 10.8166 -0.097631 11.2071 0.292893L17.2071 6.29289C17.5976 6.68342 17.5976 7.31658 17.2071 7.70711C16.8166 8.09763 16.1834 8.09763 15.7929 7.70711L11.5 3.41421L11.5 15C11.5 15.5523 11.0523 16 10.5 16C9.94771 16 9.5 15.5523 9.5 15L9.5 3.41421L5.20711 7.70711C4.81658 8.09763 4.18342 8.09763 3.79289 7.70711C3.40237 7.31658 3.40237 6.68342 3.79289 6.29289L9.79289 0.292893ZM1.5 15C2.05228 15 2.5 15.4477 2.5 16V18H18.5V16C18.5 15.4477 18.9477 15 19.5 15C20.0523 15 20.5 15.4477 20.5 16V19C20.5 19.5523 20.0523 20 19.5 20H1.5C0.947715 20 0.5 19.5523 0.5 19V16C0.5 15.4477 0.947715 15 1.5 15Z" fill="white"/>
</g>
<defs>
<clipPath id="clip0_7099_73085">
<rect width="20" height="20" fill="white" transform="translate(0.5)"/>
</clipPath>
</defs>
</svg>
