<svg width="28" height="27" viewBox="0 0 28 27" fill="none" xmlns="http://www.w3.org/2000/svg">
<g clip-path="url(#clip0_14196_989)">
<path fill-rule="evenodd" clip-rule="evenodd" d="M18.0001 1.38314C18.0001 0.646758 18.597 0.0498047 19.3334 0.0498047C20.0698 0.0498047 20.6667 0.646758 20.6667 1.38314V2.71647H22.0001C24.9456 2.71647 27.3334 5.10429 27.3334 8.0498V24.0498C27.3334 25.5282 26.1295 26.7165 24.6624 26.7165L18.6667 26.7165C17.9304 26.7165 17.3334 26.1195 17.3334 25.3831C17.3334 24.6468 17.9304 24.0498 18.6667 24.0498H24.6624L24.6641 24.0497L24.6667 24.0477L24.6667 13.3831L2.00008 13.3831C1.2637 13.3831 0.666749 12.7862 0.666749 12.0498V8.04981C0.666749 5.10429 3.05456 2.71647 6.00008 2.71647H7.33342V1.38314C7.33342 0.646758 7.93037 0.0498047 8.66675 0.0498047C9.40313 0.0498047 10.0001 0.646758 10.0001 1.38314V2.71647L18.0001 2.71647V1.38314ZM10.0001 6.71647V5.38314L18.0001 5.38314V6.71647C18.0001 7.45285 18.597 8.0498 19.3334 8.0498C20.0698 8.0498 20.6667 7.45285 20.6667 6.71647V5.38314H22.0001C23.4728 5.38314 24.6667 6.57705 24.6667 8.0498V10.7165L3.33342 10.7165V8.04981C3.33342 6.57705 4.52732 5.38314 6.00008 5.38314H7.33342V6.71647C7.33342 7.45285 7.93037 8.0498 8.66675 8.0498C9.40313 8.0498 10.0001 7.45285 10.0001 6.71647Z" fill="black"/>
<path d="M6.94289 18.3259C7.46359 17.8052 7.46359 16.961 6.94289 16.4403C6.42219 15.9196 5.57797 15.9196 5.05727 16.4403L1.05727 20.4403C0.536573 20.961 0.536573 21.8052 1.05727 22.3259L5.05727 26.3259C5.57797 26.8466 6.42219 26.8466 6.94289 26.3259C7.46359 25.8052 7.46359 24.961 6.94289 24.4403L5.21903 22.7165H14.0001C14.7365 22.7165 15.3334 22.1195 15.3334 21.3831C15.3334 20.6468 14.7365 20.0498 14.0001 20.0498H5.21903L6.94289 18.3259Z" fill="black"/>
</g>
<defs>
<clipPath id="clip0_14196_989">
<rect width="26.6667" height="26.6667" fill="white" transform="matrix(-1 0 0 1 27.3334 0.0498047)"/>
</clipPath>
</defs>
</svg>
