<svg width="28" height="27" viewBox="0 0 28 27" fill="none" xmlns="http://www.w3.org/2000/svg">
<g clip-path="url(#clip0_14275_944)">
<path d="M18.9727 10.3737C19.4764 9.83646 19.4492 8.99268 18.9119 8.48904C18.3747 7.98539 17.5309 8.01261 17.0273 8.54983L13 12.8456L10.9727 10.6832C10.4691 10.1459 9.62532 10.1187 9.0881 10.6224C8.55088 11.126 8.52366 11.9698 9.0273 12.507L12.0273 15.707C12.2794 15.9759 12.6315 16.1284 13 16.1284C13.3686 16.1284 13.7207 15.9759 13.9727 15.707L18.9727 10.3737Z" fill="#323232"/>
<path fill-rule="evenodd" clip-rule="evenodd" d="M14.4975 0.224687C14.1783 0.0963282 13.8218 0.0963282 13.5026 0.224687L1.50258 5.05008C0.997558 5.25316 0.666687 5.74283 0.666687 6.28715C0.666687 8.1212 1.40115 11.7827 3.30341 15.653C5.21998 19.5526 8.38131 23.7867 13.3385 26.6194C13.7484 26.8536 14.2516 26.8536 14.6615 26.6194C19.6187 23.7867 22.7801 19.5526 24.6966 15.653C26.5989 11.7827 27.3334 8.1212 27.3334 6.28715C27.3334 5.74283 27.0025 5.25316 26.4975 5.05008L14.4975 0.224687ZM5.69664 14.4768C4.24272 11.5186 3.58023 8.78504 3.39208 7.16447L14 2.89885L24.608 7.16447C24.4198 8.78504 23.7573 11.5186 22.3034 14.4768C20.6431 17.8549 18.0031 21.4175 14 23.9094C9.99697 21.4175 7.35693 17.8549 5.69664 14.4768Z" fill="#323232"/>
</g>
<defs>
<clipPath id="clip0_14275_944">
<rect width="26.6667" height="26.6667" fill="white" transform="translate(0.666687 0.128418)"/>
</clipPath>
</defs>
</svg>
