<svg width="20" height="20" viewBox="0 0 20 20" fill="none" xmlns="http://www.w3.org/2000/svg">
<path d="M10 5.41699C10.1658 5.41699 10.3247 5.35114 10.4419 5.23393C10.5592 5.11672 10.625 4.95775 10.625 4.79199C10.625 4.62623 10.5592 4.46726 10.4419 4.35005C10.3247 4.23284 10.1658 4.16699 10 4.16699C9.83424 4.16699 9.67527 4.23284 9.55806 4.35005C9.44085 4.46726 9.375 4.62623 9.375 4.79199C9.375 4.95775 9.44085 5.11672 9.55806 5.23393C9.67527 5.35114 9.83424 5.41699 10 5.41699Z" fill="#575757"/>
<path fill-rule="evenodd" clip-rule="evenodd" d="M9.92333 2.50733L9.92 2.50816L9.91042 2.50983L9.87583 2.5165L9.74667 2.54233C9.63583 2.56483 9.47792 2.59816 9.28917 2.64108C8.91208 2.72691 8.40583 2.85233 7.8975 3.00941C7.39417 3.16483 6.86708 3.35816 6.45833 3.58441C6.255 3.69691 6.06 3.829 5.91125 3.98441C5.76333 4.13816 5.625 4.35358 5.625 4.624C5.625 5.35108 5.82917 5.88358 6.045 6.24066C6.15125 6.4165 6.25917 6.54775 6.34417 6.63775C6.34833 6.68566 6.35458 6.73941 6.36625 6.79775C6.40833 7.01691 6.51375 7.29608 6.75542 7.56733C6.64034 8.05661 6.6374 8.56557 6.74682 9.05614C6.85623 9.54671 7.07517 10.0062 7.38726 10.4002C7.69934 10.7942 8.09648 11.1125 8.54897 11.3313C9.00146 11.5502 9.49758 11.6638 10.0002 11.6638C10.5028 11.6638 10.999 11.5502 11.4514 11.3313C11.9039 11.1125 12.3011 10.7942 12.6132 10.4002C12.9252 10.0062 13.1442 9.54671 13.2536 9.05614C13.363 8.56557 13.3601 8.05661 13.245 7.56733C13.4862 7.29608 13.5917 7.01733 13.6337 6.79775C13.6454 6.73941 13.6521 6.68566 13.6558 6.63775C13.7693 6.51634 13.8696 6.38323 13.955 6.24066C14.1713 5.88358 14.375 5.35108 14.375 4.624C14.375 4.35358 14.2367 4.13816 14.0887 3.98441C13.94 3.829 13.745 3.69691 13.5417 3.58441C13.1329 3.35816 12.6058 3.16483 12.1021 3.00941C11.643 2.8695 11.179 2.74664 10.7108 2.64108C10.5159 2.59666 10.3203 2.55498 10.1242 2.51608L10.0896 2.50983L10.08 2.50816L10.0767 2.50733L10 2.49316L9.92333 2.50733ZM10 7.70858C10.9196 7.70858 11.5371 7.58941 11.95 7.43441C12.2996 7.30316 12.5033 7.1465 12.6208 7.01441C12.6638 6.9665 12.6975 6.91983 12.7242 6.87525H7.27583C7.3025 6.91983 7.33625 6.96691 7.37875 7.01441C7.49708 7.1465 7.70042 7.30316 8.04958 7.43441C8.46292 7.58941 9.08042 7.70858 10 7.70858ZM13.0717 6.04191H6.92833C6.86447 5.96985 6.80742 5.89201 6.75792 5.80941C6.615 5.57316 6.46 5.19108 6.45833 4.63275C6.47225 4.606 6.49056 4.58177 6.5125 4.56108C6.58 4.49066 6.69417 4.40608 6.86208 4.31358C7.19542 4.129 7.65792 3.95566 8.14375 3.80525C8.5826 3.6718 9.02624 3.55464 9.47375 3.454C9.64866 3.41419 9.8241 3.37668 10 3.3415C10.0237 3.34566 10.0529 3.35191 10.0867 3.35858C10.1925 3.38025 10.3442 3.41275 10.5262 3.454C10.8913 3.53691 11.375 3.65691 11.8562 3.80566C12.3421 3.95566 12.8046 4.129 13.1379 4.31358C13.3058 4.40608 13.42 4.49066 13.4879 4.56108C13.5254 4.60066 13.5379 4.624 13.5417 4.63275C13.54 5.19108 13.385 5.57316 13.2417 5.80941C13.1924 5.89207 13.1355 5.96991 13.0717 6.04191ZM7.5 8.33358C7.5 8.25858 7.50333 8.18441 7.50958 8.11108C8.06708 8.37233 8.86542 8.54191 10 8.54191C10.9771 8.54191 11.7037 8.41691 12.2425 8.21483C12.33 8.18233 12.4125 8.14733 12.4904 8.11066C12.5199 8.44671 12.4811 8.78525 12.3763 9.1059C12.2715 9.42655 12.1029 9.72268 11.8807 9.97644C11.6584 10.2302 11.3871 10.4364 11.0831 10.5825C10.779 10.7287 10.4486 10.8118 10.1116 10.8268C9.77456 10.8419 9.43799 10.7886 9.12214 10.6701C8.80628 10.5517 8.51766 10.3705 8.27367 10.1376C8.02967 9.90462 7.83534 9.62471 7.70238 9.31468C7.56942 9.00465 7.50058 8.67092 7.5 8.33358Z" fill="#575757"/>
<path d="M13.7498 14.167C14.0278 14.4449 14.5832 14.7224 14.5832 14.7224C14.5832 14.7224 14.2923 15.8337 13.7498 15.8337C13.2073 15.8337 12.9165 14.7224 12.9165 14.7224C12.9165 14.7224 13.4719 14.4449 13.7498 14.167Z" fill="#575757"/>
<path fill-rule="evenodd" clip-rule="evenodd" d="M8.54167 12.9173C8.54167 12.6963 8.62946 12.4843 8.78574 12.3281C8.94202 12.1718 9.15399 12.084 9.375 12.084H10.625C10.846 12.084 11.058 12.1718 11.2143 12.3281C11.3705 12.4843 11.4583 12.6963 11.4583 12.9173V13.4932C11.4583 13.6288 11.4252 13.7624 11.3618 13.8824C11.2984 14.0024 11.2067 14.105 11.0946 14.1815L11.1417 14.4173L12.5717 12.6811C12.6199 12.6225 12.6831 12.5782 12.7546 12.5529C12.8262 12.5277 12.9032 12.5224 12.9775 12.5377C14.0458 12.7594 15.1387 13.0952 15.9754 13.5561C16.7846 14.0019 17.5 14.649 17.5 15.5415V17.084C17.5 17.1945 17.4561 17.3005 17.378 17.3786C17.2998 17.4568 17.1938 17.5007 17.0833 17.5007H2.91667C2.80616 17.5007 2.70018 17.4568 2.62204 17.3786C2.5439 17.3005 2.5 17.1945 2.5 17.084V15.5415C2.5 14.654 3.22917 14.0111 4.03833 13.569C4.87833 13.1094 5.97167 12.7711 7.02708 12.5465C7.10171 12.5306 7.17925 12.5356 7.25125 12.5608C7.32326 12.586 7.38696 12.6305 7.43542 12.6894L8.86458 14.4252L8.90958 14.1844C8.79626 14.1081 8.70343 14.0051 8.63928 13.8845C8.57512 13.7639 8.5416 13.6293 8.54167 13.4927V12.9173ZM10.2167 14.0407L10.4579 15.2477L10 15.8036L9.55667 15.2652L9.78458 14.0348C9.80109 13.9459 9.78823 13.8541 9.74794 13.7731C9.70766 13.6922 9.64213 13.6265 9.56125 13.5861L9.375 13.4932V12.9173H10.625V13.4932L10.4387 13.5865C10.357 13.6273 10.2909 13.6939 10.2507 13.776C10.2105 13.858 10.1984 13.951 10.2162 14.0407H10.2167ZM10.3679 16.6673L13.0529 13.4069C13.9946 13.6177 14.8975 13.914 15.5729 14.2861C16.335 14.7057 16.6667 15.1394 16.6667 15.5415V16.6673H10.3683H10.3679ZM6.95375 13.4161L9.63167 16.6673H3.33333V15.5415C3.33333 15.1523 3.66667 14.7219 4.43792 14.2998C5.11833 13.9277 6.02292 13.6298 6.95458 13.4161H6.95375Z" fill="#575757"/>
</svg>
