<svg width="11" height="12" viewBox="0 0 11 12" fill="none" xmlns="http://www.w3.org/2000/svg">
<g clip-path="url(#clip0_4028_75582)">
<path d="M6.94002 8.2293C6.96732 8.2832 6.97417 8.34515 6.95932 8.40371C6.94447 8.46227 6.90892 8.51347 6.85924 8.54784L6.82996 8.56529L5.34314 9.31837C4.9797 9.50245 4.55929 9.53936 4.16933 9.42141C3.77938 9.30347 3.44989 9.03975 3.2494 8.6851L3.21523 8.62132L2.0856 6.39109C2.01546 6.25271 1.98996 6.09599 2.0126 5.94252C2.03525 5.78905 2.10493 5.64637 2.21204 5.53415L3.66127 8.3954L3.69047 8.44936C3.82397 8.67946 4.03747 8.8524 4.29028 8.93521C4.54309 9.01803 4.81753 9.00492 5.0613 8.89841L5.11721 8.87233L6.60404 8.11924C6.66319 8.08928 6.73181 8.08405 6.79482 8.10469C6.85783 8.12533 6.91006 8.17015 6.94002 8.2293ZM7.15821 7.18466C7.1855 7.23855 7.19236 7.30051 7.17751 7.35907C7.16266 7.41762 7.12711 7.46882 7.07743 7.5032L7.04815 7.52064L4.9666 8.57496C4.79707 8.66085 4.60126 8.67919 4.41874 8.62626C4.23622 8.57333 4.08059 8.45308 3.98332 8.28982L3.95864 8.24478L2.45247 5.27113C2.36658 5.10161 2.34825 4.9058 2.40118 4.72328C2.45411 4.54075 2.57435 4.38513 2.73761 4.28786L2.78265 4.26318L4.8642 3.20886C4.92072 3.18025 4.98599 3.17417 5.04681 3.19183C5.10764 3.2095 5.1595 3.24959 5.1919 3.30401C5.22431 3.35844 5.23485 3.42313 5.22139 3.48503C5.20793 3.54692 5.17148 3.6014 5.11941 3.63746L5.09013 3.6549L3.00858 4.70922C2.89558 4.76646 2.84468 4.89761 2.88524 5.01382L2.89852 5.04521L4.40469 8.01885C4.43199 8.07275 4.47788 8.11493 4.53387 8.1376C4.58987 8.16028 4.65218 8.16191 4.70929 8.1422L4.74067 8.12891L6.82222 7.0746C6.88137 7.04464 6.95 7.0394 7.01301 7.06004C7.07602 7.08068 7.12825 7.12551 7.15821 7.18466ZM6.47315 3.40951L8.26358 3.9965C8.32048 4.01513 8.3688 4.05357 8.39976 4.10481C8.43072 4.15605 8.44227 4.2167 8.43229 4.27574L8.42354 4.31156L7.83804 6.10422C7.81856 6.16436 7.77702 6.21489 7.72178 6.24563C7.66655 6.27637 7.60172 6.28504 7.54034 6.26991C7.47896 6.25477 7.4256 6.21694 7.391 6.16404C7.35639 6.11114 7.34311 6.04709 7.35383 5.98479L7.36288 5.94882L7.76025 4.73122L4.87819 6.19099C4.8243 6.21829 4.76234 6.22515 4.70379 6.21029C4.64523 6.19544 4.59403 6.15989 4.55965 6.11021L4.54221 6.08093C4.51491 6.02704 4.50806 5.96508 4.52291 5.90652C4.53776 5.84797 4.57331 5.79676 4.62299 5.76239L4.65227 5.74495L7.53641 4.28411L6.31745 3.88481C6.26049 3.86615 6.21214 3.82763 6.1812 3.7763C6.15026 3.72496 6.13879 3.66422 6.14889 3.60513L6.15765 3.56931C6.17631 3.51235 6.21483 3.464 6.26616 3.43306C6.3175 3.40212 6.37824 3.39065 6.43733 3.40075L6.47315 3.40951Z" fill="#b51749"/>
</g>
<defs>
<clipPath id="clip0_4028_75582">
<rect width="8" height="8" fill="white" transform="translate(7.38477 0.624268) rotate(63.1375)"/>
</clipPath>
</defs>
</svg>
