<svg width="64" height="64" viewBox="0 0 64 64" fill="none" xmlns="http://www.w3.org/2000/svg">
<path d="M0.2154 56.3545L3.50242 46.1425C0.369903 39.8339 -0.581393 32.6643 0.797576 25.757C2.17654 18.8498 5.80787 12.5951 11.1226 7.97286C16.4374 3.35062 23.1353 0.621999 30.1671 0.214471C37.1989 -0.193058 44.1672 1.74353 49.9803 5.72084C55.7935 9.69815 60.1231 15.4915 62.2907 22.1932C64.4584 28.8949 64.3417 36.1264 61.959 42.7547C59.5762 49.3829 55.062 55.0336 49.1236 58.8213C43.1852 62.609 36.158 64.3198 29.143 63.6856C22.2983 63.2194 15.8215 60.4161 10.7966 55.7451L0.2154 56.3545Z" fill="#FAFAFA"/>
<path d="M0.214966 56.3549L0.916699 56.2995L2.95723 56.1518L10.7962 55.6162C14.6821 59.21 19.4677 61.6857 24.646 62.7812C26.2447 63.1365 27.8684 63.368 29.5027 63.4737L32.088 63.5753C32.9559 63.5753 33.8515 63.4737 34.7472 63.4275C42.8469 62.6925 50.3526 58.8669 55.7065 52.7447C58.7238 49.3439 60.964 45.3267 62.2714 40.9724C63.6107 36.3194 63.8822 31.4241 63.0654 26.6517C62.8624 25.4247 62.5786 24.2126 62.216 23.023C62.052 22.4205 61.8516 21.8285 61.6158 21.2502C61.385 20.6593 61.1818 20.0684 60.9326 19.4867C59.904 17.1384 58.6024 14.9194 57.0546 12.8757C56.2832 11.857 55.4474 10.8886 54.5524 9.97649C54.1181 9.51143 53.6556 9.07356 53.1674 8.66538C52.6965 8.24988 52.2441 7.79746 51.7455 7.4189L50.2312 6.29244L49.4741 5.73845L48.6616 5.25832L47.0643 4.335C46.5195 4.03031 45.947 3.79948 45.393 3.52248C41.1495 1.51423 36.5095 0.483347 31.8148 0.505718C27.1201 0.528089 22.4901 1.60315 18.2659 3.65175C10.9461 7.16713 5.26191 13.3672 2.39399 20.964C2.23703 21.3887 2.0893 21.8135 1.94157 22.229C1.77452 22.6389 1.64173 23.062 1.54455 23.4939C1.33219 24.3434 1.12904 25.1836 0.925913 26.0053C0.645518 27.6155 0.45441 29.24 0.353459 30.8712C0.146615 36.1482 1.25725 41.3935 3.58508 46.1337L1.11059 53.6865L0.455039 55.6439C0.307307 56.0871 0.224208 56.318 0.224208 56.318C0.224208 56.318 0.2796 56.1056 0.418098 55.6716L1.00901 53.7327L3.38195 46.0783V46.1522C0.992164 41.4032 -0.163634 36.129 0.0210768 30.8158C0.107699 29.1663 0.289586 27.5231 0.565833 25.8945C0.768963 25.0636 0.981311 24.2141 1.18444 23.3554C1.28265 22.9188 1.41227 22.4899 1.57225 22.072C1.72921 21.6473 1.87694 21.2225 2.03391 20.7886C3.57594 16.6466 5.96109 12.8699 9.03839 9.69758C12.1157 6.52523 15.8181 4.02631 19.9112 2.35903C24.0044 0.691742 28.3991 -0.107596 32.8172 0.0116179C37.2352 0.130831 41.5804 1.166 45.5777 3.05159C46.1409 3.31935 46.7226 3.55941 47.2766 3.87334L48.9017 4.84283L49.7142 5.33219L50.4898 5.89541L52.0225 7.0311C52.5303 7.42813 52.992 7.88056 53.4721 8.29605C53.9642 8.71291 54.4327 9.15679 54.8756 9.62563C55.783 10.5563 56.6311 11.5432 57.4147 12.5803C58.9925 14.6357 60.322 16.8702 61.3757 19.2374C61.625 19.8283 61.8282 20.4377 62.059 21.0286C62.3038 21.6306 62.5104 22.2474 62.6776 22.8753C63.0428 24.0861 63.3266 25.3199 63.5271 26.5686C64.361 31.4119 64.0832 36.3814 62.7146 41.1016C61.4032 45.5388 59.1373 49.6356 56.0759 53.1048C50.6404 59.2851 43.0373 63.1395 34.8395 63.8707C33.9162 63.8707 32.9928 64 32.1434 64L29.5304 63.8892C27.8802 63.7738 26.2412 63.533 24.6276 63.169C19.43 62.0308 14.6414 59.4961 10.7778 55.8378H10.8516L2.93877 56.2533L0.925913 56.3457C0.436553 56.3549 0.214966 56.3549 0.214966 56.3549Z" fill="#263238"/>
<path d="M13.9443 30.8164L19.1796 26.2736L27.9973 35.3314L47.7748 18.8594L51.9575 24.0761L26.6215 44.7031L13.9443 30.8164Z" fill="#FF725E"/>
</svg>
