<svg width="44" height="45" viewBox="0 0 44 45" fill="none" xmlns="http://www.w3.org/2000/svg">
<rect y="0.5" width="44" height="44" rx="22" fill="#FBE4EB"/>
<path fill-rule="evenodd" clip-rule="evenodd" d="M14 13.5C13.4477 13.5 13 13.9477 13 14.5V17.5C13 18.0523 13.4477 18.5 14 18.5H17C17.5523 18.5 18 18.0523 18 17.5V14.5C18 13.9477 17.5523 13.5 17 13.5H14ZM15 16.5V15.5H16V16.5H15Z" fill="#B51749"/>
<path fill-rule="evenodd" clip-rule="evenodd" d="M14 20C13.4477 20 13 20.4477 13 21V24C13 24.5523 13.4477 25 14 25H17C17.5523 25 18 24.5523 18 24V21C18 20.4477 17.5523 20 17 20H14ZM15 23V22H16V23H15Z" fill="#B51749"/>
<path fill-rule="evenodd" clip-rule="evenodd" d="M13 27.5C13 26.9477 13.4477 26.5 14 26.5H17C17.5523 26.5 18 26.9477 18 27.5V30.5C18 31.0523 17.5523 31.5 17 31.5H14C13.4477 31.5 13 31.0523 13 30.5V27.5ZM15 28.5V29.5H16V28.5H15Z" fill="#B51749"/>
<path fill-rule="evenodd" clip-rule="evenodd" d="M20.5 13.5C19.9477 13.5 19.5 13.9477 19.5 14.5V17.5C19.5 18.0523 19.9477 18.5 20.5 18.5H23.5C24.0523 18.5 24.5 18.0523 24.5 17.5V14.5C24.5 13.9477 24.0523 13.5 23.5 13.5H20.5ZM21.5 16.5V15.5H22.5V16.5H21.5Z" fill="#B51749"/>
<path fill-rule="evenodd" clip-rule="evenodd" d="M19.5 21C19.5 20.4477 19.9477 20 20.5 20H23.5C24.0523 20 24.5 20.4477 24.5 21V24C24.5 24.5523 24.0523 25 23.5 25H20.5C19.9477 25 19.5 24.5523 19.5 24V21ZM21.5 22V23H22.5V22H21.5Z" fill="#B51749"/>
<path fill-rule="evenodd" clip-rule="evenodd" d="M27 13.5C26.4477 13.5 26 13.9477 26 14.5V17.5C26 18.0523 26.4477 18.5 27 18.5H30C30.5523 18.5 31 18.0523 31 17.5V14.5C31 13.9477 30.5523 13.5 30 13.5H27ZM28 16.5V15.5H29V16.5H28Z" fill="#B51749"/>
<path d="M22 26.5C22.4142 26.5 22.75 26.8358 22.75 27.25V28.25H23.75C24.1642 28.25 24.5 28.5858 24.5 29C24.5 29.4142 24.1642 29.75 23.75 29.75H22.75V30.75C22.75 31.1642 22.4142 31.5 22 31.5C21.5858 31.5 21.25 31.1642 21.25 30.75V29.75H20.25C19.8358 29.75 19.5 29.4142 19.5 29C19.5 28.5858 19.8358 28.25 20.25 28.25H21.25V27.25C21.25 26.8358 21.5858 26.5 22 26.5Z" fill="#B51749"/>
<path d="M28.5 26.5C28.9142 26.5 29.25 26.8358 29.25 27.25V28.25H30.25C30.6642 28.25 31 28.5858 31 29C31 29.4142 30.6642 29.75 30.25 29.75H29.25V30.75C29.25 31.1642 28.9142 31.5 28.5 31.5C28.0858 31.5 27.75 31.1642 27.75 30.75V29.75H26.75C26.3358 29.75 26 29.4142 26 29C26 28.5858 26.3358 28.25 26.75 28.25H27.75V27.25C27.75 26.8358 28.0858 26.5 28.5 26.5Z" fill="#B51749"/>
<path d="M28.5 20C28.9142 20 29.25 20.3358 29.25 20.75V21.75H30.25C30.6642 21.75 31 22.0858 31 22.5C31 22.9142 30.6642 23.25 30.25 23.25H29.25V24.25C29.25 24.6642 28.9142 25 28.5 25C28.0858 25 27.75 24.6642 27.75 24.25V23.25H26.75C26.3358 23.25 26 22.9142 26 22.5C26 22.0858 26.3358 21.75 26.75 21.75H27.75V20.75C27.75 20.3358 28.0858 20 28.5 20Z" fill="#B51749"/>
</svg>
