<svg width="42" height="42" viewBox="0 0 42 42" fill="none" xmlns="http://www.w3.org/2000/svg">
<g clip-path="url(#clip0_3728_109421)">
<path d="M21.8215 12.7607C21.4854 12.0798 20.5144 12.0798 20.1783 12.7607L18.9125 15.3254C18.7791 15.5958 18.5211 15.7833 18.2227 15.8266L15.3924 16.2379C14.6409 16.3471 14.3408 17.2706 14.8846 17.8007L16.9326 19.797C17.1486 20.0075 17.2471 20.3108 17.1961 20.608L16.7126 23.4268C16.5843 24.1753 17.3699 24.7461 18.042 24.3927L20.5735 23.0618C20.8404 22.9215 21.1593 22.9215 21.4262 23.0618L23.9577 24.3927C24.6299 24.7461 25.4155 24.1753 25.2871 23.4268L24.8037 20.608C24.7527 20.3108 24.8512 20.0075 25.0672 19.797L27.1152 17.8007C27.659 17.2706 27.3589 16.3471 26.6074 16.2379L23.7771 15.8266C23.4787 15.7833 23.2207 15.5958 23.0872 15.3254L21.8215 12.7607Z" fill="white"/>
<path fill-rule="evenodd" clip-rule="evenodd" d="M21.6529 3.62635C21.2339 3.45788 20.7661 3.45788 20.3471 3.62635L4.59711 9.95969C3.93427 10.2262 3.5 10.8689 3.5 11.5833C3.5 13.9905 4.46398 18.7962 6.96069 23.8761C9.4762 28.9942 13.6254 34.5515 20.1318 38.2694C20.6698 38.5769 21.3302 38.5769 21.8682 38.2694C28.3746 34.5515 32.5238 28.9942 35.0393 23.8761C37.536 18.7962 38.5 13.9905 38.5 11.5833C38.5 10.8689 38.0657 10.2262 37.4029 9.95969L21.6529 3.62635ZM10.1018 22.3323C8.19355 18.4497 7.32402 14.8618 7.07708 12.7348L21 7.13619L34.9229 12.7348C34.676 14.8618 33.8065 18.4497 31.8982 22.3323C29.7191 26.766 26.254 31.442 21 34.7125C15.746 31.442 12.2809 26.766 10.1018 22.3323Z" fill="white"/>
</g>
<defs>
<clipPath id="clip0_3728_109421">
<rect width="35" height="35" fill="white" transform="translate(3.5 3.5)"/>
</clipPath>
</defs>
</svg>
