<svg width="28" height="28" viewBox="0 0 28 28" fill="none" xmlns="http://www.w3.org/2000/svg">
<path d="M18.9728 10.6076C19.4764 10.0703 19.4492 9.22656 18.912 8.72292C18.3748 8.21928 17.531 8.2465 17.0274 8.78372L13.0001 13.0795L10.9728 10.9171C10.4692 10.3798 9.62538 10.3526 9.08816 10.8563C8.55094 11.3599 8.52373 12.2037 9.02737 12.7409L12.0274 15.9409C12.2794 16.2098 12.6315 16.3623 13.0001 16.3623C13.3686 16.3623 13.7207 16.2098 13.9728 15.9409L18.9728 10.6076Z" fill="white"/>
<path fill-rule="evenodd" clip-rule="evenodd" d="M14.4975 0.458574C14.1783 0.330215 13.8218 0.330215 13.5026 0.458574L1.50264 5.28397C0.997619 5.48705 0.666748 5.97672 0.666748 6.52104C0.666748 8.35509 1.40121 12.0165 3.30347 15.8869C5.22004 19.7865 8.38137 24.0206 13.3386 26.8533C13.7485 27.0875 14.2517 27.0875 14.6616 26.8533C19.6188 24.0206 22.7801 19.7865 24.6967 15.8869C26.599 12.0165 27.3334 8.35509 27.3334 6.52104C27.3334 5.97672 27.0025 5.48705 26.4975 5.28397L14.4975 0.458574ZM5.6967 14.7107C4.24279 11.7525 3.58029 9.01892 3.39214 7.39836L14.0001 3.13273L24.608 7.39836C24.4199 9.01892 23.7574 11.7525 22.3035 14.7107C20.6432 18.0888 18.0031 21.6514 14.0001 24.1433C9.99703 21.6514 7.35699 18.0888 5.6967 14.7107Z" fill="white"/>
</svg>
