<svg width="28" height="27" viewBox="0 0 28 27" fill="none" xmlns="http://www.w3.org/2000/svg">
<g clip-path="url(#clip0_14196_905)">
<path fill-rule="evenodd" clip-rule="evenodd" d="M8.99996 10.7165C8.99996 10.1642 9.44767 9.71647 9.99996 9.71647H11V8.71647C11 7.05962 12.3431 5.71647 14 5.71647C15.6568 5.71647 17 7.05962 17 8.71647V9.71647H18C18.5522 9.71647 19 10.1642 19 10.7165V16.0498C19 16.6021 18.5522 17.0498 18 17.0498H9.99996C9.44767 17.0498 8.99996 16.6021 8.99996 16.0498V10.7165ZM15 9.71647V8.71647C15 8.16419 14.5522 7.71647 14 7.71647C13.4477 7.71647 13 8.16419 13 8.71647V9.71647H15ZM17 11.7165V15.0498H11V11.7165H17Z" fill="black"/>
<path fill-rule="evenodd" clip-rule="evenodd" d="M13.5025 0.146074C13.8217 0.0177149 14.1782 0.0177149 14.4974 0.146074L26.4974 4.97147C27.0024 5.17455 27.3333 5.66422 27.3333 6.20854C27.3333 8.04259 26.5988 11.704 24.6966 15.5744C22.78 19.474 19.6187 23.7081 14.6615 26.5408C14.2516 26.775 13.7484 26.775 13.3384 26.5408C8.38125 23.7081 5.21992 19.474 3.30334 15.5744C1.40109 11.704 0.666626 8.04259 0.666626 6.20854C0.666626 5.66422 0.997497 5.17455 1.50252 4.97147L13.5025 0.146074ZM3.39202 7.08586C3.58017 8.70642 4.24266 11.44 5.69657 14.3982C7.35687 17.7763 9.9969 21.3389 14 23.8308C18.003 21.3389 20.6431 17.7763 22.3033 14.3982C23.7573 11.44 24.4198 8.70642 24.6079 7.08586L14 2.82023L3.39202 7.08586Z" fill="black"/>
</g>
<defs>
<clipPath id="clip0_14196_905">
<rect width="26.6667" height="26.6667" fill="white" transform="translate(0.666626 0.0498047)"/>
</clipPath>
</defs>
</svg>
