<svg width="28" height="28" viewBox="0 0 28 28" fill="none" xmlns="http://www.w3.org/2000/svg">
<path fill-rule="evenodd" clip-rule="evenodd" d="M9.00008 11.3334C9.00008 10.7811 9.4478 10.3334 10.0001 10.3334H11.0001V9.33335C11.0001 7.6765 12.3432 6.33335 14.0001 6.33335C15.6569 6.33335 17.0001 7.6765 17.0001 9.33335V10.3334H18.0001C18.5524 10.3334 19.0001 10.7811 19.0001 11.3334V16.6667C19.0001 17.219 18.5524 17.6667 18.0001 17.6667H10.0001C9.4478 17.6667 9.00008 17.219 9.00008 16.6667V11.3334ZM15.0001 10.3334V9.33335C15.0001 8.78107 14.5524 8.33335 14.0001 8.33335C13.4478 8.33335 13.0001 8.78107 13.0001 9.33335V10.3334H15.0001ZM17.0001 12.3334V15.6667H11.0001V12.3334H17.0001Z" fill="black"/>
<path fill-rule="evenodd" clip-rule="evenodd" d="M13.5026 0.762956C13.8218 0.634597 14.1783 0.634597 14.4975 0.762956L26.4975 5.58835C27.0025 5.79143 27.3334 6.2811 27.3334 6.82542C27.3334 8.65947 26.599 12.3209 24.6967 16.1913C22.7801 20.0908 19.6188 24.325 14.6616 27.1577C14.2517 27.3919 13.7485 27.3919 13.3386 27.1577C8.38137 24.325 5.22004 20.0908 3.30347 16.1913C1.40121 12.3209 0.666748 8.65947 0.666748 6.82542C0.666748 6.2811 0.997619 5.79143 1.50264 5.58835L13.5026 0.762956ZM3.39214 7.70274C3.58029 9.32331 4.24279 12.0569 5.6967 15.0151C7.35699 18.3932 9.99703 21.9558 14.0001 24.4477C18.0031 21.9558 20.6432 18.3932 22.3035 15.0151C23.7574 12.0569 24.4199 9.32331 24.608 7.70274L14.0001 3.43711L3.39214 7.70274Z" fill="black"/>
</svg>
