<svg width="41" height="40" viewBox="0 0 41 40" fill="none" xmlns="http://www.w3.org/2000/svg">
<g clip-path="url(#clip0_7099_22368)">
<path fill-rule="evenodd" clip-rule="evenodd" d="M20.4999 1C21.2612 1 21.9565 1.4322 22.2934 2.11487L27.3517 12.3641L38.6624 14.0076C39.4157 14.1171 40.0416 14.6448 40.2769 15.3688C40.5121 16.0928 40.3159 16.8876 39.7708 17.419L31.5863 25.3969L33.5184 36.6619C33.6471 37.4122 33.3386 38.1706 32.7228 38.618C32.1069 39.0655 31.2903 39.1245 30.6165 38.7703L20.4999 33.4517L10.3833 38.7703C9.70949 39.1245 8.89297 39.0655 8.27708 38.618C7.66118 38.1706 7.35274 37.4122 7.48143 36.6619L9.41353 25.3969L1.22903 17.419C0.683889 16.8876 0.487695 16.0928 0.722945 15.3688C0.958195 14.6448 1.58409 14.1171 2.33746 14.0076L13.6482 12.3641L18.7064 2.11487C19.0434 1.4322 19.7386 1 20.4999 1ZM20.4999 7.5191L16.7698 15.0772C16.4784 15.6675 15.9153 16.0767 15.2639 16.1713L6.92298 17.3833L12.9585 23.2665C13.4299 23.726 13.645 24.388 13.5337 25.0368L12.1089 33.344L19.5692 29.4218C20.1519 29.1155 20.848 29.1155 21.4306 29.4218L28.8909 33.344L27.4661 25.0368C27.3549 24.388 27.57 23.726 28.0413 23.2665L34.0769 17.3833L25.736 16.1713C25.0845 16.0767 24.5214 15.6675 24.2301 15.0772L20.4999 7.5191Z" fill="#575757"/>
</g>
<defs>
<clipPath id="clip0_7099_22368">
<rect width="40" height="40" fill="white" transform="translate(0.5)"/>
</clipPath>
</defs>
</svg>
