<svg width="10" height="18" viewBox="0 0 10 18" fill="none" xmlns="http://www.w3.org/2000/svg">
<path d="M1.66667 0.666992H8.33333C8.77536 0.666992 9.19928 0.842587 9.51184 1.15515C9.8244 1.46771 10 1.89163 10 2.33366V15.667C10 16.109 9.8244 16.5329 9.51184 16.8455C9.19928 17.1581 8.77536 17.3337 8.33333 17.3337H1.66667C1.22464 17.3337 0.800716 17.1581 0.488155 16.8455C0.175595 16.5329 0 16.109 0 15.667V2.33366C0 1.89163 0.175595 1.46771 0.488155 1.15515C0.800716 0.842587 1.22464 0.666992 1.66667 0.666992ZM1.66667 2.33366V15.667H8.33333V2.33366H1.66667ZM3.33333 9.83366H5V13.167H3.33333V9.83366ZM3.33333 4.00033H6.66667V5.25033H3.33333V4.00033ZM3.33333 6.50033H6.66667V7.75033H3.33333V6.50033Z" fill="#575757"/>
</svg>
