<svg width="49" height="48" viewBox="0 0 49 48" fill="none" xmlns="http://www.w3.org/2000/svg">
<path fill-rule="evenodd" clip-rule="evenodd" d="M10.5 6C10.5 4.89543 9.60457 4 8.5 4C7.39543 4 6.5 4.89543 6.5 6V39C6.5 40.1046 7.39543 41 8.5 41H20.5V42C20.5 43.1046 21.3954 44 22.5 44H40.5C41.6046 44 42.5 43.1046 42.5 42V36C42.5 34.8954 41.6046 34 40.5 34H22.5C21.3954 34 20.5 34.8954 20.5 36V37H10.5V29H20.5V30C20.5 31.1046 21.3954 32 22.5 32H40.5C41.6046 32 42.5 31.1046 42.5 30V24C42.5 22.8954 41.6046 22 40.5 22H22.5C21.3954 22 20.5 22.8954 20.5 24V25H10.5V17H20.5V18C20.5 19.1046 21.3954 20 22.5 20H40.5C41.6046 20 42.5 19.1046 42.5 18V12C42.5 10.8954 41.6046 10 40.5 10H22.5C21.3954 10 20.5 10.8954 20.5 12V13H10.5V6ZM38.5 40H24.5V38H38.5V40ZM24.5 26V28H38.5V26H24.5ZM24.5 16V14H38.5V16H24.5Z" fill="#B51749"/>
</svg>
