<svg width="44" height="45" viewBox="0 0 44 45" fill="none" xmlns="http://www.w3.org/2000/svg">
<rect y="0.5" width="44" height="44" rx="22" fill="#FBE4EB"/>
<g clip-path="url(#clip0_4028_75561)">
<path fill-rule="evenodd" clip-rule="evenodd" d="M12 16.5C12 15.3954 12.8954 14.5 14 14.5H30C31.1046 14.5 32 15.3954 32 16.5V19.6716C32 19.9369 31.8946 20.1913 31.707 20.3788L30.9999 21.0858C30.9999 21.0858 30.9999 21.0858 30.9999 21.0859C30.2189 21.8669 30.2189 23.1332 30.9999 23.9142L31.707 24.6213C31.8946 24.8089 31.9999 25.0632 31.9999 25.3284L32 28.5C32 29.6046 31.1046 30.5 30 30.5L14 30.5C12.8954 30.5 12 29.6046 12 28.5V25.3284C12 25.0631 12.1054 24.8088 12.2929 24.6213L12.9999 23.9142C13.781 23.1332 13.781 21.8668 12.9999 21.0858L12.9999 21.0858L12.2929 20.3787C12.1054 20.1912 12 19.9369 12 19.6716V16.5ZM30 16.5L14 16.5V19.2574L14.4141 19.6716C15.9762 21.2337 15.9762 23.7663 14.4141 25.3284L14 25.7426V28.5L30 28.5L29.9999 25.7426L29.5857 25.3284C28.0236 23.7663 28.0236 21.2337 29.5857 19.6716L29.5858 19.6715L30 19.2574V16.5ZM18 20.75C18 20.1977 18.4477 19.75 19 19.75H25C25.5523 19.75 26 20.1977 26 20.75C26 21.3023 25.5523 21.75 25 21.75H19C18.4477 21.75 18 21.3023 18 20.75ZM18 24.25C18 23.6977 18.4477 23.25 19 23.25H25C25.5523 23.25 26 23.6977 26 24.25C26 24.8023 25.5523 25.25 25 25.25H19C18.4477 25.25 18 24.8023 18 24.25Z" fill="#B51749"/>
</g>
<defs>
<clipPath id="clip0_4028_75561">
<rect width="20" height="20" fill="white" transform="translate(12 12.5)"/>
</clipPath>
</defs>
</svg>
