<svg width="28" height="27" viewBox="0 0 28 27" fill="none" xmlns="http://www.w3.org/2000/svg">
<g clip-path="url(#clip0_23499_59)">
<path fill-rule="evenodd" clip-rule="evenodd" d="M0.666992 5.39079C0.666992 3.91803 1.8609 2.72412 3.33366 2.72412H24.667C26.1398 2.72412 27.3337 3.91803 27.3337 5.39079V9.61964C27.3337 9.9733 27.1932 10.3125 26.9431 10.5625L26.0002 11.5052C26.0002 11.5052 26.0002 11.5052 26.0002 11.5053C24.9588 12.5467 24.9589 14.235 26.0002 15.2764L26.9431 16.2192C27.1931 16.4693 27.3336 16.8084 27.3336 17.162L27.3337 21.3908C27.3337 22.8635 26.1398 24.0575 24.667 24.0575L3.33366 24.0575C1.8609 24.0575 0.666992 22.8635 0.666992 21.3908V17.1619C0.666992 16.8083 0.807468 16.4692 1.05752 16.2191L2.00024 15.2764C3.04164 14.235 3.04164 12.5466 2.00024 11.5052L2.00024 11.5052L1.05752 10.5624C0.807468 10.3124 0.666992 9.97326 0.666992 9.61964V5.39079ZM24.667 5.39079L3.33366 5.39079V9.06735L3.88586 9.61955C5.96865 11.7023 5.96865 15.0792 3.88586 17.162L3.33366 17.7142V21.3908L24.667 21.3908L24.6669 17.7143L24.1146 17.162C22.0318 15.0792 22.0318 11.7023 24.1146 9.61955L24.1147 9.61947L24.667 9.06728V5.39079ZM8.66699 11.0575C8.66699 10.3211 9.26395 9.72413 10.0003 9.72413H18.0003C18.7367 9.72413 19.3337 10.3211 19.3337 11.0575C19.3337 11.7938 18.7367 12.3908 18.0003 12.3908H10.0003C9.26395 12.3908 8.66699 11.7938 8.66699 11.0575ZM8.66699 15.7241C8.66699 14.9877 9.26395 14.3908 10.0003 14.3908H18.0003C18.7367 14.3908 19.3337 14.9877 19.3337 15.7241C19.3337 16.4605 18.7367 17.0575 18.0003 17.0575H10.0003C9.26395 17.0575 8.66699 16.4605 8.66699 15.7241Z" fill="#323232"/>
</g>
<defs>
<clipPath id="clip0_23499_59">
<rect width="26.6667" height="26.6667" fill="white" transform="translate(0.666992 0.0576172)"/>
</clipPath>
</defs>
</svg>
