<svg width="647" height="331" viewBox="0 0 647 331" fill="none" xmlns="http://www.w3.org/2000/svg">
<g filter="url(#filter0_d_11725_49345)">
<path fill-rule="evenodd" clip-rule="evenodd" d="M31 49.987C31 29.0074 48.0074 12 68.987 12H578.013C598.993 12 616 29.0074 616 49.987V179.882C603.019 181.418 593 191.379 593 203.438C593 215.498 603.019 225.459 616 226.995V243.013C616 263.993 598.993 281 578.013 281H68.987C48.0073 281 31 263.993 31 243.013V226.995C43.9813 225.459 54 215.498 54 203.438C54 191.379 43.9813 181.418 31 179.882V49.987Z" fill="white"/>
</g>
<defs>
<filter id="filter0_d_11725_49345" x="0.61039" y="0.603897" width="645.779" height="329.779" filterUnits="userSpaceOnUse" color-interpolation-filters="sRGB">
<feFlood flood-opacity="0" result="BackgroundImageFix"/>
<feColorMatrix in="SourceAlpha" type="matrix" values="0 0 0 0 0 0 0 0 0 0 0 0 0 0 0 0 0 0 127 0" result="hardAlpha"/>
<feOffset dy="18.9935"/>
<feGaussianBlur stdDeviation="15.1948"/>
<feComposite in2="hardAlpha" operator="out"/>
<feColorMatrix type="matrix" values="0 0 0 0 0 0 0 0 0 0 0 0 0 0 0 0 0 0 0.1 0"/>
<feBlend mode="normal" in2="BackgroundImageFix" result="effect1_dropShadow_11725_49345"/>
<feBlend mode="normal" in="SourceGraphic" in2="effect1_dropShadow_11725_49345" result="shape"/>
</filter>
</defs>
</svg>
