<svg width="28" height="28" viewBox="0 0 28 28" fill="none" xmlns="http://www.w3.org/2000/svg">
<g clip-path="url(#clip0_14275_980)">
<path fill-rule="evenodd" clip-rule="evenodd" d="M0.666687 5.83171C0.666687 4.35895 1.86059 3.16504 3.33335 3.16504H24.6667C26.1394 3.16504 27.3334 4.35895 27.3334 5.83171V10.0606C27.3334 10.4142 27.1928 10.7534 26.9427 11.0035L25.9999 11.9461C25.9999 11.9461 25.9999 11.9461 25.9999 11.9462C24.9585 12.9876 24.9586 14.676 25.9999 15.7173L26.9427 16.6601C27.1928 16.9102 27.3333 17.2493 27.3333 17.6029L27.3334 21.8317C27.3334 23.3045 26.1394 24.4984 24.6667 24.4984L3.33335 24.4984C1.86059 24.4984 0.666687 23.3045 0.666687 21.8317V17.6029C0.666687 17.2492 0.807163 16.9101 1.05721 16.66L1.99993 15.7173C3.04133 14.6759 3.04133 12.9875 1.99993 11.9461L1.99993 11.9461L1.05721 11.0034C0.807163 10.7533 0.666687 10.4142 0.666687 10.0606V5.83171ZM24.6667 5.83171L3.33335 5.83171V9.50827L3.88555 10.0605C5.96835 12.1433 5.96835 15.5201 3.88555 17.6029L3.33335 18.1551V21.8317L24.6667 21.8317L24.6666 18.1552L24.1143 17.6029C22.0315 15.5201 22.0315 12.1433 24.1143 10.0605L24.1144 10.0604L24.6667 9.5082V5.83171ZM8.66669 11.4984C8.66669 10.762 9.26364 10.165 10 10.165H18C18.7364 10.165 19.3334 10.762 19.3334 11.4984C19.3334 12.2348 18.7364 12.8317 18 12.8317H10C9.26364 12.8317 8.66669 12.2348 8.66669 11.4984ZM8.66669 16.165C8.66669 15.4287 9.26364 14.8317 10 14.8317H18C18.7364 14.8317 19.3334 15.4287 19.3334 16.165C19.3334 16.9014 18.7364 17.4984 18 17.4984H10C9.26364 17.4984 8.66669 16.9014 8.66669 16.165Z" fill="#323232"/>
</g>
<defs>
<clipPath id="clip0_14275_980">
<rect width="26.6667" height="26.6667" fill="white" transform="translate(0.666687 0.498535)"/>
</clipPath>
</defs>
</svg>
