<svg width="24" height="24" viewBox="0 0 24 24" fill="none" xmlns="http://www.w3.org/2000/svg">
<path fill-rule="evenodd" clip-rule="evenodd" d="M11.622 1.60198C11.7367 1.53503 11.8672 1.49976 12 1.49976C12.1328 1.49976 12.2633 1.53503 12.378 1.60198L14.628 2.91498C14.7944 3.01785 14.914 3.18166 14.9613 3.37148C15.0087 3.56129 14.98 3.76209 14.8813 3.93104C14.7827 4.09998 14.622 4.22371 14.4334 4.27582C14.2448 4.32793 14.0434 4.3043 13.872 4.20998L12 3.11798L10.128 4.20998C10.0429 4.26261 9.94806 4.29767 9.84917 4.31309C9.75028 4.32851 9.6493 4.32398 9.55218 4.29976C9.45507 4.27555 9.36378 4.23214 9.2837 4.1721C9.20362 4.11206 9.13637 4.0366 9.08591 3.95016C9.03545 3.86372 9.0028 3.76806 8.98989 3.66881C8.97697 3.56956 8.98406 3.46873 9.01072 3.37226C9.03738 3.27579 9.08308 3.18563 9.14513 3.10709C9.20718 3.02856 9.28431 2.96324 9.372 2.91498L11.622 1.60198ZM5.898 5.80998C5.99799 5.98174 6.02571 6.18616 5.97509 6.37835C5.92446 6.57053 5.79963 6.73477 5.628 6.83498L4.488 7.49998L5.628 8.16498C5.71568 8.21324 5.79282 8.27856 5.85487 8.35709C5.91692 8.43563 5.96262 8.52578 5.98928 8.62226C6.01594 8.71873 6.02303 8.81956 6.01011 8.91881C5.9972 9.01806 5.96455 9.11373 5.91409 9.20016C5.86363 9.2866 5.79638 9.36206 5.7163 9.4221C5.63622 9.48214 5.54493 9.52555 5.44782 9.54976C5.3507 9.57398 5.24972 9.57851 5.15083 9.56309C5.05194 9.54767 4.95713 9.51261 4.872 9.45998L3.75 8.80598V9.74998C3.75 9.94889 3.67098 10.1397 3.53033 10.2803C3.38968 10.421 3.19891 10.5 3 10.5C2.80109 10.5 2.61032 10.421 2.46967 10.2803C2.32902 10.1397 2.25 9.94889 2.25 9.74998V7.49998C2.24996 7.36888 2.28429 7.24005 2.34956 7.12636C2.41483 7.01266 2.50877 6.91805 2.622 6.85198L4.872 5.53998C4.95709 5.49031 5.05113 5.4579 5.14875 5.44459C5.24637 5.43128 5.34566 5.43734 5.44094 5.46241C5.53622 5.48748 5.62562 5.53108 5.70405 5.59072C5.78247 5.65036 5.84838 5.72486 5.898 5.80998ZM18.102 5.80998C18.1516 5.72486 18.2175 5.65036 18.296 5.59072C18.3744 5.53108 18.4638 5.48748 18.5591 5.46241C18.6543 5.43734 18.7536 5.43128 18.8512 5.44459C18.9489 5.4579 19.0429 5.49031 19.128 5.53998L21.378 6.85198C21.4912 6.91805 21.5852 7.01266 21.6504 7.12636C21.7157 7.24005 21.75 7.36888 21.75 7.49998V9.74998C21.75 9.94889 21.671 10.1397 21.5303 10.2803C21.3897 10.421 21.1989 10.5 21 10.5C20.8011 10.5 20.6103 10.421 20.4697 10.2803C20.329 10.1397 20.25 9.94889 20.25 9.74998V8.80598L19.128 9.45998C19.0429 9.51261 18.9481 9.54767 18.8492 9.56309C18.7503 9.57851 18.6493 9.57398 18.5522 9.54976C18.4551 9.52555 18.3638 9.48214 18.2837 9.4221C18.2036 9.36206 18.1364 9.2866 18.0859 9.20016C18.0355 9.11373 18.0028 9.01806 17.9899 8.91881C17.977 8.81956 17.9841 8.71873 18.0107 8.62226C18.0374 8.52578 18.0831 8.43563 18.1451 8.35709C18.2072 8.27856 18.2843 8.21324 18.372 8.16498L19.512 7.49998L18.372 6.83498C18.2004 6.73477 18.0755 6.57053 18.0249 6.37835C17.9743 6.18616 18.002 5.98174 18.102 5.80998ZM9.102 11.06C9.15162 10.9749 9.21753 10.9004 9.29595 10.8407C9.37437 10.7811 9.46378 10.7375 9.55906 10.7124C9.65434 10.6873 9.75363 10.6813 9.85125 10.6946C9.94887 10.7079 10.0429 10.7403 10.128 10.79L12 11.882L13.872 10.79C13.9571 10.7373 14.0519 10.7023 14.1508 10.6869C14.2497 10.6714 14.3507 10.676 14.4478 10.7002C14.5449 10.7244 14.6362 10.7678 14.7163 10.8279C14.7964 10.8879 14.8636 10.9634 14.9141 11.0498C14.9645 11.1362 14.9972 11.2319 15.0101 11.3311C15.023 11.4304 15.0159 11.5312 14.9893 11.6277C14.9626 11.7242 14.9169 11.8143 14.8549 11.8929C14.7928 11.9714 14.7157 12.0367 14.628 12.085L12.75 13.181V15C12.75 15.1989 12.671 15.3897 12.5303 15.5303C12.3897 15.671 12.1989 15.75 12 15.75C11.8011 15.75 11.6103 15.671 11.4697 15.5303C11.329 15.3897 11.25 15.1989 11.25 15V13.18L9.372 12.085C9.20037 11.9848 9.07554 11.8205 9.02491 11.6283C8.97429 11.4362 9.00201 11.2317 9.102 11.06ZM3 13.5C3.19891 13.5 3.38968 13.579 3.53033 13.7196C3.67098 13.8603 3.75 14.0511 3.75 14.25V16.07L5.628 17.165C5.71568 17.2132 5.79282 17.2786 5.85487 17.3571C5.91692 17.4356 5.96262 17.5258 5.98928 17.6223C6.01594 17.7187 6.02303 17.8196 6.01011 17.9188C5.9972 18.0181 5.96455 18.1137 5.91409 18.2002C5.86363 18.2866 5.79638 18.3621 5.7163 18.4221C5.63622 18.4821 5.54493 18.5255 5.44782 18.5498C5.3507 18.574 5.24972 18.5785 5.15083 18.5631C5.05194 18.5477 4.95713 18.5126 4.872 18.46L2.622 17.148C2.50877 17.0819 2.41483 16.9873 2.34956 16.8736C2.28429 16.7599 2.24996 16.6311 2.25 16.5V14.25C2.25 14.0511 2.32902 13.8603 2.46967 13.7196C2.61032 13.579 2.80109 13.5 3 13.5ZM21 13.5C21.1989 13.5 21.3897 13.579 21.5303 13.7196C21.671 13.8603 21.75 14.0511 21.75 14.25V16.5C21.75 16.6311 21.7157 16.7599 21.6504 16.8736C21.5852 16.9873 21.4912 17.0819 21.378 17.148L19.128 18.46C19.0429 18.5126 18.9481 18.5477 18.8492 18.5631C18.7503 18.5785 18.6493 18.574 18.5522 18.5498C18.4551 18.5255 18.3638 18.4821 18.2837 18.4221C18.2036 18.3621 18.1364 18.2866 18.0859 18.2002C18.0355 18.1137 18.0028 18.0181 17.9899 17.9188C17.977 17.8196 17.9841 17.7187 18.0107 17.6223C18.0374 17.5258 18.0831 17.4356 18.1451 17.3571C18.2072 17.2786 18.2843 17.2132 18.372 17.165L20.25 16.069V14.25C20.25 14.0511 20.329 13.8603 20.4697 13.7196C20.6103 13.579 20.8011 13.5 21 13.5ZM12 18.75C12.1989 18.75 12.3897 18.829 12.5303 18.9696C12.671 19.1103 12.75 19.3011 12.75 19.5V20.444L13.872 19.79C13.9571 19.7373 14.0519 19.7023 14.1508 19.6869C14.2497 19.6715 14.3507 19.676 14.4478 19.7002C14.5449 19.7244 14.6362 19.7678 14.7163 19.8279C14.7964 19.8879 14.8636 19.9634 14.9141 20.0498C14.9645 20.1362 14.9972 20.2319 15.0101 20.3311C15.023 20.4304 15.0159 20.5312 14.9893 20.6277C14.9626 20.7242 14.9169 20.8143 14.8549 20.8929C14.7928 20.9714 14.7157 21.0367 14.628 21.085L12.378 22.398C12.2633 22.4649 12.1328 22.5002 12 22.5002C11.8672 22.5002 11.7367 22.4649 11.622 22.398L9.372 21.085C9.28431 21.0367 9.20718 20.9714 9.14513 20.8929C9.08308 20.8143 9.03738 20.7242 9.01072 20.6277C8.98406 20.5312 8.97697 20.4304 8.98989 20.3311C9.0028 20.2319 9.03545 20.1362 9.08591 20.0498C9.13637 19.9634 9.20362 19.8879 9.2837 19.8279C9.36378 19.7678 9.45507 19.7244 9.55218 19.7002C9.6493 19.676 9.75028 19.6715 9.84917 19.6869C9.94806 19.7023 10.0429 19.7373 10.128 19.79L11.25 20.444V19.5C11.25 19.3011 11.329 19.1103 11.4697 18.9696C11.6103 18.829 11.8011 18.75 12 18.75Z" fill="white" fill-opacity="0.8"/>
</svg>
