<svg width="49" height="48" viewBox="0 0 49 48" fill="none" xmlns="http://www.w3.org/2000/svg">
<path fill-rule="evenodd" clip-rule="evenodd" d="M8.5 27C8.5 25.8954 9.39543 25 10.5 25H20.5C21.6046 25 22.5 25.8954 22.5 27V37C22.5 38.1046 21.6046 39 20.5 39H10.5C9.39543 39 8.5 38.1046 8.5 37V27ZM12.5 29V35H18.5V29H12.5Z" fill="#B51749"/>
<path fill-rule="evenodd" clip-rule="evenodd" d="M32.5 28C30.2909 28 28.5 29.7909 28.5 32C28.5 34.2091 30.2909 36 32.5 36C34.7091 36 36.5 34.2091 36.5 32C36.5 29.7909 34.7091 28 32.5 28ZM24.5 32C24.5 27.5817 28.0817 24 32.5 24C36.9183 24 40.5 27.5817 40.5 32C40.5 36.4183 36.9183 40 32.5 40C28.0817 40 24.5 36.4183 24.5 32Z" fill="#B51749"/>
<path fill-rule="evenodd" clip-rule="evenodd" d="M24.5 8C25.2025 8 25.8535 8.3686 26.215 8.97101L32.215 18.971C32.5857 19.5889 32.5954 20.3584 32.2404 20.9854C31.8854 21.6124 31.2205 22 30.5 22H18.5C17.7795 22 17.1146 21.6124 16.7596 20.9854C16.4046 20.3584 16.4143 19.5889 16.785 18.971L22.785 8.97101C23.1465 8.3686 23.7975 8 24.5 8ZM22.0324 18H26.9676L24.5 13.8873L22.0324 18Z" fill="#B51749"/>
</svg>
