<svg width="28" height="28" viewBox="0 0 28 28" fill="none" xmlns="http://www.w3.org/2000/svg">
<g clip-path="url(#clip0_14275_936)">
<path fill-rule="evenodd" clip-rule="evenodd" d="M7.72388 0.889059C7.97393 0.639011 8.31307 0.498535 8.66669 0.498535H19.3334C19.687 0.498535 20.0261 0.639011 20.2762 0.889059L26.9428 7.55573C27.1929 7.80577 27.3334 8.14491 27.3334 8.49854V19.1652C27.3334 19.5188 27.1929 19.858 26.9428 20.108L20.2762 26.7747C20.0261 27.0247 19.687 27.1652 19.3334 27.1652H8.66669C8.31307 27.1652 7.97393 27.0247 7.72388 26.7747L1.05721 20.108C0.807163 19.858 0.666687 19.5188 0.666687 19.1652V8.49854C0.666687 8.14491 0.807163 7.80577 1.05721 7.55573L7.72388 0.889059ZM9.21897 3.1652L3.33335 9.05082V18.6129L9.21897 24.4985H18.7811L24.6667 18.6129V9.05082L18.7811 3.1652H9.21897Z" fill="#323232"/>
</g>
<defs>
<clipPath id="clip0_14275_936">
<rect width="26.6667" height="26.6667" fill="white" transform="translate(0.666687 0.498535)"/>
</clipPath>
</defs>
</svg>
