<svg width="45" height="45" viewBox="0 0 45 45" fill="none" xmlns="http://www.w3.org/2000/svg">
<rect x="0.5" y="0.5" width="44" height="44" rx="22" fill="#FBE4EB"/>
<g clip-path="url(#clip0_4028_75555)">
<path fill-rule="evenodd" clip-rule="evenodd" d="M22.5 12.5C20.567 12.5 19 14.067 19 16C19 17.933 20.567 19.5 22.5 19.5C24.433 19.5 26 17.933 26 16C26 14.067 24.433 12.5 22.5 12.5ZM21 16C21 15.1716 21.6716 14.5 22.5 14.5C23.3284 14.5 24 15.1716 24 16C24 16.8284 23.3284 17.5 22.5 17.5C21.6716 17.5 21 16.8284 21 16Z" fill="#B51749"/>
<path fill-rule="evenodd" clip-rule="evenodd" d="M29 14.5C27.6193 14.5 26.5 15.6193 26.5 17C26.5 18.3807 27.6193 19.5 29 19.5C30.3807 19.5 31.5 18.3807 31.5 17C31.5 15.6193 30.3807 14.5 29 14.5ZM28.5 17C28.5 16.7239 28.7239 16.5 29 16.5C29.2761 16.5 29.5 16.7239 29.5 17C29.5 17.2761 29.2761 17.5 29 17.5C28.7239 17.5 28.5 17.2761 28.5 17Z" fill="#B51749"/>
<path fill-rule="evenodd" clip-rule="evenodd" d="M18.5 17C18.5 15.6193 17.3807 14.5 16 14.5C14.6193 14.5 13.5 15.6193 13.5 17C13.5 18.3807 14.6193 19.5 16 19.5C17.3807 19.5 18.5 18.3807 18.5 17ZM16 16.5C16.2761 16.5 16.5 16.7239 16.5 17C16.5 17.2761 16.2761 17.5 16 17.5C15.7239 17.5 15.5 17.2761 15.5 17C15.5 16.7239 15.7239 16.5 16 16.5Z" fill="#B51749"/>
<path fill-rule="evenodd" clip-rule="evenodd" d="M20.5 20.5C18.8431 20.5 17.5 21.8431 17.5 23.5V25.882C17.5 26.6395 17.928 27.332 18.6056 27.6708L19.5 28.118V31.5C19.5 32.0523 19.9477 32.5 20.5 32.5H24.5C25.0523 32.5 25.5 32.0523 25.5 31.5V28.118L26.3944 27.6708C27.072 27.332 27.5 26.6395 27.5 25.882V23.5C27.5 21.8431 26.1569 20.5 24.5 20.5H20.5ZM19.5 23.5C19.5 22.9477 19.9477 22.5 20.5 22.5H24.5C25.0523 22.5 25.5 22.9477 25.5 23.5V25.882L24.0528 26.6056C23.714 26.775 23.5 27.1212 23.5 27.5V30.5H21.5V27.5C21.5 27.1212 21.286 26.775 20.9472 26.6056L19.5 25.882V23.5Z" fill="#B51749"/>
<path d="M28.5 21.5C28.5 20.9477 28.9477 20.5 29.5 20.5H30.5C31.6046 20.5 32.5 21.3954 32.5 22.5V25.882C32.5 26.6395 32.072 27.332 31.3944 27.6708L30.5 28.118V31.5C30.5 32.0523 30.0523 32.5 29.5 32.5H27.5C26.9477 32.5 26.5 32.0523 26.5 31.5C26.5 30.9477 26.9477 30.5 27.5 30.5H28.5V27.5C28.5 27.1212 28.714 26.775 29.0528 26.6056L30.5 25.882V22.5H29.5C28.9477 22.5 28.5 22.0523 28.5 21.5Z" fill="#B51749"/>
<path d="M15.5 20.5C16.0523 20.5 16.5 20.9477 16.5 21.5C16.5 22.0523 16.0523 22.5 15.5 22.5H14.5V25.882L15.9472 26.6056C16.286 26.775 16.5 27.1212 16.5 27.5V30.5H17.5C18.0523 30.5 18.5 30.9477 18.5 31.5C18.5 32.0523 18.0523 32.5 17.5 32.5H15.5C14.9477 32.5 14.5 32.0523 14.5 31.5V28.118L13.6056 27.6708C12.928 27.332 12.5 26.6395 12.5 25.882V22.5C12.5 21.3954 13.3954 20.5 14.5 20.5H15.5Z" fill="#B51749"/>
</g>
<defs>
<clipPath id="clip0_4028_75555">
<rect width="20" height="20" fill="white" transform="translate(12.5 12.5)"/>
</clipPath>
</defs>
</svg>
