<svg width="20" height="20" viewBox="0 0 20 20" fill="none" xmlns="http://www.w3.org/2000/svg">
<path fill-rule="evenodd" clip-rule="evenodd" d="M0 4C0 1.79064 1.7916 0 4.00051 0H16C16.5523 0 17 0.447715 17 1V4H18C18.5523 4 19 4.44772 19 5V8C19.5523 8 20 8.44772 20 9V14C20 14.5523 19.5523 15 19 15V16C19 18.2091 17.2091 20 15 20H4C1.79086 20 0 18.2091 0 16V4ZM2 4C2 2.89565 2.89572 2 4.00051 2H15V4H2ZM2 6V16C2 17.1046 2.89543 18 4 18H15C16.1046 18 17 17.1046 17 16V15H15.5C13.567 15 12 13.433 12 11.5C12 9.567 13.567 8 15.5 8H17V6H2ZM15.5 10H18V13H15.5C14.6716 13 14 12.3284 14 11.5C14 10.6716 14.6716 10 15.5 10Z" fill="#7D7D7D"/>
</svg>
