<svg width="40" height="41" viewBox="0 0 40 41" fill="none" xmlns="http://www.w3.org/2000/svg">
<rect y="0.5" width="40" height="40" rx="20" fill="#1595DD"/>
<path d="M17 11C14.38 11 12.25 13.13 12.25 15.75C12.25 18.32 14.26 20.4 16.88 20.49C16.96 20.48 17.04 20.48 17.1 20.49C17.12 20.49 17.13 20.49 17.15 20.49C17.16 20.49 17.16 20.49 17.17 20.49C19.73 20.4 21.74 18.32 21.75 15.75C21.75 13.13 19.62 11 17 11Z" fill="#080604"/>
<path d="M22.08 23.1499C19.29 21.2899 14.74 21.2899 11.93 23.1499C10.66 23.9999 9.95996 25.1499 9.95996 26.3799C9.95996 27.6099 10.66 28.7499 11.92 29.5899C13.32 30.5299 15.16 30.9999 17 30.9999C18.84 30.9999 20.68 30.5299 22.08 29.5899C23.34 28.7399 24.04 27.5999 24.04 26.3599C24.03 25.1299 23.34 23.9899 22.08 23.1499Z" fill="#080604"/>
<path d="M27.9901 16.3401C28.1501 18.2801 26.7701 19.9801 24.8601 20.2101C24.8501 20.2101 24.8501 20.2101 24.8401 20.2101H24.8101C24.7501 20.2101 24.6901 20.2101 24.6401 20.2301C23.6701 20.2801 22.7801 19.9701 22.1101 19.4001C23.1401 18.4801 23.7301 17.1001 23.6101 15.6001C23.5401 14.7901 23.2601 14.0501 22.8401 13.4201C23.2201 13.2301 23.6601 13.1101 24.1101 13.0701C26.0701 12.9001 27.8201 14.3601 27.9901 16.3401Z" fill="#080604"/>
<path d="M29.99 25.5904C29.91 26.5604 29.29 27.4004 28.25 27.9704C27.25 28.5204 25.99 28.7804 24.74 28.7504C25.46 28.1004 25.88 27.2904 25.96 26.4304C26.06 25.1904 25.47 24.0004 24.29 23.0504C23.62 22.5204 22.84 22.1004 21.99 21.7904C24.2 21.1504 26.98 21.5804 28.69 22.9604C29.61 23.7004 30.08 24.6304 29.99 25.5904Z" fill="#080604"/>
</svg>
