<svg width="40" height="40" viewBox="0 0 40 40" fill="none" xmlns="http://www.w3.org/2000/svg">
<path d="M33.625 11.4844H28.3516L25.1953 8.29687C25.1953 8.29687 25.1797 8.28125 25.1719 8.28125L25.1562 8.26563C24.6875 7.79688 24.0547 7.5 23.3359 7.5H16.7734C16.0078 7.5 15.3281 7.82813 14.8516 8.35156V8.35938L11.7656 11.4844H6.375C4.92187 11.4844 3.75 12.625 3.75 14.0781V29.8672C3.75 31.3203 4.92187 32.5 6.375 32.5H33.625C35.0703 32.5 36.25 31.3203 36.25 29.8672V14.0781C36.25 12.625 35.0703 11.4844 33.625 11.4844ZM20 28.5547C16.0234 28.5547 12.7812 25.3047 12.7812 21.3203C12.7812 17.3281 16.0234 14.0859 20 14.0859C23.9844 14.0859 27.2188 17.3281 27.2188 21.3203C27.2188 25.3047 23.9844 28.5547 20 28.5547ZM33.1328 15.6641C32.5312 15.6641 32.0391 15.1719 32.0391 14.5625C32.0391 13.9531 32.5312 13.4609 33.1328 13.4609C33.7344 13.4609 34.2266 13.9531 34.2266 14.5625C34.2266 15.1719 33.7344 15.6641 33.1328 15.6641Z" fill="#fff" fill-opacity="0.5"/>
<path d="M20 15.8516C16.9844 15.8516 14.5469 18.2969 14.5469 21.3203C14.5469 24.3359 16.9844 26.7891 20 26.7891C23.0078 26.7891 25.4531 24.3438 25.4531 21.3203C25.4531 18.2969 23.0078 15.8516 20 15.8516Z" fill="#fff" fill-opacity="0.5"/>
</svg>
