<svg width="30" height="30" viewBox="0 0 30 30" fill="none" xmlns="http://www.w3.org/2000/svg">
<circle cx="15" cy="15" r="15" fill="#4E4E4E"/>
<g clip-path="url(#clip0_2814_14300)">
<path d="M23.125 9.0625H6.875C6.46123 9.06455 6.065 9.22983 5.77241 9.52241C5.47983 9.815 5.31455 10.2112 5.3125 10.625V19.375C5.31455 19.7888 5.47983 20.185 5.77241 20.4776C6.065 20.7702 6.46123 20.9354 6.875 20.9375H23.125C23.5388 20.9354 23.935 20.7702 24.2276 20.4776C24.5202 20.185 24.6854 19.7888 24.6875 19.375V10.625C24.6854 10.2112 24.5202 9.815 24.2276 9.52241C23.935 9.22983 23.5388 9.06455 23.125 9.0625ZM12.2344 19.0625L7.66406 15L12.2344 10.9375H17.7656L22.3359 15L17.7656 19.0625H12.2344ZM22.8125 12.9141L20.5938 10.9375H22.8125V12.9141ZM9.40625 10.9375L7.1875 12.9141V10.9375H9.40625ZM7.1875 17.0859L9.40625 19.0625H7.1875V17.0859ZM20.5938 19.0625L22.8125 17.0859V19.0625H20.5938ZM15 11.875C14.3819 11.875 13.7777 12.0583 13.2638 12.4017C12.7499 12.745 12.3494 13.2331 12.1129 13.8041C11.8764 14.3751 11.8145 15.0035 11.935 15.6097C12.0556 16.2158 12.3533 16.7727 12.7903 17.2097C13.2273 17.6467 13.7842 17.9444 14.3903 18.065C14.9965 18.1855 15.6249 18.1236 16.1959 17.8871C16.7669 17.6506 17.255 17.2501 17.5983 16.7362C17.9417 16.2223 18.125 15.6181 18.125 15C18.125 14.1712 17.7958 13.3763 17.2097 12.7903C16.6237 12.2042 15.8288 11.875 15 11.875ZM15 16.25C14.7528 16.25 14.5111 16.1767 14.3055 16.0393C14.1 15.902 13.9398 15.7068 13.8451 15.4784C13.7505 15.2499 13.7258 14.9986 13.774 14.7561C13.8222 14.5137 13.9413 14.2909 14.1161 14.1161C14.2909 13.9413 14.5137 13.8222 14.7561 13.774C14.9986 13.7258 15.2499 13.7505 15.4784 13.8452C15.7068 13.9398 15.902 14.1 16.0393 14.3055C16.1767 14.5111 16.25 14.7528 16.25 15C16.25 15.3315 16.1183 15.6495 15.8839 15.8839C15.6495 16.1183 15.3315 16.25 15 16.25Z" fill="white"/>
</g>
<defs>
<clipPath id="clip0_2814_14300">
<rect width="20" height="20" fill="white" transform="translate(8 5)"/>
</clipPath>
</defs>
</svg>
