<svg width="28" height="26" viewBox="0 0 28 26" fill="none" xmlns="http://www.w3.org/2000/svg">
<path d="M8.47582 14.8969L12.485 10.8878L3.71582 2.13276C3.03582 1.45276 1.85998 1.63693 1.43498 2.51526C0.429151 4.6261 0.797484 7.2186 2.53998 8.97526L8.47582 14.8969ZM18.0808 12.3328C20.2483 13.3386 23.2941 12.6303 25.5466 10.3778C28.2525 7.67193 28.7766 3.79026 26.6941 1.70776C24.6258 -0.36057 20.7442 0.14943 18.0241 2.85526C15.7716 5.10776 15.0633 8.1536 16.0691 10.3211L3.23415 23.1561C2.96927 23.421 2.82045 23.7802 2.82045 24.1548C2.82045 24.5295 2.96927 24.8887 3.23415 25.1536C3.49904 25.4185 3.8583 25.5673 4.2329 25.5673C4.6075 25.5673 4.96677 25.4185 5.23165 25.1536L14.0008 16.4128L22.7558 25.1678C22.887 25.2989 23.0427 25.403 23.214 25.4739C23.3854 25.5449 23.5691 25.5815 23.7546 25.5815C23.9401 25.5815 24.1237 25.5449 24.2951 25.4739C24.4664 25.403 24.6222 25.2989 24.7533 25.1678C24.8845 25.0366 24.9885 24.8809 25.0595 24.7095C25.1305 24.5382 25.167 24.3545 25.167 24.169C25.167 23.9835 25.1305 23.7999 25.0595 23.6285C24.9885 23.4571 24.8845 23.3014 24.7533 23.1703L15.9983 14.4153L18.0808 12.3328Z" fill="#F7F9FC"/>
</svg>
