<svg width="40" height="40" viewBox="0 0 40 40" fill="none" xmlns="http://www.w3.org/2000/svg">
<rect width="40" height="40" rx="20" fill="#31A82F"/>
<path d="M25 10.9297H15C12 10.9297 10 12.9297 10 15.9297V21.9297C10 24.9297 12 26.9297 15 26.9297V29.0597C15 29.8597 15.89 30.3397 16.55 29.8897L21 26.9297H25C28 26.9297 30 24.9297 30 21.9297V15.9297C30 12.9297 28 10.9297 25 10.9297ZM20 23.0997C19.58 23.0997 19.25 22.7597 19.25 22.3497C19.25 21.9397 19.58 21.5997 20 21.5997C20.42 21.5997 20.75 21.9397 20.75 22.3497C20.75 22.7597 20.42 23.0997 20 23.0997ZM21.26 18.9497C20.87 19.2097 20.75 19.3797 20.75 19.6597V19.8697C20.75 20.2797 20.41 20.6197 20 20.6197C19.59 20.6197 19.25 20.2797 19.25 19.8697V19.6597C19.25 18.4997 20.1 17.9297 20.42 17.7097C20.79 17.4597 20.91 17.2897 20.91 17.0297C20.91 16.5297 20.5 16.1197 20 16.1197C19.5 16.1197 19.09 16.5297 19.09 17.0297C19.09 17.4397 18.75 17.7797 18.34 17.7797C17.93 17.7797 17.59 17.4397 17.59 17.0297C17.59 15.6997 18.67 14.6197 20 14.6197C21.33 14.6197 22.41 15.6997 22.41 17.0297C22.41 18.1697 21.57 18.7397 21.26 18.9497Z" fill="#080604"/>
</svg>
