<svg width="34" height="16" viewBox="0 0 34 16" fill="none" xmlns="http://www.w3.org/2000/svg">
<path d="M10.4827 0.914062H6.51602C6.29058 0.914062 6.07438 1.00362 5.91497 1.16302C5.75557 1.32243 5.66602 1.53863 5.66602 1.76406V14.2307C5.66602 14.3424 5.688 14.4529 5.73072 14.556C5.77343 14.6591 5.83605 14.7528 5.91497 14.8318C5.9939 14.9107 6.08761 14.9733 6.19073 15.016C6.29386 15.0587 6.40439 15.0807 6.51602 15.0807H10.4827C10.5943 15.0807 10.7048 15.0587 10.808 15.016C10.9111 14.9733 11.0048 14.9107 11.0837 14.8318C11.1627 14.7528 11.2253 14.6591 11.268 14.556C11.3107 14.4529 11.3327 14.3424 11.3327 14.2307V1.76406C11.3327 1.53863 11.2431 1.32243 11.0837 1.16302C10.9243 1.00362 10.7081 0.914063 10.4827 0.914062ZM27.4827 0.914062H23.516C23.2906 0.914062 23.0744 1.00362 22.915 1.16302C22.7556 1.32243 22.666 1.53863 22.666 1.76406V14.2307C22.666 14.3424 22.688 14.4529 22.7307 14.556C22.7734 14.6591 22.836 14.7528 22.915 14.8318C22.9939 14.9107 23.0876 14.9733 23.1907 15.016C23.2939 15.0587 23.4044 15.0807 23.516 15.0807H27.4827C27.5943 15.0807 27.7048 15.0587 27.808 15.016C27.9111 14.9733 28.0048 14.9107 28.0837 14.8318C28.1627 14.7528 28.2253 14.6591 28.268 14.556C28.3107 14.4529 28.3327 14.3424 28.3327 14.2307V1.76406C28.3327 1.53863 28.2431 1.32243 28.0837 1.16302C27.9243 1.00362 27.7081 0.914063 27.4827 0.914062Z" fill="#F7F9FC" stroke="#F7F9FC" stroke-width="1.5" stroke-linecap="round" stroke-linejoin="round"/>
<path d="M1.41602 11.4V4.6C1.41602 4.37457 1.50557 4.15836 1.66497 3.99896C1.82438 3.83955 2.04058 3.75 2.26602 3.75H4.81602C5.04145 3.75 5.25765 3.83955 5.41706 3.99896C5.57646 4.15836 5.66602 4.37457 5.66602 4.6V11.4C5.66602 11.6254 5.57646 11.8416 5.41706 12.001C5.25765 12.1604 5.04145 12.25 4.81602 12.25H2.26602C2.04058 12.25 1.82438 12.1604 1.66497 12.001C1.50557 11.8416 1.41602 11.6254 1.41602 11.4ZM32.5827 11.4V4.6C32.5827 4.37457 32.4931 4.15836 32.3337 3.99896C32.1743 3.83955 31.9581 3.75 31.7327 3.75H29.1827C28.9572 3.75 28.741 3.83955 28.5816 3.99896C28.4222 4.15836 28.3327 4.37457 28.3327 4.6V11.4C28.3327 11.6254 28.4222 11.8416 28.5816 12.001C28.741 12.1604 28.9572 12.25 29.1827 12.25H31.7327C31.9581 12.25 32.1743 12.1604 32.3337 12.001C32.4931 11.8416 32.5827 11.6254 32.5827 11.4ZM11.3327 8H22.666H11.3327Z" fill="#F7F9FC"/>
<path d="M11.3327 8H22.666M1.41602 11.4V4.6C1.41602 4.37457 1.50557 4.15836 1.66497 3.99896C1.82438 3.83955 2.04058 3.75 2.26602 3.75H4.81602C5.04145 3.75 5.25765 3.83955 5.41706 3.99896C5.57646 4.15836 5.66602 4.37457 5.66602 4.6V11.4C5.66602 11.6254 5.57646 11.8416 5.41706 12.001C5.25765 12.1604 5.04145 12.25 4.81602 12.25H2.26602C2.04058 12.25 1.82438 12.1604 1.66497 12.001C1.50557 11.8416 1.41602 11.6254 1.41602 11.4V11.4ZM32.5827 11.4V4.6C32.5827 4.37457 32.4931 4.15836 32.3337 3.99896C32.1743 3.83955 31.9581 3.75 31.7327 3.75H29.1827C28.9572 3.75 28.741 3.83955 28.5816 3.99896C28.4222 4.15836 28.3327 4.37457 28.3327 4.6V11.4C28.3327 11.6254 28.4222 11.8416 28.5816 12.001C28.741 12.1604 28.9572 12.25 29.1827 12.25H31.7327C31.9581 12.25 32.1743 12.1604 32.3337 12.001C32.4931 11.8416 32.5827 11.6254 32.5827 11.4V11.4Z" stroke="#F7F9FC" stroke-width="1.5" stroke-linecap="round" stroke-linejoin="round"/>
</svg>
