<svg width="30" height="30" viewBox="0 0 30 30" fill="none" xmlns="http://www.w3.org/2000/svg">
<circle cx="15" cy="15" r="15" fill="#4E4E4E"/>
<path d="M23.0938 18.6796C22.9555 19.7346 22.4389 20.7036 21.64 21.4063C20.841 22.1089 19.814 22.4976 18.75 22.4999C12.5469 22.4999 7.5 17.4531 7.5 11.2499C7.50235 10.1859 7.891 9.15896 8.59369 8.35999C9.29638 7.56102 10.2653 7.0444 11.3203 6.9062C11.5893 6.87638 11.8607 6.933 12.0953 7.06785C12.3299 7.20271 12.5154 7.40878 12.625 7.6562L14.1953 11.3203C14.2768 11.5104 14.3094 11.718 14.2903 11.924C14.2712 12.13 14.201 12.328 14.0859 12.4999L12.7891 14.4843C13.3763 15.6761 14.3439 16.6382 15.5391 17.2187L17.5 15.914C17.6718 15.7982 17.8703 15.7281 18.0767 15.7103C18.2831 15.6926 18.4906 15.7277 18.6797 15.8124L22.3438 17.3749C22.5912 17.4845 22.7972 17.6701 22.9321 17.9046C23.0669 18.1392 23.1236 18.4107 23.0938 18.6796ZM17.2969 8.72651C18.2482 8.98642 19.1153 9.48989 19.8127 10.1872C20.5101 10.8846 21.0135 11.7517 21.2734 12.7031C21.3079 12.8366 21.3856 12.955 21.4944 13.0398C21.6032 13.1246 21.7371 13.171 21.875 13.1718C21.9305 13.1717 21.9857 13.1638 22.0391 13.1484C22.1185 13.1276 22.193 13.0912 22.2582 13.0412C22.3234 12.9913 22.378 12.9288 22.4187 12.8575C22.4594 12.7862 22.4856 12.7075 22.4955 12.626C22.5054 12.5444 22.499 12.4618 22.4766 12.3828C22.1641 11.2177 21.5506 10.1553 20.6976 9.30234C19.8446 8.44939 18.7823 7.83586 17.6172 7.52338C17.5357 7.49368 17.4488 7.48128 17.3623 7.48697C17.2757 7.49266 17.1912 7.51632 17.1143 7.55643C17.0374 7.59655 16.9696 7.65224 16.9154 7.71997C16.8611 7.7877 16.8216 7.86598 16.7993 7.94983C16.777 8.03368 16.7723 8.12126 16.7857 8.20699C16.7991 8.29272 16.8302 8.37472 16.877 8.44778C16.9238 8.52084 16.9853 8.58336 17.0576 8.63134C17.1299 8.67933 17.2114 8.71174 17.2969 8.72651ZM16.6484 11.1406C17.1773 11.2853 17.6592 11.5653 18.0469 11.953C18.4346 12.3407 18.7146 12.8227 18.8594 13.3515C18.8926 13.4857 18.97 13.6049 19.0791 13.6899C19.1882 13.7749 19.3226 13.8208 19.4609 13.8203C19.5139 13.8208 19.5667 13.8129 19.6172 13.7968C19.6973 13.7769 19.7727 13.7411 19.8387 13.6915C19.9048 13.6419 19.9602 13.5796 20.0018 13.5082C20.0433 13.4368 20.0701 13.3578 20.0805 13.2758C20.0909 13.1939 20.0848 13.1107 20.0625 13.0312C19.8652 12.2886 19.4751 11.6114 18.9319 11.0681C18.3886 10.5248 17.7113 10.1347 16.9688 9.93745C16.8872 9.90774 16.8004 9.89534 16.7138 9.90103C16.6272 9.90672 16.5428 9.93038 16.4659 9.9705C16.3889 10.0106 16.3212 10.0663 16.2669 10.134C16.2127 10.2018 16.1732 10.28 16.1509 10.3639C16.1285 10.4477 16.1239 10.5353 16.1373 10.621C16.1507 10.7068 16.1817 10.7888 16.2286 10.8618C16.2754 10.9349 16.3369 10.9974 16.4092 11.0454C16.4814 11.0934 16.5629 11.1258 16.6484 11.1406Z" fill="white"/>
</svg>
