<svg width="30" height="30" viewBox="0 0 30 30" fill="none" xmlns="http://www.w3.org/2000/svg">
<circle cx="15" cy="15" r="15" fill="#4E4E4E"/>
<path d="M6.66602 20.8307C6.66602 22.2474 7.74935 23.3307 9.16602 23.3307H20.8327C22.2493 23.3307 23.3327 22.2474 23.3327 20.8307V14.1641H6.66602V20.8307ZM20.8327 8.33073H19.166V7.4974C19.166 6.9974 18.8327 6.66406 18.3327 6.66406C17.8327 6.66406 17.4993 6.9974 17.4993 7.4974V8.33073H12.4993V7.4974C12.4993 6.9974 12.166 6.66406 11.666 6.66406C11.166 6.66406 10.8327 6.9974 10.8327 7.4974V8.33073H9.16602C7.74935 8.33073 6.66602 9.41406 6.66602 10.8307V12.4974H23.3327V10.8307C23.3327 9.41406 22.2493 8.33073 20.8327 8.33073Z" fill="white"/>
</svg>
