<svg width="56" height="56" viewBox="0 0 56 56" fill="none" xmlns="http://www.w3.org/2000/svg">
<path d="M40.2267 53.0832H15.7734C9.24002 53.0832 5.08668 49.1865 4.71335 42.6765L3.50002 23.4265C3.31335 20.5098 4.31668 17.7098 6.32335 15.5865C8.30668 13.4632 11.1067 12.2498 14 12.2498C14.7467 12.2498 15.47 11.8065 15.82 11.1065L17.5 7.76984C18.8767 5.03984 22.33 2.9165 25.34 2.9165H30.6834C33.6934 2.9165 37.1234 5.03984 38.5 7.7465L40.18 11.1532C40.53 11.8065 41.23 12.2498 42 12.2498C44.8934 12.2498 47.6934 13.4632 49.6767 15.5865C51.6834 17.7332 52.6867 20.5098 52.5 23.4265L51.2867 42.6998C50.8667 49.3032 46.83 53.0832 40.2267 53.0832ZM25.34 6.4165C23.6134 6.4165 21.42 7.76984 20.6267 9.33317L18.9467 12.6932C17.9667 14.5832 16.0767 15.7498 14 15.7498C12.04 15.7498 10.22 16.5432 8.86668 17.9665C7.53668 19.3898 6.86002 21.2565 7.00002 23.1932L8.21335 42.4665C8.49335 47.1798 11.0367 49.5832 15.7734 49.5832H40.2267C44.94 49.5832 47.4834 47.1798 47.7867 42.4665L49 23.1932C49.1167 21.2565 48.4634 19.3898 47.1334 17.9665C45.78 16.5432 43.96 15.7498 42 15.7498C39.9234 15.7498 38.0334 14.5832 37.0534 12.7398L35.35 9.33317C34.58 7.79317 32.3867 6.43984 30.66 6.43984H25.34V6.4165Z" fill="#292D32"/>
<path d="M31.5 20.4165H24.5C23.5433 20.4165 22.75 19.6232 22.75 18.6665C22.75 17.7098 23.5433 16.9165 24.5 16.9165H31.5C32.4567 16.9165 33.25 17.7098 33.25 18.6665C33.25 19.6232 32.4567 20.4165 31.5 20.4165Z" fill="#292D32"/>
<path d="M28 43.7502C22.8434 43.7502 18.6667 39.5735 18.6667 34.4168C18.6667 29.2602 22.8434 25.0835 28 25.0835C33.1567 25.0835 37.3334 29.2602 37.3334 34.4168C37.3334 39.5735 33.1567 43.7502 28 43.7502ZM28 28.5835C24.78 28.5835 22.1667 31.1968 22.1667 34.4168C22.1667 37.6368 24.78 40.2502 28 40.2502C31.22 40.2502 33.8334 37.6368 33.8334 34.4168C33.8334 31.1968 31.22 28.5835 28 28.5835Z" fill="#292D32"/>
</svg>
