<svg width="30" height="26" viewBox="0 0 30 26" fill="none" xmlns="http://www.w3.org/2000/svg">
<path d="M12.1673 7.33333L7.56315 11.9375C8.00232 12.1075 8.35648 12.32 8.65399 12.49C9.17815 12.8158 9.48982 13 10.2832 13C11.0765 13 11.3882 12.8158 11.9123 12.49C12.564 12.1075 13.4423 11.5833 15.0148 11.5833C16.5873 11.5833 17.4657 12.1075 18.1032 12.49C18.6273 12.8017 18.9532 13 19.7323 13C20.5115 13 20.8373 12.8158 21.3615 12.49C21.5315 12.3908 21.7298 12.2775 21.9423 12.1642L12.8473 3.08333L5.08398 0.25V3.79167L10.7507 5.91667L12.1673 7.33333ZM29.1673 19.375H29.139H29.1673ZM5.57982 17.9583C6.35898 17.9583 6.68482 18.1567 7.20898 18.4683C7.84648 18.8508 8.72482 19.375 10.2973 19.375C11.8698 19.375 12.7482 18.8508 13.3857 18.4683C13.9098 18.1425 14.2215 17.9583 15.0148 17.9583C15.794 17.9583 16.1198 18.1567 16.644 18.4683C17.2815 18.8508 18.1598 19.375 19.7323 19.375C21.3048 19.375 22.1832 18.8508 22.8207 18.4683C23.3448 18.1425 23.6565 17.9583 24.4498 17.9583C25.229 17.9583 25.5548 18.1567 26.079 18.4683C26.7165 18.8508 27.5807 19.3608 29.139 19.375V16.5417C28.3598 16.5417 28.034 16.3433 27.5098 16.0317C26.8723 15.6492 25.994 15.125 24.4215 15.125C22.849 15.125 21.9707 15.6492 21.3332 16.0317C20.809 16.3575 20.4832 16.5417 19.704 16.5417C18.9248 16.5417 18.599 16.3433 18.0748 16.0317C17.4373 15.6492 16.559 15.125 14.9865 15.125C13.414 15.125 12.5357 15.6492 11.8982 16.0317C11.374 16.3575 11.0623 16.5417 10.269 16.5417C9.48982 16.5417 9.16399 16.3433 8.63982 16.0317C8.00232 15.6492 7.12398 15.125 5.55148 15.125C3.97898 15.125 3.10065 15.6492 2.46315 16.0317C1.93898 16.3575 1.62732 16.5417 0.833984 16.5417V19.375C2.40648 19.375 3.28482 18.8508 3.95065 18.4683C4.47482 18.1425 4.80065 17.9583 5.57982 17.9583ZM24.4498 21.5C22.8773 21.5 21.999 22.0242 21.3615 22.4067C20.8373 22.7325 20.5115 22.9167 19.7323 22.9167C18.9532 22.9167 18.6273 22.7183 18.1032 22.4067C17.4657 22.0242 16.5873 21.5 15.0148 21.5C13.4423 21.5 12.564 22.0242 11.9123 22.4067C11.3882 22.7325 11.0765 22.9167 10.2832 22.9167C9.48982 22.9167 9.17815 22.7325 8.65399 22.4067C8.01648 22.0242 7.13815 21.5 5.56565 21.5C3.99315 21.5 3.11482 22.0242 2.46315 22.4067C1.93898 22.7325 1.62732 22.9167 0.833984 22.9167V25.75C2.40648 25.75 3.28482 25.2258 3.93648 24.8433C4.46065 24.5175 4.78648 24.3333 5.56565 24.3333C6.34482 24.3333 6.67065 24.5175 7.19482 24.8433C7.83232 25.2258 8.71065 25.75 10.2832 25.75C11.8557 25.75 12.734 25.2258 13.3857 24.8433C13.9098 24.5175 14.2215 24.3333 15.0148 24.3333C15.794 24.3333 16.1198 24.5317 16.644 24.8433C17.2815 25.2258 18.1598 25.75 19.7323 25.75C21.3048 25.75 22.169 25.2258 22.8207 24.8433C23.3448 24.5175 23.6565 24.3333 24.4498 24.3333C25.229 24.3333 25.5548 24.5317 26.079 24.8433C26.7165 25.2258 27.5948 25.75 29.1673 25.75V22.9167C28.374 22.9167 28.0623 22.7325 27.5382 22.4067C26.9007 22.0242 26.0223 21.5 24.4498 21.5Z" fill="#F7F9FC"/>
<path d="M21.3757 7.33333C23.3317 7.33333 24.9173 5.74768 24.9173 3.79167C24.9173 1.83566 23.3317 0.25 21.3757 0.25C19.4196 0.25 17.834 1.83566 17.834 3.79167C17.834 5.74768 19.4196 7.33333 21.3757 7.33333Z" fill="#F7F9FC"/>
</svg>
