<svg width="14" height="14" viewBox="0 0 14 14" fill="none" xmlns="http://www.w3.org/2000/svg">
<path d="M8.75008 13.2707H5.25008C2.08258 13.2707 0.729248 11.9173 0.729248 8.74984V5.24984C0.729248 2.08234 2.08258 0.729004 5.25008 0.729004H8.75008C11.9176 0.729004 13.2709 2.08234 13.2709 5.24984V8.74984C13.2709 11.9173 11.9176 13.2707 8.75008 13.2707ZM5.25008 1.604C2.56091 1.604 1.60425 2.56067 1.60425 5.24984V8.74984C1.60425 11.439 2.56091 12.3957 5.25008 12.3957H8.75008C11.4392 12.3957 12.3959 11.439 12.3959 8.74984V5.24984C12.3959 2.56067 11.4392 1.604 8.75008 1.604H5.25008Z" fill="white"/>
</svg>
