<svg width="40" height="41" viewBox="0 0 40 41" fill="none" xmlns="http://www.w3.org/2000/svg">
<rect y="0.5" width="40" height="40" rx="20" fill="#E41515"/>
<path d="M27.5099 14.85L21.5699 11.42C20.5999 10.86 19.3999 10.86 18.4199 11.42L12.4899 14.85C11.5199 15.41 10.9199 16.45 10.9199 17.58V24.42C10.9199 25.54 11.5199 26.58 12.4899 27.15L18.4299 30.58C19.3999 31.14 20.5999 31.14 21.5799 30.58L27.5199 27.15C28.4899 26.59 29.0899 25.55 29.0899 24.42V17.58C29.0799 16.45 28.4799 15.42 27.5099 14.85ZM19.2499 16.75C19.2499 16.34 19.5899 16 19.9999 16C20.4099 16 20.7499 16.34 20.7499 16.75V22C20.7499 22.41 20.4099 22.75 19.9999 22.75C19.5899 22.75 19.2499 22.41 19.2499 22V16.75ZM20.9199 25.63C20.8699 25.75 20.7999 25.86 20.7099 25.96C20.5199 26.15 20.2699 26.25 19.9999 26.25C19.8699 26.25 19.7399 26.22 19.6199 26.17C19.4899 26.12 19.3899 26.05 19.2899 25.96C19.1999 25.86 19.1299 25.75 19.0699 25.63C19.0199 25.51 18.9999 25.38 18.9999 25.25C18.9999 24.99 19.0999 24.73 19.2899 24.54C19.3899 24.45 19.4899 24.38 19.6199 24.33C19.9899 24.17 20.4299 24.26 20.7099 24.54C20.7999 24.64 20.8699 24.74 20.9199 24.87C20.9699 24.99 20.9999 25.12 20.9999 25.25C20.9999 25.38 20.9699 25.51 20.9199 25.63Z" fill="#080604"/>
</svg>
