<svg width="40" height="41" viewBox="0 0 40 41" fill="none" xmlns="http://www.w3.org/2000/svg">
<rect y="0.5" width="40" height="40" rx="20" fill="#E41515"/>
<path d="M27.51 14.85L21.57 11.42C20.6 10.86 19.4 10.86 18.42 11.42L12.49 14.85C11.52 15.41 10.92 16.45 10.92 17.58V24.42C10.92 25.54 11.52 26.58 12.49 27.15L18.43 30.58C19.4 31.14 20.6 31.14 21.58 30.58L27.52 27.15C28.49 26.59 29.09 25.55 29.09 24.42V17.58C29.08 16.45 28.48 15.42 27.51 14.85ZM19.25 16.75C19.25 16.34 19.59 16 20 16C20.41 16 20.75 16.34 20.75 16.75V22C20.75 22.41 20.41 22.75 20 22.75C19.59 22.75 19.25 22.41 19.25 22V16.75ZM20.92 25.63C20.87 25.75 20.8 25.86 20.71 25.96C20.52 26.15 20.27 26.25 20 26.25C19.87 26.25 19.74 26.22 19.62 26.17C19.49 26.12 19.39 26.05 19.29 25.96C19.2 25.86 19.13 25.75 19.07 25.63C19.02 25.51 19 25.38 19 25.25C19 24.99 19.1 24.73 19.29 24.54C19.39 24.45 19.49 24.38 19.62 24.33C19.99 24.17 20.43 24.26 20.71 24.54C20.8 24.64 20.87 24.74 20.92 24.87C20.97 24.99 21 25.12 21 25.25C21 25.38 20.97 25.51 20.92 25.63Z" fill="#080604"/>
</svg>
