<svg width="14" height="14" viewBox="0 0 14 14" fill="none" xmlns="http://www.w3.org/2000/svg">
<path d="M3.4591 7.97991C3.56993 7.97991 3.68076 8.02075 3.76826 8.10825L6.99993 11.3399L10.2316 8.10825C10.4008 7.93908 10.6808 7.93908 10.8499 8.10825C11.0191 8.27741 11.0191 8.55741 10.8499 8.72658L7.3091 12.2674C7.13993 12.4366 6.85993 12.4366 6.69076 12.2674L3.14993 8.72658C2.98076 8.55741 2.98076 8.27741 3.14993 8.10825C3.2316 8.02075 3.34826 7.97991 3.4591 7.97991Z" fill="white"/>
<path d="M7 1.60413C7.23917 1.60413 7.4375 1.80246 7.4375 2.04163L7.4375 11.8591C7.4375 12.0983 7.23917 12.2966 7 12.2966C6.76083 12.2966 6.5625 12.0983 6.5625 11.8591L6.5625 2.04163C6.5625 1.80246 6.76083 1.60413 7 1.60413Z" fill="white"/>
</svg>
