<svg width="34" height="30" viewBox="0 0 34 30" fill="none" xmlns="http://www.w3.org/2000/svg">
<path d="M10.808 13.6254C12.7972 15 14.5208 16.8195 15.8726 18.9711C16.2858 19.6285 16.6635 20.3191 17 21.0297C17.3365 20.3125 17.7142 19.6285 18.1274 18.9711C19.4792 16.8195 21.2028 15 23.192 13.6254C25.8306 11.7992 28.9295 10.75 32.2292 10.75H32.8135C33.4688 10.75 34 11.3477 34 12.0848C34 21.9129 26.9226 29.875 18.1865 29.875H15.8135C7.07743 29.875 0 21.9129 0 12.0848C0 11.3477 0.53125 10.75 1.18646 10.75H1.77083C5.07049 10.75 8.16944 11.7992 10.808 13.6254ZM17.7969 0.496875C18.7236 1.61914 21.4035 5.26484 22.7788 11.4273C20.5358 12.8617 18.5642 14.8008 17 17.1117C15.4358 14.8008 13.4642 12.8684 11.2212 11.4273C12.5906 5.26484 15.2705 1.61914 16.2031 0.496875C16.4097 0.251172 16.699 0.125 17 0.125C17.301 0.125 17.5903 0.251172 17.7969 0.496875Z" fill="#F7F9FC"/>
</svg>
