<svg width="24" height="25" viewBox="0 0 24 25" fill="none" xmlns="http://www.w3.org/2000/svg">
<path d="M22.25 10.5C22.25 10.6339 22.1339 10.75 22 10.75C20.7639 10.75 19.75 11.7639 19.75 13C19.75 14.2361 20.7639 15.25 22 15.25C22.1339 15.25 22.25 15.3661 22.25 15.5C22.25 17.6878 21.9094 18.941 21.1752 19.6752C20.441 20.4094 19.1878 20.75 17 20.75H11.25V19C11.25 18.3139 10.6861 17.75 10 17.75C9.31386 17.75 8.75 18.3139 8.75 19V20.75H7C4.81222 20.75 3.55896 20.4094 2.8248 19.6752C2.09065 18.941 1.75 17.6878 1.75 15.5V15C1.75 14.8661 1.86614 14.75 2 14.75C3.23614 14.75 4.25 13.7361 4.25 12.5C4.25 11.2639 3.23614 10.25 2 10.25C1.86614 10.25 1.75 10.1339 1.75 10V9.5C1.75 7.31222 2.09065 6.05896 2.8248 5.3248C3.55896 4.59065 4.81222 4.25 7 4.25H8.75V6C8.75 6.68614 9.31386 7.25 10 7.25C10.6861 7.25 11.25 6.68614 11.25 6V4.25H17C19.1878 4.25 20.441 4.59065 21.1752 5.3248C21.9094 6.05896 22.25 7.31222 22.25 9.5V10.5ZM10 15.92C10.6861 15.92 11.25 15.3561 11.25 14.67V10.33C11.25 9.64386 10.6861 9.08 10 9.08C9.31386 9.08 8.75 9.64386 8.75 10.33V14.67C8.75 15.3561 9.31386 15.92 10 15.92Z" fill="white" stroke="white"/>
</svg>
