<svg width="30" height="30" viewBox="0 0 30 30" fill="none" xmlns="http://www.w3.org/2000/svg">
<circle cx="15" cy="15" r="15" fill="#4E4E4E"/>
<path d="M20.834 10.8307H14.1673V16.6641H7.50065V9.16406H5.83398V21.6641H7.50065V19.1641H22.5007V21.6641H24.1673V14.1641C24.1673 13.28 23.8161 12.4322 23.191 11.807C22.5659 11.1819 21.718 10.8307 20.834 10.8307ZM10.834 15.8307C11.497 15.8307 12.1329 15.5673 12.6018 15.0985C13.0706 14.6297 13.334 13.9938 13.334 13.3307C13.334 12.6677 13.0706 12.0318 12.6018 11.563C12.1329 11.0941 11.497 10.8307 10.834 10.8307C10.1709 10.8307 9.53506 11.0941 9.06622 11.563C8.59738 12.0318 8.33398 12.6677 8.33398 13.3307C8.33398 13.9938 8.59738 14.6297 9.06622 15.0985C9.53506 15.5673 10.1709 15.8307 10.834 15.8307Z" fill="white"/>
</svg>
