<svg width="12" height="26" viewBox="0 0 12 26" fill="none" xmlns="http://www.w3.org/2000/svg">
<path d="M6.00001 3.59999C5.65001 3.59999 5.30001 3.73499 5.03501 3.99999L1.77501 7.25999C1.63001 7.40499 1.63001 7.64499 1.77501 7.78999C1.92001 7.93499 2.16001 7.93499 2.30501 7.78999L5.56501 4.52999C5.80501 4.28999 6.19501 4.28999 6.43501 4.52999L9.69501 7.78999C9.84001 7.93499 10.08 7.93499 10.225 7.78999C10.37 7.64499 10.37 7.40499 10.225 7.25999L6.96501 3.99999C6.70001 3.73499 6.35001 3.59999 6.00001 3.59999Z" fill="#8993A8"/>
<path d="M6.00001 22.4C5.65001 22.4 5.30001 22.265 5.03501 22L1.77501 18.74C1.63001 18.595 1.63001 18.355 1.77501 18.21C1.92001 18.065 2.16001 18.065 2.30501 18.21L5.56501 21.47C5.80501 21.71 6.19501 21.71 6.43501 21.47L9.69501 18.21C9.84001 18.065 10.08 18.065 10.225 18.21C10.37 18.355 10.37 18.595 10.225 18.74L6.96501 22C6.70001 22.265 6.35001 22.4 6.00001 22.4Z" fill="#8993A8"/>
</svg>
