<svg width="34" height="34" viewBox="0 0 34 34" fill="none" xmlns="http://www.w3.org/2000/svg">
<path d="M27.0442 17.8343C26.8175 17.8343 26.5908 17.7634 26.3925 17.6076C20.6833 13.2018 13.3025 13.2018 7.59332 17.6076C7.12582 17.9618 6.45999 17.8768 6.10582 17.4234C5.75165 16.9559 5.83665 16.2901 6.28999 15.9359C12.7925 10.9068 21.1933 10.9068 27.6817 15.9359C28.1492 16.2901 28.2342 16.9559 27.8658 17.4234C27.6817 17.6926 27.37 17.8343 27.0442 17.8343Z" fill="#F7F9FC"/>
<path d="M31.1662 12.9043C30.9395 12.9043 30.7129 12.8334 30.5145 12.6776C22.2979 6.33094 11.687 6.33094 3.48452 12.6776C3.01702 13.0318 2.35119 12.9468 1.99702 12.4934C1.62869 12.0401 1.71369 11.3601 2.18119 11.0059C11.177 4.0501 22.8079 4.0501 31.8179 11.0059C32.2854 11.3601 32.3704 12.0259 32.002 12.4934C31.8037 12.7626 31.4779 12.9043 31.1662 12.9043Z" fill="#F7F9FC"/>
<path d="M24.3811 23.0058C24.1544 23.0058 23.9277 22.935 23.7294 22.7792C19.6494 19.62 14.3652 19.62 10.2711 22.7792C9.80355 23.1333 9.13772 23.0483 8.78355 22.595C8.42939 22.1275 8.51439 21.4617 8.96772 21.1075C13.8411 17.3392 20.1452 17.3392 25.0186 21.1075C25.4861 21.4617 25.5711 22.1275 25.2027 22.595C25.0044 22.8642 24.6927 23.0058 24.3811 23.0058Z" fill="#F7F9FC"/>
<path d="M20.6838 28.194C20.4571 28.194 20.2305 28.1231 20.0321 27.9673C18.1905 26.5365 15.7963 26.5365 13.9546 27.9673C13.4871 28.3215 12.8213 28.2365 12.4671 27.7831C12.113 27.3156 12.198 26.6498 12.6513 26.2956C15.2863 24.2556 18.6863 24.2556 21.3213 26.2956C21.7888 26.6498 21.8738 27.3156 21.5055 27.7831C21.3213 28.0381 21.0096 28.194 20.6838 28.194Z" fill="#F7F9FC"/>
</svg>
