<svg width="40" height="41" viewBox="0 0 40 41" fill="none" xmlns="http://www.w3.org/2000/svg">
<rect y="0.5" width="40" height="40" rx="20" fill="#C3AD60"/>
<path d="M29.75 15.7302C29.75 15.5302 29.67 15.3402 29.53 15.2002L25.81 11.4802C25.52 11.1902 25.04 11.1902 24.75 11.4802C24.46 11.7702 24.46 12.2502 24.75 12.5402L27.2 14.9902H11C10.59 14.9902 10.25 15.3302 10.25 15.7402C10.25 16.1502 10.59 16.4802 11 16.4802H27.19L24.75 18.9202C24.46 19.2102 24.46 19.6902 24.75 19.9802C24.9 20.1302 25.09 20.2002 25.28 20.2002C25.47 20.2002 25.66 20.1302 25.81 19.9802L29.52 16.2702C29.59 16.2002 29.65 16.1102 29.69 16.0102C29.69 16.0002 29.69 15.9902 29.7 15.9802C29.73 15.9002 29.75 15.8202 29.75 15.7302Z" fill="#080604"/>
<path d="M29 25.5202H12.81L15.25 23.0802C15.54 22.7902 15.54 22.3102 15.25 22.0202C14.96 21.7302 14.48 21.7302 14.19 22.0202L10.48 25.7302C10.41 25.8002 10.35 25.8902 10.31 25.9902C10.31 26.0002 10.31 26.0102 10.3 26.0202C10.27 26.1002 10.25 26.1902 10.25 26.2802C10.25 26.4802 10.33 26.6702 10.47 26.8102L14.19 30.5302C14.34 30.6802 14.53 30.7502 14.72 30.7502C14.91 30.7502 15.1 30.6802 15.25 30.5302C15.54 30.2402 15.54 29.7602 15.25 29.4702L12.8 27.0202H29C29.41 27.0202 29.75 26.6802 29.75 26.2702C29.75 25.8602 29.41 25.5202 29 25.5202Z" fill="#080604"/>
</svg>
